<?xml version="1.0" encoding="UTF-8" standalone="no"?><!DOCTYPE svg><svg width="112" height="151" viewBox="0 0 112 151" xmlns="http://www.w3.org/2000/svg"><title>alkaline-batteries</title><g fill="none" fill-rule="evenodd"><path d="M32.083 7.482l-.317-.846c0-1.554-3.662-2.815-8.178-2.815-4.515 0-8.177 1.262-8.177 2.816l-.316.846C8.2 8.587 3.41 10.987 3.41 13.778V141.23c0 3.838 9.034 6.95 20.178 6.95 11.145 0 20.18-3.112 20.18-6.95V13.778c0-2.79-4.79-5.19-11.685-6.295" fill="#D9C72D"/><path d="M32.083 7.482l-.317-.846c0-1.554-3.662-2.815-8.178-2.815-4.515 0-8.177 1.262-8.177 2.816l-.316.846C8.2 8.587 3.41 10.987 3.41 13.778V141.23c0 3.838 9.034 6.95 20.178 6.95 11.145 0 20.18-3.112 20.18-6.95V13.778c0-2.79-4.79-5.19-11.685-6.295z" stroke="#36342F" stroke-width="3.914"/><path d="M3.41 13.778v44.09c0 3.836 9.035 6.947 20.18 6.947 11.143 0 20.178-3.11 20.178-6.948v-44.09H3.41z" fill="#3C8C83"/><path d="M3.41 13.778v44.09c0 3.836 9.035 6.947 20.18 6.947 11.143 0 20.178-3.11 20.178-6.948v-44.09H3.41z" stroke="#36342F" stroke-width="2.446" stroke-linejoin="round"/><path d="M30.913 37.103h-5.13V31.97h-4.38v5.133h-5.14v4.38h5.14v5.14h4.38v-5.14h5.13v-4.38zM16.262 124.51h14.652v4.38H16.262v-4.38z" fill="#36342F"/><path d="M43.767 13.778c0 3.837-9.035 6.948-20.18 6.948-11.143 0-20.178-3.11-20.178-6.948 0-3.837 9.034-6.948 20.178-6.948s20.18 3.11 20.18 6.948" fill="#9C9D9C"/><path d="M43.767 13.778c0 3.837-9.035 6.948-20.18 6.948-11.143 0-20.178-3.11-20.178-6.948 0-3.837 9.034-6.948 20.178-6.948s20.18 3.11 20.18 6.948z" stroke="#36342F" stroke-width="2.446"/><path d="M33.4 10.988l-1.634-4.35H15.41l-1.632 4.35c-.203.276-.323.563-.323.86 0 1.926 4.537 3.49 10.134 3.49 5.595 0 10.132-1.564 10.132-3.49 0-.297-.12-.584-.323-.86" fill="#9C9D9C"/><path d="M33.4 10.988l-1.634-4.35H15.41l-1.632 4.35c-.203.276-.323.563-.323.86 0 1.926 4.537 3.49 10.134 3.49 5.595 0 10.132-1.564 10.132-3.49 0-.297-.12-.584-.323-.86z" stroke="#36342F" stroke-width="1.712"/><path d="M31.766 6.636c0 1.556-3.662 2.816-8.177 2.816-4.517 0-8.18-1.26-8.18-2.816 0-1.555 3.663-2.815 8.18-2.815 4.514 0 8.176 1.26 8.176 2.816" fill="#E4E5E3"/><path d="M31.766 6.636c0 1.556-3.662 2.816-8.177 2.816-4.517 0-8.18-1.26-8.18-2.816 0-1.555 3.663-2.815 8.18-2.815 4.514 0 8.176 1.26 8.176 2.816z" stroke="#36342F" stroke-width="1.712"/><path d="M96.906 7.482l-.317-.846c0-1.554-3.663-2.815-8.18-2.815-4.514 0-8.176 1.262-8.176 2.816l-.317.846c-6.894 1.105-11.684 3.505-11.684 6.296V141.23c0 3.838 9.034 6.95 20.178 6.95 11.146 0 20.18-3.112 20.18-6.95V13.778c0-2.79-4.79-5.19-11.684-6.295" fill="#D9C72D"/><path d="M96.906 7.482l-.317-.846c0-1.554-3.663-2.815-8.18-2.815-4.514 0-8.176 1.262-8.176 2.816l-.317.846c-6.894 1.105-11.684 3.505-11.684 6.296V141.23c0 3.838 9.034 6.95 20.178 6.95 11.146 0 20.18-3.112 20.18-6.95V13.778c0-2.79-4.79-5.19-11.684-6.295z" stroke="#36342F" stroke-width="3.914"/><path d="M68.233 13.778v44.09c0 3.836 9.035 6.947 20.18 6.947 11.143 0 20.178-3.11 20.178-6.948v-44.09H68.234z" fill="#3C8C83"/><path d="M68.233 13.778v44.09c0 3.836 9.035 6.947 20.18 6.947 11.143 0 20.178-3.11 20.178-6.948v-44.09H68.234z" stroke="#36342F" stroke-width="2.446" stroke-linejoin="round"/><path d="M95.736 37.103h-5.13V31.97h-4.38v5.133h-5.14v4.38h5.14v5.14h4.38v-5.14h5.13v-4.38zM81.085 124.51h14.652v4.38H81.085v-4.38z" fill="#36342F"/><g><path d="M108.59 13.778c0 3.837-9.035 6.948-20.18 6.948-11.143 0-20.178-3.11-20.178-6.948 0-3.837 9.035-6.948 20.18-6.948 11.143 0 20.178 3.11 20.178 6.948" fill="#9C9D9C"/><path d="M108.59 13.778c0 3.837-9.035 6.948-20.18 6.948-11.143 0-20.178-3.11-20.178-6.948 0-3.837 9.035-6.948 20.18-6.948 11.143 0 20.178 3.11 20.178 6.948z" stroke="#36342F" stroke-width="2.446"/><path d="M98.222 10.988l-1.633-4.35H80.233l-1.633 4.35c-.202.276-.322.563-.322.86 0 1.926 4.537 3.49 10.134 3.49 5.596 0 10.133-1.564 10.133-3.49 0-.297-.12-.584-.323-.86" fill="#9C9D9C"/><path d="M98.222 10.988l-1.633-4.35H80.233l-1.633 4.35c-.202.276-.322.563-.322.86 0 1.926 4.537 3.49 10.134 3.49 5.596 0 10.133-1.564 10.133-3.49 0-.297-.12-.584-.323-.86z" stroke="#36342F" stroke-width="1.712"/><path d="M96.59 6.636c0 1.556-3.663 2.816-8.178 2.816-4.516 0-8.178-1.26-8.178-2.816 0-1.555 3.662-2.815 8.178-2.815 4.515 0 8.177 1.26 8.177 2.816" fill="#E4E5E3"/><path d="M96.59 6.636c0 1.556-3.663 2.816-8.178 2.816-4.516 0-8.178-1.26-8.178-2.816 0-1.555 3.662-2.815 8.178-2.815 4.515 0 8.177 1.26 8.177 2.816z" stroke="#36342F" stroke-width="1.712"/></g></g></svg>