<?xml version="1.0" encoding="UTF-8" standalone="no"?><!DOCTYPE svg><svg width="93" height="165" viewBox="0 0 93 165" xmlns="http://www.w3.org/2000/svg"><title>cellphones</title><g fill="none" fill-rule="evenodd"><path d="M18.315 162.925c-.188 0-.372-.006-.554-.018l-.177-.01c-.28-.025-.557-.063-.827-.114l-.147-.032c-.247-.052-.47-.107-.683-.173-.056-.015-.13-.037-.202-.06-.258-.085-.515-.182-.765-.293l-.095-.045c-.134-.06-.305-.145-.472-.236l-4.594-2.5-.07-.046c-.29-.164-.55-.332-.793-.512-.31-.23-.57-.455-.845-.722-.053-.05-.116-.116-.178-.183-.217-.228-.383-.417-.54-.615-.077-.097-.148-.19-.218-.285-.16-.22-.31-.45-.448-.686-.06-.094-.096-.153-.13-.214-.182-.33-.34-.66-.473-.993-.022-.05-.047-.122-.07-.194-.114-.308-.202-.58-.28-.857-.034-.128-.062-.247-.09-.367-.062-.268-.11-.536-.15-.808 0 0-.04-.27-.05-.355-.048-.42-.07-.81-.068-1.184l.24-129.88c.01-5.467 4.176-10.498 9.283-11.216l59.513-8.364c.297-.04.586-.063.873-.076l.367-.007c.19 0 .378.007.562.02l.18.01c.28.024.553.062.824.113l.15.033c.246.052.46.107.673.17.06.017.136.04.213.066.256.084.508.178.756.288l.106.052c.115.05.29.135.463.228l4.587 2.495.105.07c.236.13.51.305.768.495.31.23.572.455.848.724.055.054.114.116.172.178.22.234.388.424.546.624.068.083.138.176.21.273.165.226.314.456.455.695.06.092.096.15.13.21.182.33.338.66.473.99.026.067.046.124.065.18.12.328.21.602.288.884.028.1.05.2.073.298.075.324.125.595.165.87 0 0 .04.257.05.342.048.44.07.83.068 1.2l-.24 129.88c-.01 5.462-4.175 10.49-9.283 11.21l-59.514 8.363c-.296.04-.585.063-.872.075l-.38.007z" fill="#9C9D9C"/><path d="M88.104 12.48c-.01-.1-.028-.198-.042-.298-.035-.232-.076-.46-.128-.683-.024-.102-.048-.204-.075-.304-.066-.24-.143-.47-.228-.698-.024-.064-.043-.13-.07-.194-.114-.284-.245-.557-.39-.818-.035-.063-.075-.12-.11-.18-.12-.2-.244-.39-.377-.574-.056-.077-.114-.15-.174-.226-.13-.166-.27-.324-.417-.477-.058-.062-.113-.125-.174-.183-.21-.202-.426-.394-.657-.566l-.033-.02c-.22-.164-.453-.31-.692-.443-.792-.444-1.682-.728-2.635-.817-.13-.013-.263-.016-.395-.02-.09-.004-.182-.008-.274-.008-.337 0-.68.016-1.028.065l-60.44 8.46c-2.404.335-4.565 1.788-6.032 3.808-.21.288-.405.588-.585.898-.864 1.488-1.37 3.208-1.374 4.98l-.244 131.354c0 .345.023.68.06 1.01.01.103.028.2.043.3.034.233.076.46.127.68.024.104.048.206.075.308.065.235.14.465.224.69.026.066.046.135.074.202.114.282.245.554.39.814.035.067.077.128.116.192.114.194.236.38.368.56.058.08.116.156.177.23 0 .002.002.003.003.005.13.163.265.318.41.467.06.064.12.13.18.19.208.2.423.39.652.562l.05.032c.214.16.442.302.676.433.07.04.145.076.218.113.222.114.452.215.687.304.072.026.14.056.215.08.297.1.603.182.917.24.06.01.12.015.18.025.267.042.54.068.816.077.09.003.18.006.273.006.237 0 .476-.014.72-.037.102-.012.205-.013.31-.028l60.153-8.42.286-.04c4.396-.614 7.98-4.96 7.99-9.686v-.128l.244-131.226c0-.045-.006-.087-.006-.13-.003-.3-.02-.595-.054-.882" fill="#FFF"/><path d="M88.104 12.48c-.01-.1-.028-.198-.042-.298-.035-.232-.076-.46-.128-.683-.024-.102-.048-.204-.075-.304-.066-.24-.143-.47-.228-.698-.024-.064-.043-.13-.07-.194-.114-.284-.245-.557-.39-.818-.035-.063-.075-.12-.11-.18-.12-.2-.244-.39-.377-.574-.056-.077-.114-.15-.174-.226-.13-.166-.27-.324-.417-.477-.058-.062-.113-.125-.174-.183-.21-.202-.426-.394-.657-.566l-.033-.02c-.22-.164-.453-.31-.692-.443-.792-.444-1.682-.728-2.635-.817-.13-.013-.263-.016-.395-.02-.09-.004-.182-.008-.274-.008-.337 0-.68.016-1.028.065l-60.44 8.46c-2.404.335-4.565 1.788-6.032 3.808-.21.288-.405.588-.585.898-.864 1.488-1.37 3.208-1.374 4.98l-.244 131.354c0 .345.023.68.06 1.01.01.103.028.2.043.3.034.233.076.46.127.68.024.104.048.206.075.308.065.235.14.465.224.69.026.066.046.135.074.202.114.282.245.554.39.814.035.067.077.128.116.192.114.194.236.38.368.56.058.08.116.156.177.23 0 .002.002.003.003.005.13.163.265.318.41.467.06.064.12.13.18.19.208.2.423.39.652.562l.05.032c.214.16.442.302.676.433.07.04.145.076.218.113.222.114.452.215.687.304.072.026.14.056.215.08.297.1.603.182.917.24.06.01.12.015.18.025.267.042.54.068.816.077.09.003.18.006.273.006.237 0 .476-.014.72-.037.102-.012.205-.013.31-.028l60.153-8.42.286-.04c4.396-.614 7.98-4.96 7.99-9.686v-.128l.244-131.226c0-.045-.006-.087-.006-.13-.003-.3-.02-.595-.054-.882z" stroke="#36342F" stroke-width="2"/><path d="M61.49 138.932c0-.002 0-.005-.002-.006-.012-.128-.036-.25-.053-.376l-.016-.105c-.014-.09-.023-.185-.04-.275v-.007c-.025-.126-.06-.245-.09-.368-.03-.117-.053-.237-.088-.35v-.006c-.026-.086-.06-.166-.09-.248-.013-.043-.028-.085-.044-.127-.036-.102-.067-.207-.108-.306 0-.003 0-.005-.002-.007-.048-.115-.106-.222-.16-.333 0-.004-.002-.01-.005-.013-.046-.096-.087-.197-.138-.29l-.003-.006c-.056-.104-.123-.2-.184-.302l-.035-.058c-.05-.076-.09-.156-.14-.23 0 0-.002 0-.002-.002v-.002c-.072-.104-.152-.198-.228-.297l-.03-.04c-.053-.068-.1-.14-.156-.204l-.004-.005c-.083-.096-.175-.184-.263-.275l-.028-.028c-.058-.06-.112-.126-.174-.183h-.002l-.002-.004c-.094-.088-.195-.166-.295-.248l-.012-.01c-.07-.057-.133-.12-.204-.172 0 0-.002 0-.002-.002-.002 0-.003 0-.003-.002-.112-.084-.23-.157-.35-.232-.07-.046-.133-.096-.204-.138-.002 0-.003-.002-.004-.003-.125-.073-.256-.135-.385-.198-.07-.036-.137-.076-.21-.11h-.004c-.15-.068-.304-.122-.46-.176-.056-.02-.11-.047-.17-.066l-.004-.002c-.165-.053-.336-.09-.506-.13-.053-.01-.103-.03-.156-.04h-.005c-.128-.025-.26-.037-.392-.055l-.14-.02c-.054-.005-.103-.017-.156-.02h-.006c-.203-.018-.41-.02-.62-.017-.03 0-.062-.003-.094-.002h-.005c-.114.003-.23.02-.344.03-.133.01-.264.014-.4.033-.157.024-.31.06-.465.092-.09.02-.183.03-.275.054-.002 0-.002 0-.003.002-.164.04-.325.096-.486.148-.076.025-.155.043-.23.07l-.005.002c-.156.058-.31.127-.465.195l-.007.003c-.07.032-.146.057-.217.092h-.003s0 .002-.002.002c-.16.077-.315.165-.47.252-.063.036-.13.066-.192.104l-.004.002c-.164.097-.32.206-.476.314-.05.036-.105.066-.156.103l-.004.003c-.11.08-.212.17-.317.253l-.168.135c-.037.03-.076.057-.11.088-.003 0-.003.002-.005.003-.09.08-.176.167-.265.25-.057.055-.117.11-.174.166-.038.038-.08.072-.118.11 0 .003 0 .003-.003.005-.084.086-.16.18-.242.27-.055.062-.11.122-.164.185-.035.04-.075.08-.108.12l-.004.004c-.135.165-.262.338-.387.513-.025.035-.054.07-.08.106v.003c-.068.095-.126.196-.188.294-.043.07-.09.136-.13.206-.033.053-.07.104-.1.158l-.004.005c-.058.1-.108.208-.163.31-.036.07-.072.136-.106.204-.03.06-.065.118-.094.18l-.002.003c-.077.163-.143.332-.21.5-.032.075-.067.148-.096.224v.005c-.042.107-.073.22-.11.328-.026.08-.053.16-.077.24-.017.06-.04.12-.058.18 0 .002 0 .004-.002.005-.03.107-.05.217-.075.325-.024.098-.05.198-.07.298-.01.05-.024.098-.033.148l-.002.006c-.03.166-.048.334-.07.502-.013.095-.03.19-.04.285 0 .002 0 .004-.002.006-.01.118-.01.238-.017.357-.007.15-.02.298-.02.448 0 .14.012.275.018.412.006.128.006.26.018.384v.005c.013.136.038.267.058.4.016.12.03.243.05.36l.03.113.058.238c.014.06.03.12.043.18.016.064.03.13.047.19 0 .003 0 .003.002.005 0 .005.003.01.004.014.04.135.093.263.14.393.035.092.062.187.1.277.057.143.128.278.196.415.037.075.07.153.108.226v.002l.03.05c.07.122.144.24.22.36.04.06.072.124.112.183 0 0 0 .002.002.003.047.068.1.13.15.196l.1.13c.052.072.106.145.163.213 0 .002.002.003.003.004.062.074.13.137.196.206.054.06.11.12.168.18.034.034.064.07.1.103.02.018.04.032.06.05.102.094.212.183.322.27.044.036.085.077.132.112l.005.003c.062.048.132.087.197.133.08.055.16.11.242.16.04.025.074.054.114.078.003 0 .003 0 .005.002.08.048.17.087.254.13.004.004.01.007.016.01.075.04.153.082.232.12.03.014.06.032.09.046 0 0 .002 0 .002.002.078.034.158.06.237.09l.06.022c.01.004.023.01.035.013.005.004.01.006.017.008.093.035.184.077.28.107h.004c.094.032.194.05.29.075.092.025.183.05.276.072.028.007.055.015.084.02l.012.004h.005c.16.032.328.05.49.068.07.008.133.022.2.028h.007c.197.017.4.018.604.016h.018c.03 0 .06.003.092.002h.006c.118-.003.24-.02.358-.03.128-.01.254-.015.383-.033.145-.02.288-.055.43-.084.103-.022.21-.036.31-.06l.007-.003c.136-.034.266-.08.398-.122.053-.016.107-.03.16-.048.05-.017.105-.03.156-.048.003 0 .004 0 .007-.002.122-.045.24-.1.36-.15.11-.048.225-.09.335-.142.11-.052.213-.114.32-.17.086-.048.175-.09.26-.14.028-.017.055-.03.08-.044.003 0 .005-.003.007-.004.105-.063.205-.135.307-.203.058-.038.118-.075.174-.115.05-.033.1-.063.15-.097 0-.002 0-.004.004-.005.098-.07.19-.152.285-.227l.085-.067c.074-.06.152-.116.224-.18 0 0 .002 0 .003-.002.087-.075.166-.157.248-.235l.06-.06c.083-.077.168-.15.248-.232l.005-.006c.073-.075.14-.156.21-.233l.084-.096c.073-.082.15-.16.22-.244 0-.002.002-.004.004-.006.07-.085.13-.175.197-.262l.057-.075c.07-.093.144-.184.21-.28l.005-.006c.06-.085.112-.176.17-.264.016-.028.034-.057.053-.085.063-.1.132-.2.192-.305l.004-.007c.047-.08.085-.163.13-.244.015-.032.033-.065.05-.097.06-.117.127-.23.182-.35 0-.002.002-.003.003-.005.05-.105.09-.214.136-.32.057-.134.12-.266.17-.402l.002-.006c.048-.127.084-.26.126-.388.04-.12.085-.238.12-.36v-.006c.027-.1.046-.202.07-.303.013-.05.025-.102.036-.153.024-.105.053-.208.073-.314v-.005c.022-.108.03-.218.047-.327l.012-.084c.018-.125.042-.25.054-.376v-.006c.01-.114.01-.23.017-.346.008-.153.022-.305.022-.46 0-.14-.012-.274-.02-.41-.005-.13-.004-.26-.016-.384M43.822 22.053c.006.034.02.063.027.095l.015.052c.02.063.033.128.057.186v.002c.003.01.01.016.014.025.02.045.044.084.067.125.026.047.047.098.077.142.047.067.102.125.156.182.02.02.034.045.054.063.104.098.224.173.35.235.027.014.057.026.085.038.13.054.268.095.414.11l.018.003c.113.01.228.007.346-.01l16.605-2.333c.054-.008.106-.027.16-.04.062-.015.125-.025.185-.046h.002c.065-.024.126-.06.19-.09.042-.023.09-.038.132-.064.074-.046.144-.102.215-.157.024-.02.052-.036.075-.057.086-.074.164-.157.24-.244.003-.008.01-.013.015-.02.01-.01.016-.025.026-.036.067-.084.13-.17.184-.264 0-.002 0-.003.002-.004.024-.04.04-.086.06-.128.032-.063.067-.125.092-.192l.008-.017v-.002c.023-.062.036-.127.054-.19l.022-.078c.007-.03.02-.06.026-.093.012-.062.012-.126.017-.188.007-.065.02-.128.02-.192 0-.07-.013-.133-.02-.2-.005-.055-.005-.114-.015-.17-.005-.02-.014-.038-.018-.058-.01-.045-.025-.087-.04-.13-.014-.048-.024-.1-.043-.144v-.002c-.023-.053-.055-.1-.08-.148-.027-.048-.05-.1-.078-.143v-.002c-.028-.037-.062-.068-.092-.104l-.012-.014c-.036-.042-.067-.088-.107-.125-.026-.026-.06-.043-.086-.066l-.068-.05c-.034-.024-.064-.053-.1-.075-.066-.04-.137-.065-.208-.093-.03-.012-.054-.028-.084-.037-.073-.024-.15-.034-.23-.046-.026-.005-.052-.013-.078-.016-.005 0-.008-.003-.012-.003-.113-.008-.23-.005-.348.01L45.51 19.586c-.094.013-.186.04-.28.07-.02.007-.043.01-.064.017-.103.037-.203.086-.298.14-.008.006-.016.01-.026.013-.093.057-.182.123-.266.195-.01.007-.018.012-.026.02-.077.067-.15.143-.218.223-.012.014-.026.024-.036.038l-.002.002c-.027.035-.05.075-.077.112-.026.035-.05.07-.075.108-.02.028-.04.054-.058.083v.002c-.044.075-.077.156-.113.236-.012.034-.032.065-.045.1-.036.093-.058.188-.08.284-.006.027-.017.052-.02.08h-.003c-.01.05-.008.1-.014.15-.008.075-.02.15-.02.228 0 .062.01.12.015.18.007.062.007.128.02.188" fill="#B4B5B4"/><path d="M30.652 23.723v.003c.003.023.008.044.01.066.005.05.013.1.02.148.012.08.02.16.034.237v.003c.012.06.03.115.044.173.02.086.037.172.063.255 0 .002 0 .003.002.004.014.05.034.1.05.15.03.085.058.172.092.254l.002.003c.018.045.042.087.062.132.037.083.074.167.117.246v.003c.004.007.008.013.01.02.02.036.045.07.066.106.045.076.09.154.14.226v.003l.027.034.055.072c.054.073.108.146.165.215l.002.002.03.03c.02.023.04.043.063.066.06.065.12.132.184.193h.002c.014.014.03.025.043.037.017.016.036.03.053.045.068.06.136.12.208.175l.002.002c.04.028.08.05.12.08.07.047.138.097.21.14h.002c.017.01.035.018.052.027.032.02.067.034.1.052.068.034.133.072.203.103h.002c.05.023.1.04.152.06.074.03.146.06.222.084.06.018.118.03.176.045.073.02.145.042.22.056h.002c.072.015.148.022.223.03.063.01.123.022.19.028.046.004.093 0 .14.003.094.004.19.01.287.006.038 0 .076-.007.114-.01.11-.006.218-.012.33-.027.048-.008.094-.02.142-.03.1-.017.2-.033.297-.058h.005c.04-.01.08-.027.122-.038l.073-.023c.076-.022.154-.04.23-.068v-.002c.082-.03.16-.066.24-.1.057-.024.115-.045.17-.07l.003-.003c.093-.044.183-.095.273-.146.04-.02.083-.04.123-.064.06-.037.115-.078.174-.115.047-.03.095-.06.14-.094.022-.013.043-.025.063-.04.11-.08.217-.166.32-.255.012-.01.024-.017.036-.028.07-.06.135-.127.202-.19l.076-.073c.017-.018.037-.035.055-.053v-.002c.067-.07.13-.143.193-.215.036-.042.074-.08.11-.123 0-.002 0-.002.003-.004 0 0 .002 0 .002-.002.058-.07.11-.146.166-.22.033-.043.067-.085.098-.13.005-.006.01-.01.014-.018v-.002c.175-.25.33-.52.46-.798l.003-.003c.13-.28.243-.572.327-.873l.005-.015s0-.002.002-.003c.03-.107.05-.214.074-.323.01-.045.024-.09.032-.136v-.003c.017-.092.028-.185.04-.278l.007-.05c.005-.048.015-.093.02-.14v-.005c.016-.16.024-.318.024-.48 0-.08-.007-.16-.01-.24-.004-.08-.004-.16-.01-.236-.008-.078-.023-.15-.034-.226-.008-.06-.015-.123-.026-.182 0-.014-.003-.03-.006-.042v-.004c-.014-.073-.035-.14-.052-.212-.018-.073-.033-.148-.055-.22-.02-.07-.047-.135-.07-.202-.026-.07-.047-.14-.074-.206-.025-.058-.055-.113-.082-.17-.032-.07-.062-.144-.1-.212-.025-.047-.055-.09-.08-.135-.045-.074-.087-.15-.135-.22-.03-.042-.063-.08-.093-.12-.05-.07-.1-.14-.155-.204-.032-.037-.067-.07-.1-.105-.06-.062-.116-.127-.18-.186-.036-.034-.077-.065-.115-.098-.063-.054-.124-.11-.19-.16-.037-.028-.08-.05-.118-.08-.07-.047-.14-.098-.215-.14-.048-.03-.1-.052-.15-.08-.067-.035-.134-.073-.206-.105-.048-.02-.1-.037-.15-.057-.075-.03-.15-.06-.226-.086-.04-.012-.08-.02-.122-.03-.09-.026-.18-.053-.274-.07-.038-.01-.08-.01-.12-.017-.085-.015-.17-.028-.258-.036-.01 0-.02-.003-.03-.004h-.004c-.102-.01-.205-.01-.308-.01h-.024c-.03 0-.06-.003-.09-.002H35.4c-.144.004-.292.017-.44.038l-.038.007c-.138.02-.274.047-.41.08 0 0 0 .002-.002.002-.142.036-.282.08-.42.128-.28.1-.55.23-.807.384l-.007.004c0 .002-.002.003-.004.004-.258.155-.503.333-.73.532l-.017.015c-.11.096-.213.195-.315.3l-.002.002c-.012.01-.023.023-.033.035-.094.1-.187.203-.275.31-.002.002-.005.005-.006.008l-.042.055c-.027.036-.055.07-.08.107-.05.066-.103.13-.15.2-.003.004-.007.007-.008.01-.055.082-.107.165-.158.25-.01.02-.023.038-.035.056l-.044.07c-.003 0-.003.002-.003.002l-.002.002v.003c-.05.084-.092.172-.137.26l-.016.03-.063.12-.004.006c-.017.035-.03.07-.045.107l-.062.15v.003c-.02.043-.038.085-.055.128l-.017.04v.002c-.015.037-.026.076-.038.114l-.007.022-.01.032-.023.072-.036.108c-.01.033-.023.066-.03.1-.002 0-.002 0-.002.002-.02.067-.03.134-.046.2l-.012.046c-.002.014-.006.028-.01.04-.012.06-.028.115-.04.172v.005c-.016.08-.024.163-.035.245l-.007.053c-.008.057-.018.112-.023.168v.004c-.017.16-.025.32-.025.48 0 .083.007.164.01.246.004.076.004.153.012.227" fill="#E4E5E3"/><path d="M83.043 32.796v-.002c-.032-.156-.087-.3-.14-.443-.02-.047-.028-.1-.047-.147-.058-.13-.137-.248-.21-.367l-.002-.004c-.032-.048-.052-.102-.086-.148v-.002c-.076-.104-.167-.192-.257-.283-.01-.014-.023-.03-.035-.04-.034-.036-.062-.08-.1-.11v-.003c-.083-.072-.177-.127-.267-.188-.017-.013-.032-.026-.05-.037-.054-.036-.1-.082-.16-.114v-.002c-.075-.04-.16-.066-.237-.1-.02-.01-.04-.017-.06-.026-.084-.034-.16-.078-.248-.104h-.002c-.066-.02-.138-.024-.206-.04l-.07-.012c-.108-.02-.213-.052-.325-.06h-.003c-.198-.016-.403-.007-.61.018h-.038L19.557 38.63c-.13.016-.252.056-.378.088-.09.023-.184.034-.27.064-.135.047-.258.113-.386.174-.07.035-.147.06-.217.1h-.003c-.12.068-.228.154-.34.234-.067.05-.14.09-.204.14 0 .002-.003.003-.003.003-.088.073-.163.16-.244.24-.077.075-.16.144-.23.224v.003c-.05.055-.087.12-.132.177-.01.015-.02.03-.032.045-.078.104-.16.204-.23.316v.002c-.033.05-.05.104-.08.155l-.05.103c-.058.113-.122.22-.17.34-.038.1-.06.206-.09.31-.03.11-.075.218-.098.332-.014.08-.014.16-.023.238-.02.144-.044.288-.044.435l-.17 86.557c0 .12.023.234.036.35.008.102.008.21.03.307.02.104.06.196.09.294.033.1.055.206.095.3.045.1.106.187.16.28.046.08.083.165.137.238.077.107.17.196.26.29.046.047.082.1.13.145h.003c.115.104.246.19.38.27.032.022.06.05.093.07.023.01.045.016.066.026.126.067.26.122.4.17.027.01.05.024.08.033.18.054.37.087.563.105.013 0 .024.006.04.007h.002c.207.016.423.01.646-.02l60.33-8.042c.09-.012.174-.043.262-.063.13-.027.264-.05.39-.092.082-.03.158-.073.237-.107.122-.052.248-.098.365-.164h.002c.086-.05.162-.114.244-.17.1-.068.207-.13.302-.207v-.003c.09-.073.166-.16.25-.24.074-.075.157-.143.228-.224l.002-.002c.072-.083.13-.178.197-.268l.038-.054c.05-.073.112-.14.158-.214v-.003c.07-.112.122-.235.18-.354 0-.006.005-.01.007-.015.036-.075.082-.146.112-.225v-.003c.05-.122.076-.25.11-.375.008-.02.013-.038.018-.057.02-.07.048-.137.062-.208v-.003c.043-.22.067-.445.067-.673l.17-86.557c0-.14-.023-.27-.04-.402-.01-.083-.008-.172-.024-.252" fill="#50B9AD"/><path d="M56.57 59.456L40.23 75.792M66.71 59.718L37.363 89.064M62.436 74.39L48.903 87.925m7.666-28.468L40.23 75.792M66.71 59.718L37.363 89.064M62.436 74.39L48.903 87.925" stroke="#FFF" stroke-width="1.758" stroke-linecap="round"/></g></svg>