<?xml version="1.0" encoding="UTF-8"?><!DOCTYPE svg><svg width="113px" height="50px" viewBox="0 0 113 50" version="1.1" xmlns="http://www.w3.org/2000/svg" xmlns:xlink="http://www.w3.org/1999/xlink"><!-- Generator: Sketch 40.3 (33839) - http://www.bohemiancoding.com/sketch --><title>dvd-cd-vcr-tape</title><desc>Created with Sketch.</desc><defs/><g id="Page-1" stroke="none" stroke-width="1" fill="none" fill-rule="evenodd"><g id="dvd-cd-vcr-tape" transform="translate(0.000000, 1.000000)"><g id="Page-1"><g id="Group"><polyline id="Fill-987" fill="#B7E0ED" points="108.058 43.714 43.521 37.324 43.691 3.34 108.228 9.73 108.058 43.714"/><polygon id="Stroke-988" stroke="#0A0A08" points="107.952588 43.4107045 43.521 37.324 43.7824707 3.69903564 108.228 9.73"/><polyline id="Fill-989" fill="#C7C7C2" points="112.209 6.476 47.672 0.086 43.691 3.34 108.228 9.73 112.209 6.476"/><polygon id="Stroke-990" stroke="#0A0A08" stroke-linecap="round" stroke-linejoin="round" points="112.209 6.476 47.672 0.086 43.691 3.34 108.228 9.73"/><polyline id="Fill-991" fill="#91928E" points="108.058 43.714 112.04 40.46 112.209 6.476 108.228 9.73 108.058 43.714"/><polygon id="Stroke-992" stroke="#0A0A08" stroke-linejoin="round" points="108.058 43.714 112.04 40.46 112.209 6.476 108.228 9.73"/><path d="M95.452,26.759 C95.462,24.827 93.971,23.112 92.123,22.929 C90.275,22.746 88.769,24.164 88.759,26.097 C88.749,28.029 90.24,29.744 92.088,29.927 C93.936,30.11 95.443,28.692 95.452,26.759" id="Fill-993" fill="#E3F4F8"/><path d="M95.452,26.759 C95.462,24.827 93.971,23.112 92.123,22.929 C90.275,22.746 88.769,24.164 88.759,26.097 C88.749,28.029 90.24,29.744 92.088,29.927 C93.936,30.11 95.443,28.692 95.452,26.759 L95.452,26.759 Z" id="Stroke-994" stroke="#0A0A08"/><path d="M62.872,23.534 C62.882,21.601 61.392,19.887 59.543,19.704 C57.695,19.521 56.189,20.939 56.179,22.871 C56.17,24.803 57.66,26.518 59.508,26.701 C61.357,26.884 62.863,25.466 62.872,23.534" id="Fill-995" fill="#E3F4F8"/><path d="M62.872,23.534 C62.882,21.601 61.392,19.887 59.543,19.704 C57.695,19.521 56.189,20.939 56.179,22.871 C56.17,24.803 57.66,26.518 59.508,26.701 C61.357,26.884 62.863,25.466 62.872,23.534 L62.872,23.534 Z" id="Stroke-996" stroke="#0A0A08"/><path d="M97.02,35.018 L92.396,34.56 C91.512,34.473 90.799,33.653 90.804,32.729 L90.868,19.876 C90.873,18.952 91.593,18.274 92.476,18.361 L97.101,18.819 C101.379,19.243 103.56,23.087 103.538,27.56 C103.516,32.033 101.299,35.442 97.02,35.018 L97.02,35.018 Z M60.763,29.755 C60.759,30.679 60.039,31.356 59.155,31.269 L54.531,30.811 C50.252,30.387 48.071,26.543 48.093,22.07 C48.116,17.597 50.333,14.189 54.612,14.612 L59.236,15.07 C60.12,15.158 60.832,15.977 60.828,16.901 L60.763,29.755 L60.763,29.755 Z M43.691,3.34 L43.521,37.324 L108.058,43.714 L108.228,9.73 L43.691,3.34 L43.691,3.34 L43.691,3.34 Z" id="Fill-997" fill="#91928E"/><path d="M97.02,35.018 L92.396,34.56 C91.512,34.473 90.799,33.653 90.804,32.729 L90.868,19.876 C90.873,18.952 91.593,18.274 92.476,18.361 L97.101,18.819 C101.379,19.243 103.56,23.087 103.538,27.56 C103.516,32.033 101.299,35.442 97.02,35.018 L97.02,35.018 Z M60.763,29.755 C60.759,30.679 60.039,31.356 59.155,31.269 L54.531,30.811 C50.252,30.387 48.071,26.543 48.093,22.07 C48.116,17.597 50.333,14.189 54.612,14.612 L59.236,15.07 C60.12,15.158 60.832,15.977 60.828,16.901 L60.763,29.755 L60.763,29.755 Z M43.691,3.34 L43.521,37.324 L108.058,43.714 L108.228,9.73 L43.691,3.34 L43.691,3.34 Z" id="Stroke-998" stroke="#0A0A08" stroke-linecap="round" stroke-linejoin="round"/><polyline id="Fill-999" fill="#DF4D44" points="87.802 34.105 63.854 31.734 63.935 15.535 87.882 17.907 87.802 34.105"/><polygon id="Stroke-1000" stroke="#0A0A08" points="87.802 34.105 63.854 31.734 63.935 15.535 87.882 17.907"/><polyline id="Fill-1001" fill="#FFFFFF" points="87.818 30.868 63.87 28.496 63.912 20.136 87.859 22.507 87.818 30.868"/><path d="M87.818,30.868 L63.87,28.496 L63.912,20.136 L87.859,22.507 L87.818,30.868 L87.818,30.868 Z M43.668,7.982 L108.205,14.372 L43.668,7.982 L43.668,7.982 Z M84.975,27.793 L66.74,25.987 L84.975,27.793 L84.975,27.793 Z M84.989,25.016 L66.754,23.211 L84.989,25.016 L84.989,25.016 Z" id="Stroke-1002" stroke="#0A0A08"/><path d="M19.769,39.323 C18.714,39.323 17.859,38.739 17.859,38.019 C17.859,37.298 18.714,36.714 19.769,36.714 C20.823,36.714 21.678,37.298 21.678,38.019 C21.678,38.739 20.823,39.323 19.769,39.323 L19.769,39.323 Z M19.769,27.728 C9.401,27.728 0.996,32.335 0.996,38.019 C0.996,43.702 9.401,48.309 19.769,48.309 C30.137,48.309 38.542,43.702 38.542,38.019 C38.542,32.335 30.137,27.728 19.769,27.728 L19.769,27.728 L19.769,27.728 Z" id="Fill-1003" fill="#B7E0ED"/><path d="M19.769,39.323 C18.714,39.323 17.859,38.739 17.859,38.019 C17.859,37.298 18.714,36.714 19.769,36.714 C20.823,36.714 21.678,37.298 21.678,38.019 C21.678,38.739 20.823,39.323 19.769,39.323 L19.769,39.323 Z M19.769,27.728 C9.401,27.728 0.996,32.335 0.996,38.019 C0.996,43.702 9.401,48.309 19.769,48.309 C30.137,48.309 38.542,43.702 38.542,38.019 C38.542,32.335 30.137,27.728 19.769,27.728 L19.769,27.728 Z" id="Stroke-1004" stroke="#0A0A08"/><path d="M19.769,39.323 C18.714,39.323 17.859,38.739 17.859,38.019 C17.859,37.298 18.714,36.714 19.769,36.714 C20.823,36.714 21.678,37.298 21.678,38.019 C21.678,38.739 20.823,39.323 19.769,39.323 L19.769,39.323 Z M19.769,34.105 C16.605,34.105 14.04,35.857 14.04,38.019 C14.04,40.18 16.605,41.932 19.769,41.932 C22.932,41.932 25.497,40.18 25.497,38.019 C25.497,35.857 22.932,34.105 19.769,34.105 L19.769,34.105 L19.769,34.105 Z" id="Fill-1005" fill="#FFFFFF"/><path d="M19.769,39.323 C18.714,39.323 17.859,38.739 17.859,38.019 C17.859,37.298 18.714,36.714 19.769,36.714 C20.823,36.714 21.678,37.298 21.678,38.019 C21.678,38.739 20.823,39.323 19.769,39.323 L19.769,39.323 Z M19.769,34.105 C16.605,34.105 14.04,35.857 14.04,38.019 C14.04,40.18 16.605,41.932 19.769,41.932 C22.932,41.932 25.497,40.18 25.497,38.019 C25.497,35.857 22.932,34.105 19.769,34.105 L19.769,34.105 Z M19.769,27.728 C9.401,27.728 0.996,32.335 0.996,38.019 C0.996,43.702 9.401,48.309 19.769,48.309 C30.137,48.309 38.542,43.702 38.542,38.019 C38.542,32.335 30.137,27.728 19.769,27.728 L19.769,27.728 Z" id="Stroke-1006" stroke="#0A0A08"/></g></g></g></g></svg>