<?xml version="1.0" encoding="UTF-8" standalone="no"?><!DOCTYPE svg><svg width="328" height="170" viewBox="0 0 328 170" xmlns="http://www.w3.org/2000/svg"><title>furniture</title><g fill="none" fill-rule="evenodd"><path fill="#7D4B35" d="M255.14 164.21h8.16V86.34h-8.16"/><path stroke="#0A0A08" stroke-width="1.5" stroke-linecap="round" stroke-linejoin="round" d="M255.14 164.21h8.16V86.34h-8.16z"/><path fill="#643B27" d="M246.99 164.21h8.15V86.34h-8.15"/><path stroke="#0A0A08" stroke-width="1.5" stroke-linecap="round" stroke-linejoin="round" d="M246.99 164.21h8.15V86.34h-8.15z"/><path fill="#7D4B35" d="M218.33 164.21h8.16V86.34h-8.16"/><path stroke="#0A0A08" stroke-width="1.5" stroke-linecap="round" stroke-linejoin="round" d="M218.33 164.21h8.16V86.34h-8.16z"/><path fill="#643B27" d="M304.26 165.21h8.16V86.34h-8.16"/><path stroke="#0A0A08" stroke-width="1.5" stroke-linecap="round" stroke-linejoin="round" d="M304.26 165.21h8.16V86.34h-8.16z"/><path fill="#9E6848" d="M239.45 86.34h87.26v-8.99h-87.26"/><path stroke="#0A0A08" stroke-width="1.5" stroke-linecap="round" stroke-linejoin="round" d="M239.45 86.34h87.26v-8.99h-87.26z"/><path fill="#B8845E" d="M204.71 86.34h79.82v-8.99h-79.82"/><path stroke="#0A0A08" stroke-width="1.5" stroke-linecap="round" stroke-linejoin="round" d="M204.71 86.34h79.82v-8.99h-79.82z"/><path fill="#0A0A08" d="M246.99 98.35h16.31v-3.44h-16.31"/><path stroke="#0A0A08" stroke-width="1.5" stroke-linecap="round" stroke-linejoin="round" d="M246.99 98.35h16.31v-3.44h-16.31z"/><path fill="#0A0A08" d="M304.26 98.35h8.16v-3.44h-8.16"/><path stroke="#0A0A08" stroke-width="1.5" stroke-linecap="round" stroke-linejoin="round" d="M304.26 98.35h8.16v-3.44h-8.16z"/><path fill="#0A0A08" d="M218.33 98.35h8.16v-3.44h-8.16"/><path stroke="#0A0A08" stroke-width="1.5" stroke-linecap="round" stroke-linejoin="round" d="M218.33 98.35h8.16v-3.44h-8.16z"/><path fill="#7D4B35" d="M279.03 86.34v78.87h8.15V94.98h25.27v70.23h8.16V86.34h-41.58"/><path stroke="#0A0A08" stroke-width="1.5" stroke-linecap="round" stroke-linejoin="round" d="M279.03 86.34v78.87h8.15V94.98h25.27v70.23h8.16V86.34z"/><path fill="#9E6848" d="M210.18 86.34v77.87h8.15V94.98h52.58v70.23h8.15V86.34h-68.88"/><path stroke="#0A0A08" stroke-width="1.5" stroke-linecap="round" stroke-linejoin="round" d="M210.18 86.34v77.87h8.15V94.98h52.58v70.23h8.15V86.34z"/><path d="M304.26 1.434l12.89 75.916h-32.62v8.99h42.18v-74.7c0-5.64-4.57-10.206-10.2-10.206h-12.25" fill="#9E6848"/><path d="M304.26 1.434l12.89 75.916h-32.62v8.99h42.18v-74.7c0-5.64-4.57-10.206-10.2-10.206h-12.25z" stroke="#0A0A08" stroke-width="1.5" stroke-linecap="round" stroke-linejoin="round"/><path d="M262.11 1.434h44.83c5.64 0 10.21 4.566 10.21 10.206v65.71H251.9V11.64c0-5.64 4.57-10.206 10.21-10.206" fill="#B8845E"/><path d="M262.11 1.434h44.83c5.64 0 10.21 4.566 10.21 10.206v65.71H251.9V11.64c0-5.64 4.57-10.206 10.21-10.206z" stroke="#0A0A08" stroke-width="1.5" stroke-linecap="round" stroke-linejoin="round"/><path fill="#7D4B35" d="M16.78 167.28h8.16V49.77h-8.16"/><path stroke="#0A0A08" stroke-width="1.5" stroke-linecap="round" stroke-linejoin="round" d="M16.78 167.28h8.16V49.77h-8.16z"/><path fill="#7D4B35" d="M170.12 168.28h8.15V49.77h-8.15"/><path stroke="#0A0A08" stroke-width="1.5" stroke-linecap="round" stroke-linejoin="round" d="M170.12 168.28h8.15V49.77h-8.15z"/><path fill="#643B27" d="M161.96 168.28h8.16V49.77h-8.16"/><path stroke="#0A0A08" stroke-width="1.5" stroke-linecap="round" stroke-linejoin="round" d="M161.96 168.28h8.16V49.77h-8.16z"/><path fill="#B8845E" d="M246.98 168.28h8.16V49.77h-8.16"/><path stroke="#0A0A08" stroke-width="1.5" stroke-linecap="round" stroke-linejoin="round" d="M246.98 168.28h8.16V49.77h-8.16z"/><path fill="#7D4B35" d="M255.14 47.77v3.1H109.96v-3.1h-8.15v120.51h8.15V58.2h145.18v110.08h8.16V47.77h-8.16"/><path stroke="#0A0A08" stroke-width="1.5" stroke-linecap="round" stroke-linejoin="round" d="M255.14 47.77v3.1H109.96v-3.1h-8.15v120.51h8.15V58.2h145.18v110.08h8.16V47.77z"/><path fill="#B8845E" d="M93.65 47.77v3.1H16.78v-3.1H8.63v119.51h8.15V58.2h76.87v110.08h8.16V47.77h-8.16"/><path stroke="#0A0A08" stroke-width="1.5" stroke-linecap="round" stroke-linejoin="round" d="M93.65 47.77v3.1H16.78v-3.1H8.63v119.51h8.15V58.2h76.87v110.08h8.16V47.77z"/><path fill="#9E6848" d="M101.81 50.87h169.63V37.5H101.81"/><path stroke="#0A0A08" stroke-width="1.5" stroke-linecap="round" stroke-linejoin="round" d="M101.81 50.87h169.63V37.5H101.81z"/><path fill="#B8845E" d="M1.28 50.87h100.53V37.5H1.28"/><path stroke="#0A0A08" stroke-width="1.5" stroke-linecap="round" stroke-linejoin="round" d="M1.28 50.87h100.53V37.5H1.28z"/><path fill="#0A0A08" d="M161.96 61.86h16.31V58.2h-16.31"/><path stroke="#0A0A08" stroke-width="1.5" stroke-linecap="round" stroke-linejoin="round" d="M161.96 61.86h16.31V58.2h-16.31z"/><path fill="#0A0A08" d="M16.78 61.86h8.16V58.2h-8.16"/><path stroke="#0A0A08" stroke-width="1.5" stroke-linecap="round" stroke-linejoin="round" d="M16.78 61.86h8.16V58.2h-8.16z"/></g></svg>