<?xml version="1.0" encoding="UTF-8"?><!DOCTYPE svg><svg width="192px" height="85px" viewBox="0 0 192 85" version="1.1" xmlns="http://www.w3.org/2000/svg" xmlns:xlink="http://www.w3.org/1999/xlink"><!-- Generator: Sketch 50.2 (55047) - http://www.bohemiancoding.com/sketch --><title>Group</title><desc>Created with Sketch.</desc><defs/><g id="List-of-Works/Biblio/Curations-Builder" stroke="none" stroke-width="1" fill="none" fill-rule="evenodd"><g id="Group" transform="translate(1.000000, 1.000000)"><path d="M75,56.205 C101.741,45.359 113.45,30 113.45,30 C113.45,30 112.84,38.315 99.461,48.478 C92.455,53.8 83.793,56.483 75,56.205" id="Fill-1" fill="#00A449"/><path d="M75,56.205 C101.741,45.359 113.45,30 113.45,30 C113.45,30 112.84,38.315 99.461,48.478 C92.455,53.8 83.793,56.483 75,56.205 Z" id="Stroke-2" stroke="#0A0B09" stroke-width="1.5" stroke-linecap="round" stroke-linejoin="round"/><path d="M134.514,18.27 C106.151,23.596 88,17 88,17 C88,17 93.007,23.667 109.757,24.988 C118.527,25.68 127.266,23.256 134.514,18.27" id="Fill-4" fill="#00A449"/><path d="M134.514,18.27 C106.151,23.596 88,17 88,17 C88,17 93.007,23.667 109.757,24.988 C118.527,25.68 127.266,23.256 134.514,18.27 Z" id="Stroke-5" stroke="#0A0B09" stroke-width="1.5" stroke-linecap="round" stroke-linejoin="round"/><path d="M85.8832775,42.167 C102.286277,46.493 110.477277,54.109 110.477277,54.109 C110.477277,54.109 107.152277,41.805 82.1342775,36 C81.5002775,38.732 83.1712775,41.452 85.8832775,42.167" id="Fill-6" fill="#00A449"/><path d="M85.8832775,42.167 C102.286277,46.493 110.477277,54.109 110.477277,54.109 C110.477277,54.109 107.152277,41.805 82.1342775,36 C81.5002775,38.732 83.1712775,41.452 85.8832775,42.167 Z" id="Stroke-7" stroke="#0A0B09" stroke-width="1.5" stroke-linecap="round" stroke-linejoin="round"/><path d="M97.3816625,42.958 C115.890663,47.839 125.131663,56.432 125.131663,56.432 C125.131663,56.432 121.379663,42.549 93.1516625,36 C92.4356625,39.082 94.3226625,42.151 97.3816625,42.958" id="Fill-8" fill="#00A449"/><path d="M97.3816625,42.958 C115.890663,47.839 125.131663,56.432 125.131663,56.432 C125.131663,56.432 121.379663,42.549 93.1516625,36 C92.4356625,39.082 94.3226625,42.151 97.3816625,42.958 Z" id="Stroke-9" stroke="#0A0B09" stroke-width="1.5" stroke-linecap="round" stroke-linejoin="round"/><path d="M81.265,41.2077744 C64.421,39.1837744 54,43.2447744 54,43.2447744 C54,43.2447744 61.626,33.0317744 87.023,36.8577744 C86.606,39.6297744 84.049,41.5427744 81.265,41.2077744" id="Fill-11" fill="#00A449"/><path d="M81.265,41.2077744 C64.421,39.1837744 54,43.2447744 54,43.2447744 C54,43.2447744 61.626,33.0317744 87.023,36.8577744 C86.606,39.6297744 84.049,41.5427744 81.265,41.2077744 Z" id="Stroke-12" stroke="#0A0B09" stroke-width="1.5" stroke-linecap="round" stroke-linejoin="round"/><path d="M90.484,23.0339707 C106.272,17.6589707 117.451,21.2769707 117.451,21.2769707 C117.451,21.2769707 109.432,11.9549707 89,18.0909707 L90.484,23.0339707" id="Fill-13" fill="#00A449"/><path d="M90.484,23.0339707 C106.272,17.6589707 117.451,21.2769707 117.451,21.2769707 C117.451,21.2769707 109.432,11.9549707 89,18.0909707 L90.484,23.0339707 Z" id="Stroke-14" stroke="#0A0B09" stroke-width="1.5" stroke-linecap="round" stroke-linejoin="round"/><path d="M87,13.297 C103.677,13.124 113.02,6 113.02,6 C113.02,6 108.552,17.456 87.241,18.453 L87,13.297" id="Fill-15" fill="#00A449"/><path d="M87,13.297 C103.677,13.124 113.02,6 113.02,6 C113.02,6 108.552,17.456 87.241,18.453 L87,13.297 Z" id="Stroke-16" stroke="#0A0B09" stroke-width="1.5" stroke-linecap="round" stroke-linejoin="round"/><path d="M71.205,30 C43.916,39.383 25,35.489 25,35.489 C25,35.489 34.353,44.762 62.832,37.771 L71.205,30" id="Fill-18" fill="#00A449"/><path d="M71.205,30 C43.916,39.383 25,35.489 25,35.489 C25,35.489 34.353,44.762 62.832,37.771 L71.205,30 Z" id="Stroke-19" stroke="#0A0B09" stroke-width="1.5" stroke-linecap="round" stroke-linejoin="round"/><path d="M143.446,30.786 C114.926,35.184 97,28 97,28 C97,28 101.786,34.826 118.484,36.693 C127.228,37.67 136.04,35.533 143.446,30.786" id="Fill-21" fill="#00A449"/><path d="M143.446,30.786 C114.926,35.184 97,28 97,28 C97,28 101.786,34.826 118.484,36.693 C127.228,37.67 136.04,35.533 143.446,30.786 Z" id="Stroke-22" stroke="#0A0B09" stroke-width="1.5" stroke-linecap="round" stroke-linejoin="round"/><path d="M147.594,45.858 C119.647,38.665 106,25 106,25 C106,25 107.711,33.16 122.323,41.454 C129.975,45.796 138.916,47.303 147.594,45.858" id="Fill-23" fill="#00A449"/><path d="M147.594,45.858 C119.647,38.665 106,25 106,25 C106,25 107.711,33.16 122.323,41.454 C129.975,45.796 138.916,47.303 147.594,45.858 Z" id="Stroke-24" stroke="#0A0B09" stroke-width="1.5" stroke-linecap="round" stroke-linejoin="round"/><path d="M65.206,25.485 C36.478,28.216 19,20 19,20 C19,20 23.382,27.094 39.942,29.929 C48.613,31.414 57.535,29.793 65.206,25.485" id="Fill-25" fill="#00A449"/><path d="M65.206,25.485 C36.478,28.216 19,20 19,20 C19,20 23.382,27.094 39.942,29.929 C48.613,31.414 57.535,29.793 65.206,25.485 Z" id="Stroke-26" stroke="#0A0B09" stroke-width="1.5" stroke-linecap="round" stroke-linejoin="round"/><path d="M133.206,25.485 C104.478,28.216 87,20 87,20 C87,20 91.381,27.094 107.942,29.929 C116.613,31.414 125.535,29.793 133.206,25.485" id="Fill-28" fill="#00A449"/><path d="M133.206,25.485 C104.478,28.216 87,20 87,20 C87,20 91.381,27.094 107.942,29.929 C116.613,31.414 125.535,29.793 133.206,25.485 Z" id="Stroke-29" stroke="#0A0B09" stroke-width="1.5" stroke-linecap="round" stroke-linejoin="round"/><path d="M107.843,43.4984142 C79.033,45.1494142 63,55.9164142 63,55.9164142 C63,55.9164142 66.257,48.2414142 82.198,42.9314142 C90.544,40.1504142 99.609,40.4014142 107.843,43.4984142" id="Fill-30" fill="#00A449"/><path d="M107.843,43.4984142 C79.033,45.1494142 63,55.9164142 63,55.9164142 C63,55.9164142 66.257,48.2414142 82.198,42.9314142 C90.544,40.1504142 99.609,40.4014142 107.843,43.4984142 Z" id="Stroke-31" stroke="#0A0B09" stroke-width="1.5" stroke-linecap="round" stroke-linejoin="round"/><path d="M103.843,22.4984142 C75.032,24.1494142 59,34.9164142 59,34.9164142 C59,34.9164142 62.257,27.2414142 78.197,21.9314142 C86.544,19.1504142 95.608,19.4014142 103.843,22.4984142" id="Fill-33" fill="#00A449"/><path d="M103.843,22.4984142 C75.032,24.1494142 59,34.9164142 59,34.9164142 C59,34.9164142 62.257,27.2414142 78.197,21.9314142 C86.544,19.1504142 95.608,19.4014142 103.843,22.4984142 Z" id="Stroke-34" stroke="#0A0B09" stroke-width="1.5" stroke-linecap="round" stroke-linejoin="round"/><path d="M52,18.76 C80.85,19.439 97.699,10 97.699,10 C97.699,10 93.833,17.388 77.517,21.394 C68.973,23.493 59.958,22.511 52,18.76" id="Fill-35" fill="#00A449"/><path d="M52,18.76 C80.85,19.439 97.699,10 97.699,10 C97.699,10 93.833,17.388 77.517,21.394 C68.973,23.493 59.958,22.511 52,18.76 Z" id="Stroke-36" stroke="#0A0B09" stroke-width="1.5" stroke-linecap="round" stroke-linejoin="round"/><path d="M94,33.7761574 C122.177,40.0041574 136.285,53.1921574 136.285,53.1921574 C136.285,53.1921574 134.295,45.0961574 119.407,37.3091574 C111.611,33.2321574 102.623,32.0331574 94,33.7761574" id="Fill-37" fill="#00A449"/><path d="M94,33.7761574 C122.177,40.0041574 136.285,53.1921574 136.285,53.1921574 C136.285,53.1921574 134.295,45.0961574 119.407,37.3091574 C111.611,33.2321574 102.623,32.0331574 94,33.7761574 Z" id="Stroke-38" stroke="#0A0B09" stroke-width="1.5" stroke-linecap="round" stroke-linejoin="round"/><path d="M87,36.7411001 C121.886,43.7181001 131.808,57.8611001 131.808,57.8611001 C131.808,57.8611001 131.249,49.2301001 114.859,40.7821001 C106.278,36.3591001 96.423,34.9841001 87,36.7411001" id="Fill-39" fill="#00A449"/><path d="M87,36.7411001 C121.886,43.7181001 131.808,57.8611001 131.808,57.8611001 C131.808,57.8611001 131.249,49.2301001 114.859,40.7821001 C106.278,36.3591001 96.423,34.9841001 87,36.7411001 Z" id="Stroke-40" stroke="#0A0B09" stroke-width="1.5" stroke-linecap="round" stroke-linejoin="round"/><path d="M89.144,26.6257346 C77.592,14.5967346 66,12.6717346 66,12.6717346 C66,12.6717346 77.407,8.0777346 92.733,22.9177346 L89.144,26.6257346" id="Fill-42" fill="#00A449"/><path d="M89.144,26.6257346 C77.592,14.5967346 66,12.6717346 66,12.6717346 C66,12.6717346 77.407,8.0777346 92.733,22.9177346 L89.144,26.6257346 Z" id="Stroke-43" stroke="#0A0B09" stroke-width="1.5" stroke-linecap="round" stroke-linejoin="round"/><path d="M81.143,36.6255196 C69.591,24.5965196 58,22.6715196 58,22.6715196 C58,22.6715196 69.406,18.0785196 84.733,32.9165196 L81.143,36.6255196" id="Fill-44" fill="#00A449"/><path d="M81.143,36.6255196 C69.591,24.5965196 58,22.6715196 58,22.6715196 C58,22.6715196 69.406,18.0785196 84.733,32.9165196 L81.143,36.6255196 Z" id="Stroke-45" stroke="#0A0B09" stroke-width="1.5" stroke-linecap="round" stroke-linejoin="round"/><path d="M69.943,32.7102346 C53.554,29.6272346 43,34.7932346 43,34.7932346 C43,34.7932346 49.617,24.4282346 70.713,27.6052346 L69.943,32.7102346" id="Fill-46" fill="#00A449"/><path d="M69.943,32.7102346 C53.554,29.6272346 43,34.7932346 43,34.7932346 C43,34.7932346 49.617,24.4282346 70.713,27.6052346 L69.943,32.7102346 Z" id="Stroke-47" stroke="#0A0B09" stroke-width="1.5" stroke-linecap="round" stroke-linejoin="round"/><path d="M67.9649108,23.3 C54.0759108,14.066 50.1249108,3 50.1249108,3 C50.1249108,3 47.6289108,15.041 64.9519108,27.492 L67.9649108,23.3" id="Fill-48" fill="#00A449"/><path d="M67.9649108,23.3 C54.0759108,14.066 50.1249108,3 50.1249108,3 C50.1249108,3 47.6289108,15.041 64.9519108,27.492 L67.9649108,23.3 Z" id="Stroke-49" stroke="#0A0B09" stroke-width="1.5" stroke-linecap="round" stroke-linejoin="round"/><path d="M95.9640274,20.3 C82.0760274,11.066 78.1250274,0 78.1250274,0 C78.1250274,0 75.6280274,12.041 92.9520274,24.492 L95.9640274,20.3" id="Fill-51" fill="#00A449"/><path d="M95.9640274,20.3 C82.0760274,11.066 78.1250274,0 78.1250274,0 C78.1250274,0 75.6280274,12.041 92.9520274,24.492 L95.9640274,20.3 Z" id="Stroke-52" stroke="#0A0B09" stroke-width="1.5" stroke-linecap="round" stroke-linejoin="round"/><path d="M71.724,33.3780136 C54.165,20.5820136 40,18.9580136 40,18.9580136 C40,18.9580136 51.731,13.3850136 74.646,29.1220136 L71.724,33.3780136" id="Fill-54" fill="#00A449"/><path d="M71.724,33.3780136 C54.165,20.5820136 40,18.9580136 40,18.9580136 C40,18.9580136 51.731,13.3850136 74.646,29.1220136 L71.724,33.3780136 Z" id="Stroke-55" stroke="#0A0B09" stroke-width="1.5" stroke-linecap="round" stroke-linejoin="round"/><path d="M96,29.554 C110.988,36.868 116.369,47.313 116.369,47.313 C116.369,47.313 117.25,35.048 98.431,25 L96,29.554" id="Fill-56" fill="#00A449"/><path d="M96,29.554 C110.988,36.868 116.369,47.313 116.369,47.313 C116.369,47.313 117.25,35.048 98.431,25 L96,29.554 Z" id="Stroke-57" stroke="#0A0B09" stroke-width="1.5" stroke-linecap="round" stroke-linejoin="round"/><path d="M95,34.512 C106.315,39.871 109.596,49.126 109.596,49.126 C109.596,49.126 111.529,37.539 97.409,30 L95,34.512" id="Fill-58" fill="#00A449"/><path d="M95,34.512 C106.315,39.871 109.596,49.126 109.596,49.126 C109.596,49.126 111.529,37.539 97.409,30 L95,34.512 Z" id="Stroke-59" stroke="#0A0B09" stroke-width="1.5" stroke-linecap="round" stroke-linejoin="round"/><path d="M87,36.671 C98.595,42.004 101.194,52.824 101.194,52.824 C101.194,52.824 104.413,38.681 90.028,31 L87,36.671" id="Fill-60" fill="#00A449"/><path d="M87,36.671 C98.595,42.004 101.194,52.824 101.194,52.824 C101.194,52.824 104.413,38.681 90.028,31 L87,36.671 Z" id="Stroke-61" stroke="#0A0B09" stroke-width="1.5" stroke-linecap="round" stroke-linejoin="round"/><path d="M79.89,37.2013242 C90.389,24.2423242 101.776,21.3483242 101.776,21.3483242 C101.776,21.3483242 90.024,17.7313242 76,33.8083242 L79.89,37.2013242" id="Fill-62" fill="#00A449"/><path d="M79.89,37.2013242 C90.389,24.2423242 101.776,21.3483242 101.776,21.3483242 C101.776,21.3483242 90.024,17.7313242 76,33.8083242 L79.89,37.2013242 Z" id="Stroke-63" stroke="#0A0B09" stroke-width="1.5" stroke-linecap="round" stroke-linejoin="round"/><path d="M89.397,33.6552733 C103.876,25.3772733 115.539,26.8032733 115.539,26.8032733 C115.539,26.8032733 105.893,19.1762733 87,29.0832733 L89.397,33.6552733" id="Fill-64" fill="#00A449"/><path d="M89.397,33.6552733 C103.876,25.3772733 115.539,26.8032733 115.539,26.8032733 C115.539,26.8032733 105.893,19.1762733 87,29.0832733 L89.397,33.6552733 Z" id="Stroke-65" stroke="#0A0B09" stroke-width="1.5" stroke-linecap="round" stroke-linejoin="round"/><path d="M84.9647173,44.761 C100.263717,52.092 106.877717,61.112 106.877717,61.112 C106.877717,61.112 105.923717,48.402 82.4417173,38 C81.3057173,40.563 82.4367173,43.548 84.9647173,44.761" id="Fill-66" fill="#00A449"/><path d="M84.9647173,44.761 C100.263717,52.092 106.877717,61.112 106.877717,61.112 C106.877717,61.112 105.923717,48.402 82.4417173,38 C81.3057173,40.563 82.4367173,43.548 84.9647173,44.761 Z" id="Stroke-67" stroke="#0A0B09" stroke-width="1.5" stroke-linecap="round" stroke-linejoin="round"/><path d="M85.333,34.161 C68.667,33.554 59,40.234 59,40.234 C59,40.234 64,29 85.333,29 L85.333,34.161" id="Fill-69" fill="#00A449"/><path d="M85.333,34.161 C68.667,33.554 59,40.234 59,40.234 C59,40.234 64,29 85.333,29 L85.333,34.161 Z" id="Stroke-70" stroke="#0A0B09" stroke-width="1.5" stroke-linecap="round" stroke-linejoin="round"/><path d="M83.264,38.2073719 C66.421,36.1843719 56,40.2453719 56,40.2453719 C56,40.2453719 63.626,30.0323719 89.022,33.8573719 C88.604,36.6303719 86.048,38.5423719 83.264,38.2073719" id="Fill-71" fill="#00A449"/><path d="M83.264,38.2073719 C66.421,36.1843719 56,40.2453719 56,40.2453719 C56,40.2453719 63.626,30.0323719 89.022,33.8573719 C88.604,36.6303719 86.048,38.5423719 83.264,38.2073719 Z" id="Stroke-72" stroke="#0A0B09" stroke-width="1.5" stroke-linecap="round" stroke-linejoin="round"/><path d="M88.739,36.7749526 C75.337,24.5449526 63,22.8019526 63,22.8019526 C63,22.8019526 74.43,17.7849526 92.088,32.8479526 L88.739,36.7749526" id="Fill-73" fill="#00A449"/><path d="M88.739,36.7749526 C75.337,24.5449526 63,22.8019526 63,22.8019526 C63,22.8019526 74.43,17.7849526 92.088,32.8479526 L88.739,36.7749526 Z" id="Stroke-74" stroke="#0A0B09" stroke-width="1.5" stroke-linecap="round" stroke-linejoin="round"/><path d="M96.081,36.6529309 C79.501,37.2109309 70,43.1819309 70,43.1819309 C70,43.1819309 76.032,30.8769309 101.512,31.0009309 C101.498,34.0299309 99.11,36.5509309 96.081,36.6529309" id="Fill-75" fill="#00A449"/><path d="M96.081,36.6529309 C79.501,37.2109309 70,43.1819309 70,43.1819309 C70,43.1819309 76.032,30.8769309 101.512,31.0009309 C101.498,34.0299309 99.11,36.5509309 96.081,36.6529309 Z" id="Stroke-76" stroke="#0A0B09" stroke-width="1.5" stroke-linecap="round" stroke-linejoin="round"/><path d="M80.624,42.6899161 C65.255,43.4319161 59,49.1819161 59,49.1819161 C59,49.1819161 65.032,36.8779161 90.512,37.0009161 L90.419,37.1429161 C88.249,40.4729161 84.594,42.4979161 80.624,42.6899161" id="Fill-77" fill="#00A449"/><path d="M80.624,42.6899161 C65.255,43.4319161 59,49.1819161 59,49.1819161 C59,49.1819161 65.032,36.8779161 90.512,37.0009161 L90.419,37.1429161 C88.249,40.4729161 84.594,42.4979161 80.624,42.6899161 Z" id="Stroke-78" stroke="#0A0B09" stroke-width="1.5" stroke-linecap="round" stroke-linejoin="round"/><path d="M57,75.205 C83.741,64.359 95.45,49 95.45,49 C95.45,49 94.84,57.315 81.461,67.478 C74.455,72.8 65.793,75.483 57,75.205" id="Fill-1-Copy" fill="#00A449"/><path d="M57,75.205 C83.741,64.359 95.45,49 95.45,49 C95.45,49 94.84,57.315 81.461,67.478 C74.455,72.8 65.793,75.483 57,75.205 Z" id="Stroke-2-Copy" stroke="#0A0B09" stroke-width="1.5" stroke-linecap="round" stroke-linejoin="round"/><path d="M116.514,36.27 C88.151,41.596 70,35 70,35 C70,35 75.007,41.667 91.757,42.988 C100.527,43.68 109.266,41.256 116.514,36.27" id="Fill-4-Copy" fill="#00A449"/><path d="M116.514,36.27 C88.151,41.596 70,35 70,35 C70,35 75.007,41.667 91.757,42.988 C100.527,43.68 109.266,41.256 116.514,36.27 Z" id="Stroke-5-Copy" stroke="#0A0B09" stroke-width="1.5" stroke-linecap="round" stroke-linejoin="round"/><path d="M67.8832775,61.167 C84.2862775,65.493 92.4772775,73.109 92.4772775,73.109 C92.4772775,73.109 89.1522775,60.805 64.1342775,55 C63.5002775,57.732 65.1712775,60.452 67.8832775,61.167" id="Fill-6-Copy" fill="#00A449"/><path d="M67.8832775,61.167 C84.2862775,65.493 92.4772775,73.109 92.4772775,73.109 C92.4772775,73.109 89.1522775,60.805 64.1342775,55 C63.5002775,57.732 65.1712775,60.452 67.8832775,61.167 Z" id="Stroke-7-Copy" stroke="#0A0B09" stroke-width="1.5" stroke-linecap="round" stroke-linejoin="round"/><path d="M78.3816625,61.958 C96.8906625,66.839 106.131663,75.432 106.131663,75.432 C106.131663,75.432 102.379663,61.549 74.1516625,55 C73.4356625,58.082 75.3226625,61.151 78.3816625,61.958" id="Fill-8-Copy" fill="#00A449"/><path d="M78.3816625,61.958 C96.8906625,66.839 106.131663,75.432 106.131663,75.432 C106.131663,75.432 102.379663,61.549 74.1516625,55 C73.4356625,58.082 75.3226625,61.151 78.3816625,61.958 Z" id="Stroke-9-Copy" stroke="#0A0B09" stroke-width="1.5" stroke-linecap="round" stroke-linejoin="round"/><path d="M63.265,60.2077744 C46.421,58.1837744 36,62.2447744 36,62.2447744 C36,62.2447744 43.626,52.0317744 69.023,55.8577744 C68.606,58.6297744 66.049,60.5427744 63.265,60.2077744" id="Fill-11-Copy" fill="#00A449"/><path d="M63.265,60.2077744 C46.421,58.1837744 36,62.2447744 36,62.2447744 C36,62.2447744 43.626,52.0317744 69.023,55.8577744 C68.606,58.6297744 66.049,60.5427744 63.265,60.2077744 Z" id="Stroke-12-Copy" stroke="#0A0B09" stroke-width="1.5" stroke-linecap="round" stroke-linejoin="round"/><path d="M72.484,42.0339707 C88.272,36.6589707 99.451,40.2769707 99.451,40.2769707 C99.451,40.2769707 91.432,30.9549707 71,37.0909707 L72.484,42.0339707" id="Fill-13-Copy" fill="#00A449"/><path d="M72.484,42.0339707 C88.272,36.6589707 99.451,40.2769707 99.451,40.2769707 C99.451,40.2769707 91.432,30.9549707 71,37.0909707 L72.484,42.0339707 Z" id="Stroke-14-Copy" stroke="#0A0B09" stroke-width="1.5" stroke-linecap="round" stroke-linejoin="round"/><path d="M69,32.297 C85.677,32.124 95.02,25 95.02,25 C95.02,25 90.552,36.456 69.241,37.453 L69,32.297" id="Fill-15-Copy" fill="#00A449"/><path d="M69,32.297 C85.677,32.124 95.02,25 95.02,25 C95.02,25 90.552,36.456 69.241,37.453 L69,32.297 Z" id="Stroke-16-Copy" stroke="#0A0B09" stroke-width="1.5" stroke-linecap="round" stroke-linejoin="round"/><path d="M52.205,49 C24.916,58.383 6,54.489 6,54.489 C6,54.489 15.353,63.762 43.832,56.771 L52.205,49" id="Fill-18-Copy" fill="#00A449"/><path d="M52.205,49 C24.916,58.383 6,54.489 6,54.489 C6,54.489 15.353,63.762 43.832,56.771 L52.205,49 Z" id="Stroke-19-Copy" stroke="#0A0B09" stroke-width="1.5" stroke-linecap="round" stroke-linejoin="round"/><path d="M125.446,49.786 C96.926,54.184 79,47 79,47 C79,47 83.786,53.826 100.484,55.693 C109.228,56.67 118.04,54.533 125.446,49.786" id="Fill-21-Copy" fill="#00A449"/><path d="M125.446,49.786 C96.926,54.184 79,47 79,47 C79,47 83.786,53.826 100.484,55.693 C109.228,56.67 118.04,54.533 125.446,49.786 Z" id="Stroke-22-Copy" stroke="#0A0B09" stroke-width="1.5" stroke-linecap="round" stroke-linejoin="round"/><path d="M129.594,64.858 C101.647,57.665 88,44 88,44 C88,44 89.711,52.16 104.323,60.454 C111.975,64.796 120.916,66.303 129.594,64.858" id="Fill-23-Copy" fill="#00A449"/><path d="M129.594,64.858 C101.647,57.665 88,44 88,44 C88,44 89.711,52.16 104.323,60.454 C111.975,64.796 120.916,66.303 129.594,64.858 Z" id="Stroke-24-Copy" stroke="#0A0B09" stroke-width="1.5" stroke-linecap="round" stroke-linejoin="round"/><path d="M46.206,43.485 C17.478,46.216 0,38 0,38 C0,38 4.382,45.094 20.942,47.929 C29.613,49.414 38.535,47.793 46.206,43.485" id="Fill-25-Copy" fill="#00A449"/><path d="M46.206,43.485 C17.478,46.216 0,38 0,38 C0,38 4.382,45.094 20.942,47.929 C29.613,49.414 38.535,47.793 46.206,43.485 Z" id="Stroke-26-Copy" stroke="#0A0B09" stroke-width="1.5" stroke-linecap="round" stroke-linejoin="round"/><path d="M115.206,44.485 C86.478,47.216 69,39 69,39 C69,39 73.381,46.094 89.942,48.929 C98.613,50.414 107.535,48.793 115.206,44.485" id="Fill-28-Copy" fill="#00A449"/><path d="M115.206,44.485 C86.478,47.216 69,39 69,39 C69,39 73.381,46.094 89.942,48.929 C98.613,50.414 107.535,48.793 115.206,44.485 Z" id="Stroke-29-Copy" stroke="#0A0B09" stroke-width="1.5" stroke-linecap="round" stroke-linejoin="round"/><path d="M89.843,61.4984142 C61.033,63.1494142 45,73.9164142 45,73.9164142 C45,73.9164142 48.257,66.2414142 64.198,60.9314142 C72.544,58.1504142 81.609,58.4014142 89.843,61.4984142" id="Fill-30-Copy" fill="#00A449"/><path d="M89.843,61.4984142 C61.033,63.1494142 45,73.9164142 45,73.9164142 C45,73.9164142 48.257,66.2414142 64.198,60.9314142 C72.544,58.1504142 81.609,58.4014142 89.843,61.4984142 Z" id="Stroke-31-Copy" stroke="#0A0B09" stroke-width="1.5" stroke-linecap="round" stroke-linejoin="round"/><path d="M85.843,40.4984142 C57.032,42.1494142 41,52.9164142 41,52.9164142 C41,52.9164142 44.257,45.2414142 60.197,39.9314142 C68.544,37.1504142 77.608,37.4014142 85.843,40.4984142" id="Fill-33-Copy" fill="#00A449"/><path d="M85.843,40.4984142 C57.032,42.1494142 41,52.9164142 41,52.9164142 C41,52.9164142 44.257,45.2414142 60.197,39.9314142 C68.544,37.1504142 77.608,37.4014142 85.843,40.4984142 Z" id="Stroke-34-Copy" stroke="#0A0B09" stroke-width="1.5" stroke-linecap="round" stroke-linejoin="round"/><path d="M34,37.76 C62.85,38.439 79.699,29 79.699,29 C79.699,29 75.833,36.388 59.517,40.394 C50.973,42.493 41.958,41.511 34,37.76" id="Fill-35-Copy" fill="#00A449"/><path d="M34,37.76 C62.85,38.439 79.699,29 79.699,29 C79.699,29 75.833,36.388 59.517,40.394 C50.973,42.493 41.958,41.511 34,37.76 Z" id="Stroke-36-Copy" stroke="#0A0B09" stroke-width="1.5" stroke-linecap="round" stroke-linejoin="round"/><path d="M76,52.7761574 C104.177,59.0041574 118.285,72.1921574 118.285,72.1921574 C118.285,72.1921574 116.295,64.0961574 101.407,56.3091574 C93.611,52.2321574 84.623,51.0331574 76,52.7761574" id="Fill-37-Copy" fill="#00A449"/><path d="M76,52.7761574 C104.177,59.0041574 118.285,72.1921574 118.285,72.1921574 C118.285,72.1921574 116.295,64.0961574 101.407,56.3091574 C93.611,52.2321574 84.623,51.0331574 76,52.7761574 Z" id="Stroke-38-Copy" stroke="#0A0B09" stroke-width="1.5" stroke-linecap="round" stroke-linejoin="round"/><path d="M69,55.7411001 C103.886,62.7181001 113.808,76.8611001 113.808,76.8611001 C113.808,76.8611001 113.249,68.2301001 96.859,59.7821001 C88.278,55.3591001 78.423,53.9841001 69,55.7411001" id="Fill-39-Copy" fill="#00A449"/><path d="M69,55.7411001 C103.886,62.7181001 113.808,76.8611001 113.808,76.8611001 C113.808,76.8611001 113.249,68.2301001 96.859,59.7821001 C88.278,55.3591001 78.423,53.9841001 69,55.7411001 Z" id="Stroke-40-Copy" stroke="#0A0B09" stroke-width="1.5" stroke-linecap="round" stroke-linejoin="round"/><path d="M70.144,45.6257346 C58.592,33.5967346 47,31.6717346 47,31.6717346 C47,31.6717346 58.407,27.0777346 73.733,41.9177346 L70.144,45.6257346" id="Fill-42-Copy" fill="#00A449"/><path d="M70.144,45.6257346 C58.592,33.5967346 47,31.6717346 47,31.6717346 C47,31.6717346 58.407,27.0777346 73.733,41.9177346 L70.144,45.6257346 Z" id="Stroke-43-Copy" stroke="#0A0B09" stroke-width="1.5" stroke-linecap="round" stroke-linejoin="round"/><path d="M63.143,54.6255196 C51.591,42.5965196 40,40.6715196 40,40.6715196 C40,40.6715196 51.406,36.0785196 66.733,50.9165196 L63.143,54.6255196" id="Fill-44-Copy" fill="#00A449"/><path d="M63.143,54.6255196 C51.591,42.5965196 40,40.6715196 40,40.6715196 C40,40.6715196 51.406,36.0785196 66.733,50.9165196 L63.143,54.6255196 Z" id="Stroke-45-Copy" stroke="#0A0B09" stroke-width="1.5" stroke-linecap="round" stroke-linejoin="round"/><path d="M51.943,51.7102346 C35.554,48.6272346 25,53.7932346 25,53.7932346 C25,53.7932346 31.617,43.4282346 52.713,46.6052346 L51.943,51.7102346" id="Fill-46-Copy" fill="#00A449"/><path d="M51.943,51.7102346 C35.554,48.6272346 25,53.7932346 25,53.7932346 C25,53.7932346 31.617,43.4282346 52.713,46.6052346 L51.943,51.7102346 Z" id="Stroke-47-Copy" stroke="#0A0B09" stroke-width="1.5" stroke-linecap="round" stroke-linejoin="round"/><path d="M49.9649108,41.3 C36.0759108,32.066 32.1249108,21 32.1249108,21 C32.1249108,21 29.6289108,33.041 46.9519108,45.492 L49.9649108,41.3" id="Fill-48-Copy" fill="#00A449"/><path d="M49.9649108,41.3 C36.0759108,32.066 32.1249108,21 32.1249108,21 C32.1249108,21 29.6289108,33.041 46.9519108,45.492 L49.9649108,41.3 Z" id="Stroke-49-Copy" stroke="#0A0B09" stroke-width="1.5" stroke-linecap="round" stroke-linejoin="round"/><path d="M77.9640274,39.3 C64.0760274,30.066 60.1250274,19 60.1250274,19 C60.1250274,19 57.6280274,31.041 74.9520274,43.492 L77.9640274,39.3" id="Fill-51-Copy" fill="#00A449"/><path d="M77.9640274,39.3 C64.0760274,30.066 60.1250274,19 60.1250274,19 C60.1250274,19 57.6280274,31.041 74.9520274,43.492 L77.9640274,39.3 Z" id="Stroke-52-Copy" stroke="#0A0B09" stroke-width="1.5" stroke-linecap="round" stroke-linejoin="round"/><path d="M53.724,52.3780136 C36.165,39.5820136 22,37.9580136 22,37.9580136 C22,37.9580136 33.731,32.3850136 56.646,48.1220136 L53.724,52.3780136" id="Fill-54-Copy" fill="#00A449"/><path d="M53.724,52.3780136 C36.165,39.5820136 22,37.9580136 22,37.9580136 C22,37.9580136 33.731,32.3850136 56.646,48.1220136 L53.724,52.3780136 Z" id="Stroke-55-Copy" stroke="#0A0B09" stroke-width="1.5" stroke-linecap="round" stroke-linejoin="round"/><path d="M78,48.554 C92.988,55.868 98.369,66.313 98.369,66.313 C98.369,66.313 99.25,54.048 80.431,44 L78,48.554" id="Fill-56-Copy" fill="#00A449"/><path d="M78,48.554 C92.988,55.868 98.369,66.313 98.369,66.313 C98.369,66.313 99.25,54.048 80.431,44 L78,48.554 Z" id="Stroke-57-Copy" stroke="#0A0B09" stroke-width="1.5" stroke-linecap="round" stroke-linejoin="round"/><path d="M77,53.512 C88.315,58.871 91.596,68.126 91.596,68.126 C91.596,68.126 93.529,56.539 79.409,49 L77,53.512" id="Fill-58-Copy" fill="#00A449"/><path d="M77,53.512 C88.315,58.871 91.596,68.126 91.596,68.126 C91.596,68.126 93.529,56.539 79.409,49 L77,53.512 Z" id="Stroke-59-Copy" stroke="#0A0B09" stroke-width="1.5" stroke-linecap="round" stroke-linejoin="round"/><path d="M69,54.671 C80.595,60.004 83.194,70.824 83.194,70.824 C83.194,70.824 86.413,56.681 72.028,49 L69,54.671" id="Fill-60-Copy" fill="#00A449"/><path d="M69,54.671 C80.595,60.004 83.194,70.824 83.194,70.824 C83.194,70.824 86.413,56.681 72.028,49 L69,54.671 Z" id="Stroke-61-Copy" stroke="#0A0B09" stroke-width="1.5" stroke-linecap="round" stroke-linejoin="round"/><path d="M61.89,56.2013242 C72.389,43.2423242 83.776,40.3483242 83.776,40.3483242 C83.776,40.3483242 72.024,36.7313242 58,52.8083242 L61.89,56.2013242" id="Fill-62-Copy" fill="#00A449"/><path d="M61.89,56.2013242 C72.389,43.2423242 83.776,40.3483242 83.776,40.3483242 C83.776,40.3483242 72.024,36.7313242 58,52.8083242 L61.89,56.2013242 Z" id="Stroke-63-Copy" stroke="#0A0B09" stroke-width="1.5" stroke-linecap="round" stroke-linejoin="round"/><path d="M71.397,52.6552733 C85.876,44.3772733 97.539,45.8032733 97.539,45.8032733 C97.539,45.8032733 87.893,38.1762733 69,48.0832733 L71.397,52.6552733" id="Fill-64-Copy" fill="#00A449"/><path d="M71.397,52.6552733 C85.876,44.3772733 97.539,45.8032733 97.539,45.8032733 C97.539,45.8032733 87.893,38.1762733 69,48.0832733 L71.397,52.6552733 Z" id="Stroke-65-Copy" stroke="#0A0B09" stroke-width="1.5" stroke-linecap="round" stroke-linejoin="round"/><path d="M66.9647173,63.761 C82.2637173,71.092 88.8777173,80.112 88.8777173,80.112 C88.8777173,80.112 87.9237173,67.402 64.4417173,57 C63.3057173,59.563 64.4367173,62.548 66.9647173,63.761" id="Fill-66-Copy" fill="#00A449"/><path d="M66.9647173,63.761 C82.2637173,71.092 88.8777173,80.112 88.8777173,80.112 C88.8777173,80.112 87.9237173,67.402 64.4417173,57 C63.3057173,59.563 64.4367173,62.548 66.9647173,63.761 Z" id="Stroke-67-Copy" stroke="#0A0B09" stroke-width="1.5" stroke-linecap="round" stroke-linejoin="round"/><path d="M67.333,53.161 C50.667,52.554 41,59.234 41,59.234 C41,59.234 46,48 67.333,48 L67.333,53.161" id="Fill-69-Copy" fill="#00A449"/><path d="M67.333,53.161 C50.667,52.554 41,59.234 41,59.234 C41,59.234 46,48 67.333,48 L67.333,53.161 Z" id="Stroke-70-Copy" stroke="#0A0B09" stroke-width="1.5" stroke-linecap="round" stroke-linejoin="round"/><path d="M65.264,57.2073719 C48.421,55.1843719 38,59.2453719 38,59.2453719 C38,59.2453719 45.626,49.0323719 71.022,52.8573719 C70.604,55.6303719 68.048,57.5423719 65.264,57.2073719" id="Fill-71-Copy" fill="#00A449"/><path d="M65.264,57.2073719 C48.421,55.1843719 38,59.2453719 38,59.2453719 C38,59.2453719 45.626,49.0323719 71.022,52.8573719 C70.604,55.6303719 68.048,57.5423719 65.264,57.2073719 Z" id="Stroke-72-Copy" stroke="#0A0B09" stroke-width="1.5" stroke-linecap="round" stroke-linejoin="round"/><path d="M70.739,54.7749526 C57.337,42.5449526 45,40.8019526 45,40.8019526 C45,40.8019526 56.43,35.7849526 74.088,50.8479526 L70.739,54.7749526" id="Fill-73-Copy" fill="#00A449"/><path d="M70.739,54.7749526 C57.337,42.5449526 45,40.8019526 45,40.8019526 C45,40.8019526 56.43,35.7849526 74.088,50.8479526 L70.739,54.7749526 Z" id="Stroke-74-Copy" stroke="#0A0B09" stroke-width="1.5" stroke-linecap="round" stroke-linejoin="round"/><path d="M77.081,54.6529309 C60.501,55.2109309 51,61.1819309 51,61.1819309 C51,61.1819309 57.032,48.8769309 82.512,49.0009309 C82.498,52.0299309 80.11,54.5509309 77.081,54.6529309" id="Fill-75-Copy" fill="#00A449"/><path d="M77.081,54.6529309 C60.501,55.2109309 51,61.1819309 51,61.1819309 C51,61.1819309 57.032,48.8769309 82.512,49.0009309 C82.498,52.0299309 80.11,54.5509309 77.081,54.6529309 Z" id="Stroke-76-Copy" stroke="#0A0B09" stroke-width="1.5" stroke-linecap="round" stroke-linejoin="round"/><path d="M62.624,61.6899161 C47.255,62.4319161 41,68.1819161 41,68.1819161 C41,68.1819161 47.032,55.8779161 72.512,56.0009161 L72.419,56.1429161 C70.249,59.4729161 66.594,61.4979161 62.624,61.6899161" id="Fill-77-Copy" fill="#00A449"/><path d="M62.624,61.6899161 C47.255,62.4319161 41,68.1819161 41,68.1819161 C41,68.1819161 47.032,55.8779161 72.512,56.0009161 L72.419,56.1429161 C70.249,59.4729161 66.594,61.4979161 62.624,61.6899161 Z" id="Stroke-78-Copy" stroke="#0A0B09" stroke-width="1.5" stroke-linecap="round" stroke-linejoin="round"/><path d="M117,78.205 C143.741,67.359 155.45,52 155.45,52 C155.45,52 154.84,60.315 141.461,70.478 C134.455,75.8 125.793,78.483 117,78.205" id="Fill-1-Copy-2" fill="#00A449"/><path d="M117,78.205 C143.741,67.359 155.45,52 155.45,52 C155.45,52 154.84,60.315 141.461,70.478 C134.455,75.8 125.793,78.483 117,78.205 Z" id="Stroke-2-Copy-2" stroke="#0A0B09" stroke-width="1.5" stroke-linecap="round" stroke-linejoin="round"/><path d="M176.514,39.27 C148.151,44.596 130,38 130,38 C130,38 135.007,44.667 151.757,45.988 C160.527,46.68 169.266,44.256 176.514,39.27" id="Fill-4-Copy-2" fill="#00A449"/><path d="M176.514,39.27 C148.151,44.596 130,38 130,38 C130,38 135.007,44.667 151.757,45.988 C160.527,46.68 169.266,44.256 176.514,39.27 Z" id="Stroke-5-Copy-2" stroke="#0A0B09" stroke-width="1.5" stroke-linecap="round" stroke-linejoin="round"/><path d="M127.883277,64.167 C144.286277,68.493 152.477277,76.109 152.477277,76.109 C152.477277,76.109 149.152277,63.805 124.134277,58 C123.500277,60.732 125.171277,63.452 127.883277,64.167" id="Fill-6-Copy-2" fill="#00A449"/><path d="M127.883277,64.167 C144.286277,68.493 152.477277,76.109 152.477277,76.109 C152.477277,76.109 149.152277,63.805 124.134277,58 C123.500277,60.732 125.171277,63.452 127.883277,64.167 Z" id="Stroke-7-Copy-2" stroke="#0A0B09" stroke-width="1.5" stroke-linecap="round" stroke-linejoin="round"/><path d="M138.381663,64.958 C156.890663,69.839 166.131663,78.432 166.131663,78.432 C166.131663,78.432 162.379663,64.549 134.151663,58 C133.435663,61.082 135.322663,64.151 138.381663,64.958" id="Fill-8-Copy-2" fill="#00A449"/><path d="M138.381663,64.958 C156.890663,69.839 166.131663,78.432 166.131663,78.432 C166.131663,78.432 162.379663,64.549 134.151663,58 C133.435663,61.082 135.322663,64.151 138.381663,64.958 Z" id="Stroke-9-Copy-2" stroke="#0A0B09" stroke-width="1.5" stroke-linecap="round" stroke-linejoin="round"/><path d="M123.265,63.2077744 C106.421,61.1837744 96,65.2447744 96,65.2447744 C96,65.2447744 103.626,55.0317744 129.023,58.8577744 C128.606,61.6297744 126.049,63.5427744 123.265,63.2077744" id="Fill-11-Copy-2" fill="#00A449"/><path d="M123.265,63.2077744 C106.421,61.1837744 96,65.2447744 96,65.2447744 C96,65.2447744 103.626,55.0317744 129.023,58.8577744 C128.606,61.6297744 126.049,63.5427744 123.265,63.2077744 Z" id="Stroke-12-Copy-2" stroke="#0A0B09" stroke-width="1.5" stroke-linecap="round" stroke-linejoin="round"/><path d="M132.484,45.0339707 C148.272,39.6589707 159.451,43.2769707 159.451,43.2769707 C159.451,43.2769707 151.432,33.9549707 131,40.0909707 L132.484,45.0339707" id="Fill-13-Copy-2" fill="#00A449"/><path d="M132.484,45.0339707 C148.272,39.6589707 159.451,43.2769707 159.451,43.2769707 C159.451,43.2769707 151.432,33.9549707 131,40.0909707 L132.484,45.0339707 Z" id="Stroke-14-Copy-2" stroke="#0A0B09" stroke-width="1.5" stroke-linecap="round" stroke-linejoin="round"/><path d="M129,35.297 C145.677,35.124 155.02,28 155.02,28 C155.02,28 150.552,39.456 129.241,40.453 L129,35.297" id="Fill-15-Copy-2" fill="#00A449"/><path d="M129,35.297 C145.677,35.124 155.02,28 155.02,28 C155.02,28 150.552,39.456 129.241,40.453 L129,35.297 Z" id="Stroke-16-Copy-2" stroke="#0A0B09" stroke-width="1.5" stroke-linecap="round" stroke-linejoin="round"/><path d="M112.205,52 C84.916,61.383 66,57.489 66,57.489 C66,57.489 75.353,66.762 103.832,59.771 L112.205,52" id="Fill-18-Copy-2" fill="#00A449"/><path d="M112.205,52 C84.916,61.383 66,57.489 66,57.489 C66,57.489 75.353,66.762 103.832,59.771 L112.205,52 Z" id="Stroke-19-Copy-2" stroke="#0A0B09" stroke-width="1.5" stroke-linecap="round" stroke-linejoin="round"/><path d="M185.446,52.786 C156.926,57.184 139,50 139,50 C139,50 143.786,56.826 160.484,58.693 C169.228,59.67 178.04,57.533 185.446,52.786" id="Fill-21-Copy-2" fill="#00A449"/><path d="M185.446,52.786 C156.926,57.184 139,50 139,50 C139,50 143.786,56.826 160.484,58.693 C169.228,59.67 178.04,57.533 185.446,52.786 Z" id="Stroke-22-Copy-2" stroke="#0A0B09" stroke-width="1.5" stroke-linecap="round" stroke-linejoin="round"/><path d="M189.594,67.858 C161.647,60.665 148,47 148,47 C148,47 149.711,55.16 164.323,63.454 C171.975,67.796 180.916,69.303 189.594,67.858" id="Fill-23-Copy-2" fill="#00A449"/><path d="M189.594,67.858 C161.647,60.665 148,47 148,47 C148,47 149.711,55.16 164.323,63.454 C171.975,67.796 180.916,69.303 189.594,67.858 Z" id="Stroke-24-Copy-2" stroke="#0A0B09" stroke-width="1.5" stroke-linecap="round" stroke-linejoin="round"/><path d="M106.206,46.485 C77.478,49.216 60,41 60,41 C60,41 64.382,48.094 80.942,50.929 C89.613,52.414 98.535,50.793 106.206,46.485" id="Fill-25-Copy-2" fill="#00A449"/><path d="M106.206,46.485 C77.478,49.216 60,41 60,41 C60,41 64.382,48.094 80.942,50.929 C89.613,52.414 98.535,50.793 106.206,46.485 Z" id="Stroke-26-Copy-2" stroke="#0A0B09" stroke-width="1.5" stroke-linecap="round" stroke-linejoin="round"/><path d="M175.206,47.485 C146.478,50.216 129,42 129,42 C129,42 133.381,49.094 149.942,51.929 C158.613,53.414 167.535,51.793 175.206,47.485" id="Fill-28-Copy-2" fill="#00A449"/><path d="M175.206,47.485 C146.478,50.216 129,42 129,42 C129,42 133.381,49.094 149.942,51.929 C158.613,53.414 167.535,51.793 175.206,47.485 Z" id="Stroke-29-Copy-2" stroke="#0A0B09" stroke-width="1.5" stroke-linecap="round" stroke-linejoin="round"/><path d="M149.843,64.4984142 C121.033,66.1494142 105,76.9164142 105,76.9164142 C105,76.9164142 108.257,69.2414142 124.198,63.9314142 C132.544,61.1504142 141.609,61.4014142 149.843,64.4984142" id="Fill-30-Copy-2" fill="#00A449"/><path d="M149.843,64.4984142 C121.033,66.1494142 105,76.9164142 105,76.9164142 C105,76.9164142 108.257,69.2414142 124.198,63.9314142 C132.544,61.1504142 141.609,61.4014142 149.843,64.4984142 Z" id="Stroke-31-Copy-2" stroke="#0A0B09" stroke-width="1.5" stroke-linecap="round" stroke-linejoin="round"/><path d="M145.843,43.4984142 C117.032,45.1494142 101,55.9164142 101,55.9164142 C101,55.9164142 104.257,48.2414142 120.197,42.9314142 C128.544,40.1504142 137.608,40.4014142 145.843,43.4984142" id="Fill-33-Copy-2" fill="#00A449"/><path d="M145.843,43.4984142 C117.032,45.1494142 101,55.9164142 101,55.9164142 C101,55.9164142 104.257,48.2414142 120.197,42.9314142 C128.544,40.1504142 137.608,40.4014142 145.843,43.4984142 Z" id="Stroke-34-Copy-2" stroke="#0A0B09" stroke-width="1.5" stroke-linecap="round" stroke-linejoin="round"/><path d="M94,40.76 C122.85,41.439 139.699,32 139.699,32 C139.699,32 135.833,39.388 119.517,43.394 C110.973,45.493 101.958,44.511 94,40.76" id="Fill-35-Copy-2" fill="#00A449"/><path d="M94,40.76 C122.85,41.439 139.699,32 139.699,32 C139.699,32 135.833,39.388 119.517,43.394 C110.973,45.493 101.958,44.511 94,40.76 Z" id="Stroke-36-Copy-2" stroke="#0A0B09" stroke-width="1.5" stroke-linecap="round" stroke-linejoin="round"/><path d="M136,55.7761574 C164.177,62.0041574 178.285,75.1921574 178.285,75.1921574 C178.285,75.1921574 176.295,67.0961574 161.407,59.3091574 C153.611,55.2321574 144.623,54.0331574 136,55.7761574" id="Fill-37-Copy-2" fill="#00A449"/><path d="M136,55.7761574 C164.177,62.0041574 178.285,75.1921574 178.285,75.1921574 C178.285,75.1921574 176.295,67.0961574 161.407,59.3091574 C153.611,55.2321574 144.623,54.0331574 136,55.7761574 Z" id="Stroke-38-Copy-2" stroke="#0A0B09" stroke-width="1.5" stroke-linecap="round" stroke-linejoin="round"/><path d="M129,58.7411001 C163.886,65.7181001 173.808,79.8611001 173.808,79.8611001 C173.808,79.8611001 173.249,71.2301001 156.859,62.7821001 C148.278,58.3591001 138.423,56.9841001 129,58.7411001" id="Fill-39-Copy-2" fill="#00A449"/><path d="M129,58.7411001 C163.886,65.7181001 173.808,79.8611001 173.808,79.8611001 C173.808,79.8611001 173.249,71.2301001 156.859,62.7821001 C148.278,58.3591001 138.423,56.9841001 129,58.7411001 Z" id="Stroke-40-Copy-2" stroke="#0A0B09" stroke-width="1.5" stroke-linecap="round" stroke-linejoin="round"/><path d="M130.144,48.6257346 C118.592,36.5967346 107,34.6717346 107,34.6717346 C107,34.6717346 118.407,30.0777346 133.733,44.9177346 L130.144,48.6257346" id="Fill-42-Copy-2" fill="#00A449"/><path d="M130.144,48.6257346 C118.592,36.5967346 107,34.6717346 107,34.6717346 C107,34.6717346 118.407,30.0777346 133.733,44.9177346 L130.144,48.6257346 Z" id="Stroke-43-Copy-2" stroke="#0A0B09" stroke-width="1.5" stroke-linecap="round" stroke-linejoin="round"/><path d="M123.143,57.6255196 C111.591,45.5965196 100,43.6715196 100,43.6715196 C100,43.6715196 111.406,39.0785196 126.733,53.9165196 L123.143,57.6255196" id="Fill-44-Copy-2" fill="#00A449"/><path d="M123.143,57.6255196 C111.591,45.5965196 100,43.6715196 100,43.6715196 C100,43.6715196 111.406,39.0785196 126.733,53.9165196 L123.143,57.6255196 Z" id="Stroke-45-Copy-2" stroke="#0A0B09" stroke-width="1.5" stroke-linecap="round" stroke-linejoin="round"/><path d="M111.943,54.7102346 C95.554,51.6272346 85,56.7932346 85,56.7932346 C85,56.7932346 91.617,46.4282346 112.713,49.6052346 L111.943,54.7102346" id="Fill-46-Copy-2" fill="#00A449"/><path d="M111.943,54.7102346 C95.554,51.6272346 85,56.7932346 85,56.7932346 C85,56.7932346 91.617,46.4282346 112.713,49.6052346 L111.943,54.7102346 Z" id="Stroke-47-Copy-2" stroke="#0A0B09" stroke-width="1.5" stroke-linecap="round" stroke-linejoin="round"/><path d="M109.964911,44.3 C96.0759108,35.066 92.1249108,24 92.1249108,24 C92.1249108,24 89.6289108,36.041 106.951911,48.492 L109.964911,44.3" id="Fill-48-Copy-2" fill="#00A449"/><path d="M109.964911,44.3 C96.0759108,35.066 92.1249108,24 92.1249108,24 C92.1249108,24 89.6289108,36.041 106.951911,48.492 L109.964911,44.3 Z" id="Stroke-49-Copy-2" stroke="#0A0B09" stroke-width="1.5" stroke-linecap="round" stroke-linejoin="round"/><path d="M137.964027,42.3 C124.076027,33.066 120.125027,22 120.125027,22 C120.125027,22 117.628027,34.041 134.952027,46.492 L137.964027,42.3" id="Fill-51-Copy-2" fill="#00A449"/><path d="M137.964027,42.3 C124.076027,33.066 120.125027,22 120.125027,22 C120.125027,22 117.628027,34.041 134.952027,46.492 L137.964027,42.3 Z" id="Stroke-52-Copy-2" stroke="#0A0B09" stroke-width="1.5" stroke-linecap="round" stroke-linejoin="round"/><path d="M113.724,55.3780136 C96.165,42.5820136 82,40.9580136 82,40.9580136 C82,40.9580136 93.731,35.3850136 116.646,51.1220136 L113.724,55.3780136" id="Fill-54-Copy-2" fill="#00A449"/><path d="M113.724,55.3780136 C96.165,42.5820136 82,40.9580136 82,40.9580136 C82,40.9580136 93.731,35.3850136 116.646,51.1220136 L113.724,55.3780136 Z" id="Stroke-55-Copy-2" stroke="#0A0B09" stroke-width="1.5" stroke-linecap="round" stroke-linejoin="round"/><path d="M138,51.554 C152.988,58.868 158.369,69.313 158.369,69.313 C158.369,69.313 159.25,57.048 140.431,47 L138,51.554" id="Fill-56-Copy-2" fill="#00A449"/><path d="M138,51.554 C152.988,58.868 158.369,69.313 158.369,69.313 C158.369,69.313 159.25,57.048 140.431,47 L138,51.554 Z" id="Stroke-57-Copy-2" stroke="#0A0B09" stroke-width="1.5" stroke-linecap="round" stroke-linejoin="round"/><path d="M137,56.512 C148.315,61.871 151.596,71.126 151.596,71.126 C151.596,71.126 153.529,59.539 139.409,52 L137,56.512" id="Fill-58-Copy-2" fill="#00A449"/><path d="M137,56.512 C148.315,61.871 151.596,71.126 151.596,71.126 C151.596,71.126 153.529,59.539 139.409,52 L137,56.512 Z" id="Stroke-59-Copy-2" stroke="#0A0B09" stroke-width="1.5" stroke-linecap="round" stroke-linejoin="round"/><path d="M129,57.671 C140.595,63.004 143.194,73.824 143.194,73.824 C143.194,73.824 146.413,59.681 132.028,52 L129,57.671" id="Fill-60-Copy-2" fill="#00A449"/><path d="M129,57.671 C140.595,63.004 143.194,73.824 143.194,73.824 C143.194,73.824 146.413,59.681 132.028,52 L129,57.671 Z" id="Stroke-61-Copy-2" stroke="#0A0B09" stroke-width="1.5" stroke-linecap="round" stroke-linejoin="round"/><path d="M121.89,59.2013242 C132.389,46.2423242 143.776,43.3483242 143.776,43.3483242 C143.776,43.3483242 132.024,39.7313242 118,55.8083242 L121.89,59.2013242" id="Fill-62-Copy-2" fill="#00A449"/><path d="M121.89,59.2013242 C132.389,46.2423242 143.776,43.3483242 143.776,43.3483242 C143.776,43.3483242 132.024,39.7313242 118,55.8083242 L121.89,59.2013242 Z" id="Stroke-63-Copy-2" stroke="#0A0B09" stroke-width="1.5" stroke-linecap="round" stroke-linejoin="round"/><path d="M131.397,55.6552733 C145.876,47.3772733 157.539,48.8032733 157.539,48.8032733 C157.539,48.8032733 147.893,41.1762733 129,51.0832733 L131.397,55.6552733" id="Fill-64-Copy-2" fill="#00A449"/><path d="M131.397,55.6552733 C145.876,47.3772733 157.539,48.8032733 157.539,48.8032733 C157.539,48.8032733 147.893,41.1762733 129,51.0832733 L131.397,55.6552733 Z" id="Stroke-65-Copy-2" stroke="#0A0B09" stroke-width="1.5" stroke-linecap="round" stroke-linejoin="round"/><path d="M126.964717,66.761 C142.263717,74.092 148.877717,83.112 148.877717,83.112 C148.877717,83.112 147.923717,70.402 124.441717,60 C123.305717,62.563 124.436717,65.548 126.964717,66.761" id="Fill-66-Copy-2" fill="#00A449"/><path d="M126.964717,66.761 C142.263717,74.092 148.877717,83.112 148.877717,83.112 C148.877717,83.112 147.923717,70.402 124.441717,60 C123.305717,62.563 124.436717,65.548 126.964717,66.761 Z" id="Stroke-67-Copy-2" stroke="#0A0B09" stroke-width="1.5" stroke-linecap="round" stroke-linejoin="round"/><path d="M127.333,56.161 C110.667,55.554 101,62.234 101,62.234 C101,62.234 106,51 127.333,51 L127.333,56.161" id="Fill-69-Copy-2" fill="#00A449"/><path d="M127.333,56.161 C110.667,55.554 101,62.234 101,62.234 C101,62.234 106,51 127.333,51 L127.333,56.161 Z" id="Stroke-70-Copy-2" stroke="#0A0B09" stroke-width="1.5" stroke-linecap="round" stroke-linejoin="round"/><path d="M125.264,60.2073719 C108.421,58.1843719 98,62.2453719 98,62.2453719 C98,62.2453719 105.626,52.0323719 131.022,55.8573719 C130.604,58.6303719 128.048,60.5423719 125.264,60.2073719" id="Fill-71-Copy-2" fill="#00A449"/><path d="M125.264,60.2073719 C108.421,58.1843719 98,62.2453719 98,62.2453719 C98,62.2453719 105.626,52.0323719 131.022,55.8573719 C130.604,58.6303719 128.048,60.5423719 125.264,60.2073719 Z" id="Stroke-72-Copy-2" stroke="#0A0B09" stroke-width="1.5" stroke-linecap="round" stroke-linejoin="round"/><path d="M130.739,57.7749526 C117.337,45.5449526 105,43.8019526 105,43.8019526 C105,43.8019526 116.43,38.7849526 134.088,53.8479526 L130.739,57.7749526" id="Fill-73-Copy-2" fill="#00A449"/><path d="M130.739,57.7749526 C117.337,45.5449526 105,43.8019526 105,43.8019526 C105,43.8019526 116.43,38.7849526 134.088,53.8479526 L130.739,57.7749526 Z" id="Stroke-74-Copy-2" stroke="#0A0B09" stroke-width="1.5" stroke-linecap="round" stroke-linejoin="round"/><path d="M137.081,57.6529309 C120.501,58.2109309 111,64.1819309 111,64.1819309 C111,64.1819309 117.032,51.8769309 142.512,52.0009309 C142.498,55.0299309 140.11,57.5509309 137.081,57.6529309" id="Fill-75-Copy-2" fill="#00A449"/><path d="M137.081,57.6529309 C120.501,58.2109309 111,64.1819309 111,64.1819309 C111,64.1819309 117.032,51.8769309 142.512,52.0009309 C142.498,55.0299309 140.11,57.5509309 137.081,57.6529309 Z" id="Stroke-76-Copy-2" stroke="#0A0B09" stroke-width="1.5" stroke-linecap="round" stroke-linejoin="round"/><path d="M122.624,64.6899161 C107.255,65.4319161 101,71.1819161 101,71.1819161 C101,71.1819161 107.032,58.8779161 132.512,59.0009161 L132.419,59.1429161 C130.249,62.4729161 126.594,64.4979161 122.624,64.6899161" id="Fill-77-Copy-2" fill="#00A449"/><path d="M122.624,64.6899161 C107.255,65.4319161 101,71.1819161 101,71.1819161 C101,71.1819161 107.032,58.8779161 132.512,59.0009161 L132.419,59.1429161 C130.249,62.4729161 126.594,64.4979161 122.624,64.6899161 Z" id="Stroke-78-Copy-2" stroke="#0A0B09" stroke-width="1.5" stroke-linecap="round" stroke-linejoin="round"/></g></g></svg>