<?xml version="1.0" encoding="UTF-8" standalone="no"?><!DOCTYPE svg><svg width="152" height="118" viewBox="0 0 152 118" xmlns="http://www.w3.org/2000/svg"><title>frozen-dessert-carton</title><g fill="none" fill-rule="evenodd"><path d="M109.15 93.203h-96.4c-5.86 0-10.65-4.79-10.65-10.645V22.43c0-1.58 1.3-2.874 2.88-2.874h111.94c1.59 0 2.88 1.294 2.88 2.875V82.56c0 5.855-4.79 10.645-10.65 10.645" fill="#B2D8E9"/><path d="M109.15 93.203v-.747h-96.4c-2.72 0-5.19-1.112-6.99-2.908-1.8-1.798-2.91-4.27-2.91-6.99V22.43c0-.584.24-1.112.63-1.502.39-.388.91-.625 1.5-.626h111.94c.59 0 1.12.238 1.51.626.38.39.62.918.62 1.503V82.56c0 2.72-1.11 5.192-2.91 6.99-1.79 1.796-4.26 2.908-6.99 2.908v1.493c6.27-.004 11.39-5.122 11.4-11.392V22.43c-.01-1.996-1.63-3.618-3.63-3.62H4.98c-2 .002-3.62 1.624-3.62 3.62V82.56c0 6.27 5.12 11.388 11.39 11.39h96.4v-.745" fill="#1B1A18"/><path d="M109.15 54.486h-96.4c-5.86 0-10.65-4.79-10.65-10.645v29.21c0 5.855 4.79 10.645 10.65 10.645h96.4c5.86 0 10.65-4.79 10.65-10.645V43.84c0 5.856-4.79 10.646-10.65 10.646" fill="#2AA9D5"/><path d="M109.15 54.486v-.746h-96.4c-2.72 0-5.19-1.112-6.99-2.91-1.8-1.796-2.91-4.268-2.91-6.99 0-.2-.08-.386-.22-.527-.14-.14-.33-.22-.53-.22-.19 0-.38.08-.52.22s-.22.33-.22.528v29.21c0 6.27 5.12 11.39 11.39 11.392h96.4c6.27-.003 11.39-5.122 11.4-11.392V43.84c0-.2-.08-.386-.22-.527-.14-.14-.33-.22-.53-.22s-.39.08-.53.22-.22.33-.22.528c0 2.722-1.11 5.194-2.91 6.99-1.79 1.798-4.26 2.91-6.99 2.91v1.493c6.27-.003 11.39-5.122 11.4-11.392 0-.2-.08-.386-.22-.527-.14-.14-.33-.22-.53-.22s-.39.08-.53.22-.22.33-.22.528v29.21c0 2.722-1.11 5.193-2.91 6.99-1.79 1.797-4.26 2.908-6.99 2.91h-96.4c-2.72-.002-5.19-1.113-6.99-2.91-1.8-1.797-2.91-4.268-2.91-6.99V43.84c0-.2-.08-.386-.22-.527-.14-.14-.33-.22-.53-.22-.19 0-.38.08-.52.22s-.22.33-.22.528c0 6.27 5.12 11.39 11.39 11.393h96.4v-.747" fill="#1B1A18"/><path d="M107.85 43.84h-93.8c-7.08 0-12.87-5.79-12.87-12.867V14.13c0-7.078 5.79-12.87 12.87-12.87h93.8c7.08 0 12.87 5.792 12.87 12.87v16.843c0 7.077-5.79 12.868-12.87 12.868" fill="#FFF"/><path d="M107.85 43.84v-.746h-93.8c-3.33 0-6.36-1.362-8.56-3.56-2.2-2.2-3.56-5.228-3.56-8.56V14.13c0-3.333 1.36-6.36 3.56-8.56s5.23-3.562 8.56-3.562h93.8c3.34 0 6.36 1.362 8.56 3.56 2.2 2.202 3.56 5.23 3.56 8.562v16.843c0 3.333-1.36 6.36-3.56 8.56s-5.22 3.56-8.56 3.56v1.494c7.5-.003 13.61-6.12 13.62-13.614V14.13C121.46 6.637 115.35.518 107.85.515h-93.8C6.56.518.44 6.637.44 14.13v16.843c0 7.493 6.12 13.61 13.61 13.614h93.8v-.746" fill="#1B1A18"/><path d="M106.69 39.787H15.22c-5.32 0-9.66-4.347-9.66-9.66V15.41c0-5.314 4.34-9.66 9.66-9.66h91.47c5.31 0 9.66 4.346 9.66 9.66v14.717c0 5.313-4.35 9.66-9.66 9.66" fill="#F3F6F9"/><path d="M106.69 39.787v-.746H15.22c-2.45 0-4.68-1-6.3-2.618-1.62-1.62-2.62-3.844-2.62-6.295V15.41c0-2.452 1-4.677 2.62-6.296 1.62-1.618 3.85-2.62 6.3-2.62h91.47c2.45 0 4.67 1.002 6.29 2.62 1.62 1.62 2.62 3.844 2.62 6.295v14.717c0 2.45-1 4.676-2.62 6.295-1.62 1.618-3.84 2.62-6.29 2.62v1.492c5.73-.003 10.4-4.678 10.4-10.407V15.41c0-5.73-4.67-10.405-10.4-10.408H15.22C9.49 5.005 4.81 9.68 4.81 15.41v14.717c0 5.73 4.68 10.404 10.41 10.407h91.47v-.747" fill="#1B1A18"/><path d="M60.95 5.75v20.004" fill="#F4F4F2"/><path d="M60.2 5.75v20.004c0 .412.34.746.75.746s.75-.334.75-.746V5.75c0-.414-.34-.748-.75-.748s-.75.334-.75.747" fill="#1B1A18"/><path d="M43.65 69.934c0 5.212 7.75 9.437 17.3 9.437s17.3-4.224 17.3-9.436c0-5.21-7.75-9.436-17.3-9.436s-17.3 4.225-17.3 9.436" fill="#FFF"/><path d="M43.65 69.934h-.74c0 1.492.56 2.9 1.51 4.13 1.44 1.85 3.75 3.34 6.6 4.396 2.86 1.05 6.27 1.657 9.93 1.657 4.89-.002 9.32-1.074 12.59-2.855 1.63-.892 2.98-1.964 3.94-3.197.95-1.23 1.52-2.64 1.51-4.13.01-1.492-.56-2.902-1.51-4.13-1.44-1.85-3.75-3.342-6.6-4.396-2.85-1.052-6.26-1.658-9.93-1.66-4.89.004-9.32 1.075-12.59 2.856-1.63.893-2.98 1.965-3.94 3.198-.95 1.23-1.51 2.64-1.51 4.13h1.49c0-1.114.41-2.187 1.2-3.215 1.19-1.54 3.27-2.93 5.94-3.91 2.67-.983 5.91-1.566 9.41-1.566 4.67-.002 8.88 1.04 11.87 2.673 1.5.815 2.69 1.777 3.48 2.802.79 1.027 1.2 2.1 1.2 3.214 0 1.115-.41 2.188-1.2 3.216-1.19 1.54-3.27 2.928-5.94 3.91-2.66.982-5.91 1.565-9.41 1.564-4.66.002-8.88-1.038-11.87-2.672-1.5-.816-2.68-1.777-3.48-2.802-.79-1.028-1.2-2.1-1.2-3.216h-.75" fill="#1B1A18"/><path d="M60.95 31.406v3.015" fill="#F4F4F2"/><path d="M60.2 31.406v3.015c0 .413.34.747.75.747s.75-.334.75-.746v-3.014c0-.412-.34-.746-.75-.746s-.75.334-.75.746" fill="#1B1A18"/><path d="M60.95 37.812v1.975" fill="#F4F4F2"/><path d="M60.2 37.812v1.975c0 .412.34.747.75.747s.75-.335.75-.747v-1.975c0-.412-.34-.747-.75-.747s-.75.335-.75.747" fill="#1B1A18"/><path d="M52.58 66.96c0 4.506 3.66 8.16 8.16 8.16 4.51 0 8.16-3.654 8.16-8.16 0-4.508-3.65-8.162-8.16-8.162-4.5 0-8.16 3.654-8.16 8.16" fill="#EA8D9A"/><path d="M52.58 66.96h-.74c0 4.92 3.98 8.906 8.9 8.906s8.91-3.987 8.91-8.907-3.99-8.908-8.91-8.908-8.9 3.987-8.9 8.907h1.49c0-2.05.83-3.9 2.17-5.244 1.35-1.343 3.19-2.17 5.24-2.17 2.05 0 3.9.827 5.25 2.17 1.34 1.344 2.17 3.193 2.17 5.243 0 2.05-.83 3.898-2.17 5.242-1.35 1.343-3.2 2.17-5.25 2.17s-3.89-.827-5.24-2.17c-1.34-1.344-2.17-3.193-2.17-5.243h-.75" fill="#1B1A18"/><path fill="#E8813E" d="M60.95 71.486H53l1.67 8.632h12.57l1.66-8.632h-7.95"/><path d="M60.95 71.486v-.747H53c-.23 0-.44.098-.58.27-.14.173-.2.397-.16.617l1.67 8.633c.07.352.38.604.74.604h12.57c.35 0 .66-.253.73-.604l1.67-8.633c.04-.22-.02-.444-.16-.617-.14-.172-.35-.27-.58-.27h-7.95v1.492H68l-1.38 7.14H55.28l-1.38-7.14h7.05v-.746" fill="#1B1A18"/><path d="M60.95 71.486H53l1.67 8.632h3.78c2.2 0 4.08-1.557 4.5-3.713l.95-4.92h-2.95" fill="#F7C150"/><path d="M60.95 71.486v-.747H53c-.23 0-.44.098-.58.27-.14.173-.2.397-.16.617l1.67 8.633c.07.352.38.604.74.604h3.78c2.55 0 4.75-1.81 5.23-4.318l.95-4.92c.05-.22-.01-.443-.15-.616-.15-.172-.36-.27-.58-.27h-2.95v1.492H63l-.78 4.03c-.35 1.806-1.93 3.11-3.77 3.11h-3.17l-1.38-7.14h7.05v-.746" fill="#1B1A18"/><path d="M68.11 68.18c-.77 0-1.45.406-1.84 1.016-.39-.61-1.06-1.017-1.84-1.017s-1.45.406-1.84 1.016c-.39-.61-1.07-1.017-1.85-1.017-.77 0-1.45.406-1.84 1.016-.39-.61-1.06-1.017-1.84-1.017s-1.45.406-1.84 1.016c-.39-.61-1.07-1.017-1.84-1.017-1.21 0-2.19.978-2.19 2.186s.98 2.187 2.19 2.187c.77 0 1.45-.408 1.84-1.017.39.61 1.06 1.017 1.84 1.017s1.45-.407 1.84-1.017c.39.61 1.07 1.017 1.84 1.017.78 0 1.46-.407 1.85-1.017.39.61 1.06 1.017 1.84 1.017s1.45-.407 1.84-1.017c.39.61 1.07 1.017 1.84 1.017 1.21 0 2.19-.98 2.19-2.187 0-1.208-.98-2.187-2.19-2.187" fill="#EA8D9A"/><path d="M68.11 68.18v-.748c-1.04 0-1.95.55-2.47 1.363l.63.4.63-.4c-.51-.813-1.43-1.363-2.47-1.363-1.04 0-1.96.55-2.47 1.363l.63.4.63-.4c-.52-.813-1.43-1.363-2.48-1.363-1.04 0-1.95.55-2.47 1.363l.63.4.63-.4c-.51-.813-1.43-1.363-2.47-1.363-1.04 0-1.96.55-2.47 1.363l.63.4.63-.4c-.52-.813-1.43-1.363-2.47-1.363-1.63 0-2.94 1.313-2.94 2.934 0 1.62 1.31 2.933 2.94 2.933 1.04 0 1.95-.55 2.47-1.364l-.63-.4-.63.4c.51.814 1.43 1.363 2.47 1.363 1.04 0 1.96-.55 2.47-1.364l-.63-.4-.63.4c.52.814 1.43 1.363 2.47 1.363 1.05 0 1.96-.55 2.48-1.364l-.63-.4-.63.4c.51.814 1.43 1.363 2.47 1.363 1.04 0 1.96-.55 2.47-1.364l-.63-.4-.63.4c.52.814 1.43 1.363 2.47 1.363 1.62 0 2.94-1.314 2.94-2.934s-1.32-2.933-2.94-2.934v1.493c.8.002 1.44.645 1.44 1.44 0 .796-.64 1.44-1.44 1.44-.51 0-.95-.264-1.21-.67-.14-.215-.37-.346-.63-.346-.25 0-.49.13-.63.345-.26.406-.7.67-1.21.67s-.95-.264-1.21-.67c-.14-.215-.38-.346-.63-.346-.26 0-.5.13-.63.345-.26.406-.71.67-1.22.67s-.95-.264-1.21-.67c-.13-.215-.37-.346-.63-.346-.25 0-.49.13-.63.345-.26.406-.7.67-1.21.67s-.95-.264-1.21-.67c-.14-.215-.38-.346-.63-.346-.26 0-.5.13-.63.345-.26.406-.7.67-1.21.67-.8 0-1.44-.644-1.45-1.44.01-.795.65-1.438 1.45-1.44.51 0 .95.265 1.21.672.13.215.37.346.63.346.25 0 .49-.13.63-.346.26-.407.7-.672 1.21-.672s.95.265 1.21.672c.14.215.38.346.63.346.26 0 .5-.13.63-.346.26-.407.7-.672 1.21-.672s.96.265 1.22.672c.13.215.37.346.63.346.25 0 .49-.13.63-.346.26-.407.7-.672 1.21-.672s.95.265 1.21.672c.14.215.38.346.63.346.26 0 .49-.13.63-.346.26-.407.7-.672 1.21-.672v-.746" fill="#1B1A18"/><path d="M147.09 71.353c-.55.6-2.41 14.976-3.8 26.36-1.04 8.408-6.91 15.422-15.01 17.903l-1.28.39c-4.09 1.255-8.47 1.255-12.56 0l-1.28-.39c-8.1-2.48-13.97-9.495-15-17.902-1.4-11.385-3.26-25.76-3.81-26.36h52.74" fill="#FBE4B9"/><path d="M147.09 71.353l-.55-.505c-.12.136-.15.22-.19.302-.07.158-.11.315-.16.516-.2.74-.43 2.047-.71 3.803-.82 5.252-1.98 14.394-2.94 22.153-.99 8.115-6.66 14.885-14.48 17.28l-1.28.39c-1.97.605-4.02.908-6.06.908s-4.09-.302-6.06-.907l-1.28-.39c-7.81-2.395-13.49-9.165-14.48-17.28-.7-5.695-1.51-12.137-2.22-17.237-.36-2.55-.69-4.763-.96-6.387-.14-.814-.26-1.477-.38-1.973-.05-.248-.1-.454-.16-.627l-.09-.25c-.04-.083-.07-.166-.19-.302l-.55.505v.747h52.74v-.747l-.55-.505.55.505v-.746H94.35c-.3 0-.56.174-.68.446s-.07.587.13.806l.39-.363-.46.267.07.095.39-.363-.46.267.15-.083-.16.068.01.016.15-.083-.16.068c.01.017.05.13.09.292.16.616.4 1.925.67 3.657.82 5.21 1.99 14.355 2.94 22.108 1.06 8.7 7.14 15.958 15.52 18.525l1.28.39c2.12.65 4.31.974 6.5.974 2.19 0 4.38-.324 6.5-.973l1.28-.39c8.38-2.567 14.46-9.826 15.53-18.525.69-5.69 1.51-12.128 2.21-17.213.36-2.542.68-4.747.96-6.343.13-.798.25-1.445.35-1.895.05-.224.1-.4.14-.508l.03-.1-.15-.064.14.08.01-.015-.15-.065.14.08-.46-.266.39.362.07-.096-.46-.267.39.362c.2-.22.25-.534.13-.807-.11-.272-.38-.446-.68-.446v.746" fill="#1B1A18"/><path d="M150.68 62.33c0 10.497-13.41 19.007-29.96 19.007-16.54 0-29.96-8.51-29.96-19.007v-8.667h59.92v8.667" fill="#F3F6F9"/><path d="M150.68 62.33h-.75c0 2.463-.78 4.813-2.23 6.984-2.16 3.255-5.84 6.086-10.52 8.09-4.68 2.006-10.35 3.187-16.46 3.186-8.14.002-15.51-2.1-20.78-5.45-2.64-1.674-4.75-3.657-6.2-5.826-1.45-2.17-2.23-4.52-2.23-6.984v-7.92h58.42v7.92h1.49v-8.667c0-.196-.08-.39-.21-.528-.14-.14-.34-.218-.53-.218H90.76c-.19 0-.38.08-.52.218-.14.14-.22.33-.22.528v8.667c0 2.785.89 5.436 2.48 7.812 2.38 3.568 6.3 6.54 11.18 8.635 4.88 2.093 10.74 3.306 17.04 3.306 8.4-.002 16.02-2.154 21.58-5.683 2.79-1.766 5.06-3.88 6.64-6.258 1.59-2.376 2.48-5.027 2.48-7.812h-.74" fill="#1B1A18"/><path d="M150.68 53.663c0 10.497-13.41 19.007-29.96 19.007-16.54 0-29.96-8.51-29.96-19.007 0-10.497 13.42-19.007 29.96-19.007 16.55 0 29.96 8.51 29.96 19.007" fill="#FFF"/><path d="M150.68 53.663h-.75c0 2.464-.78 4.813-2.23 6.984-2.16 3.255-5.84 6.086-10.52 8.09-4.68 2.007-10.35 3.187-16.46 3.187-8.14.002-15.51-2.1-20.78-5.45-2.64-1.675-4.75-3.657-6.2-5.827-1.45-2.17-2.23-4.52-2.23-6.984 0-2.463.78-4.813 2.23-6.984 2.17-3.256 5.85-6.087 10.53-8.092 4.67-2.006 10.34-3.186 16.45-3.185 8.15-.002 15.51 2.1 20.78 5.45 2.64 1.674 4.76 3.656 6.2 5.826 1.45 2.17 2.23 4.52 2.23 6.983h1.49c0-2.785-.89-5.436-2.48-7.812-2.38-3.567-6.29-6.54-11.18-8.634-4.88-2.093-10.74-3.306-17.04-3.306-8.4.002-16.01 2.154-21.58 5.683-2.78 1.766-5.06 3.88-6.64 6.258-1.59 2.377-2.48 5.028-2.48 7.813s.89 5.436 2.48 7.813c2.38 3.567 6.3 6.54 11.18 8.634 4.88 2.093 10.74 3.306 17.04 3.307 8.4-.002 16.02-2.154 21.58-5.684 2.79-1.765 5.06-3.88 6.64-6.257 1.59-2.377 2.48-5.028 2.48-7.813h-.74M132.05 98.11c0-5.078-5.07-9.194-11.33-9.194-6.25 0-11.33 4.116-11.33 9.193 0 5.076 5.08 9.192 11.33 9.192 6.26 0 11.33-4.116 11.33-9.193" fill="#1B1A18"/><path d="M132.05 98.11h.74c0-2.796-1.4-5.306-3.59-7.08-2.19-1.78-5.19-2.86-8.48-2.86s-6.28 1.08-8.48 2.86c-2.19 1.774-3.59 4.284-3.59 7.08 0 2.793 1.4 5.304 3.59 7.08 2.2 1.778 5.19 2.857 8.48 2.858 3.29 0 6.29-1.08 8.48-2.86 2.19-1.774 3.59-4.285 3.59-7.08h-1.49c0 2.283-1.13 4.37-3.04 5.92-1.91 1.55-4.58 2.528-7.54 2.527-2.96 0-5.63-.978-7.54-2.526-1.91-1.553-3.04-3.64-3.04-5.92 0-2.284 1.13-4.37 3.04-5.922 1.91-1.548 4.58-2.527 7.54-2.526 2.96 0 5.63.978 7.54 2.526 1.91 1.552 3.04 3.638 3.04 5.92h.75" fill="#1B1A18"/><path d="M126.64 92.188c0 3.268-2.65 5.917-5.92 5.917s-5.92-2.65-5.92-5.917c0-3.268 2.65-5.917 5.92-5.917s5.92 2.65 5.92 5.918" fill="#EA8D9A"/><path d="M126.64 92.188h-.75c0 1.43-.58 2.718-1.51 3.656-.94.937-2.23 1.514-3.66 1.514-1.43 0-2.72-.577-3.66-1.514-.93-.938-1.51-2.226-1.51-3.656 0-1.43.58-2.718 1.51-3.656.94-.937 2.23-1.514 3.66-1.514 1.43 0 2.72.577 3.66 1.514.93.938 1.51 2.226 1.51 3.656h1.49c0-3.68-2.98-6.663-6.66-6.663s-6.66 2.983-6.66 6.663 2.98 6.663 6.66 6.663 6.66-2.982 6.66-6.662h-.74" fill="#1B1A18"/><path fill="#F7C150" d="M126 94.84l-5.28 15.37-5.28-15.37H126"/><path d="M126 94.84l-.7-.24-4.58 13.315-4.24-12.327H126v-.747l-.7-.24.7.24v-.745h-10.56c-.24 0-.47.116-.61.313s-.18.447-.1.676l5.29 15.37c.1.3.38.503.7.503.32 0 .6-.203.71-.503l5.28-15.37c.08-.23.04-.48-.1-.676-.14-.197-.36-.313-.61-.313v.746" fill="#1B1A18"/></g></svg>