<?xml version="1.0" encoding="UTF-8" standalone="no"?><!DOCTYPE svg><svg width="304" height="204" viewBox="0 0 304 204" xmlns="http://www.w3.org/2000/svg"><title>leaf-pile</title><g fill="none" fill-rule="evenodd"><path d="M174.817 127.644l-22.7-.076.308-11.115-23.97 18.448c-.988.756-2.354-.225-1.95-1.398l6.33-18.525-9.542 1.933-4.484-16.854-13.948 14.103-7.39-4.236-4.345 33.28c-.108.846-.762 1.516-1.607 1.644l-9.234 1.406 17.88 23.425 10.76 27.435 5.992-7.166c.548-.654 1.462-.867 2.238-.524l30.705 13.54.216-8.51 19.29-4.61-12.09-12.58 6.603-7.155-19.118-4.188c-1.21-.265-1.345-1.944-.187-2.392l28.2-10.935-9.657-5.5 11.7-19.45" fill="#F1A751"/><path d="M174.817 127.644l.005.747-22.7-.074c-.205 0-.402-.084-.535-.227-.143-.146-.224-.34-.212-.542l.26-9.546-22.723 17.49c-.49.38-1.106.493-1.623.377-.51-.11-.95-.4-1.24-.817-.3-.414-.445-.978-.324-1.55l.072-.24 5.915-17.295-8.27 1.675c-.384.08-.773-.16-.866-.54l-4.158-15.596-13.025 13.178c-.236.24-.614.29-.906.122l-6.416-3.68-4.2 32.176-.036.21c-.228 1.075-1.1 1.906-2.2 2.074l-7.996 1.215 17.122 22.425.104.18 10.295 26.263 5.182-6.2c.643-.765 1.644-1.097 2.593-.895.176.037.348.092.516.168l29.697 13.092.183-7.396c0-.342.236-.632.57-.71l18.02-4.307-11.185-11.64c-.267-.282-.274-.732-.008-1.022l5.724-6.197-17.857-3.913c-.577-.123-1.04-.486-1.295-.93-.253-.443-.338-.96-.233-1.452.126-.598.557-1.18 1.234-1.435l26.74-10.366-8.3-4.723c-.172-.1-.3-.265-.35-.46-.052-.196-.03-.402.08-.574l11.71-19.45.633.384.005.747-.005-.746.644.385-11.314 18.794 9.002 5.124c.246.14.392.415.372.702-.02.288-.206.537-.474.642l-28.2 10.934c-.2.084-.276.193-.31.354-.037.127-.008.28.06.388.06.106.146.182.32.223l19.128 4.193c.254.056.468.25.547.503.08.255.02.535-.164.73l-6.124 6.64 11.603 12.074c.184.192.257.472.173.726-.075.256-.28.455-.54.517l-18.73 4.476-.194 7.937c-.012.248-.133.48-.345.61-.213.135-.473.155-.707.053l-30.706-13.54-.23-.075c-.42-.09-.86.056-1.136.393l-5.99 7.166c-.165.203-.432.3-.688.258-.267-.043-.485-.22-.577-.464l-10.72-27.338L81.7 146.708c-.16-.21-.204-.49-.1-.733.092-.246.313-.42.577-.46l9.234-1.405c.487-.07.86-.44.96-.91l.02-.09 4.345-33.282c.032-.247.18-.462.408-.572.228-.11.482-.104.7.02l6.89 3.95 13.544-13.695c.184-.19.465-.264.717-.198.26.07.463.273.53.53l4.312 16.178 8.856-1.793c.257-.054.534.04.706.238.172.2.235.483.14.734l-6.33 18.522-.015.074c-.032.154-.004.262.074.374.07.107.204.194.332.22.127.022.242.01.4-.102l23.968-18.448c.23-.174.544-.202.793-.073.26.13.417.398.417.687l-.29 10.35 21.936.073c.265 0 .52.147.645.38.134.235.134.522-.007.752l-.643-.386" fill="#302F2A"/><path d="M146.817 143.413c.95 1.69-64.327 40.26-64.327 40.26-1.684.953-3.846.348-4.796-1.34-.95-1.688-.347-3.848 1.347-4.797 0 0 66.827-35.81 67.777-34.123" fill="#E57258"/><path d="M146.817 143.413l.65-.368c.12.215.12.45.09.595-.054.2-.118.31-.19.412-.135.196-.302.356-.506.55-.798.73-2.354 1.84-4.505 3.303-7.542 5.088-22.398 14.183-35.39 22.016-12.982 7.833-24.09 14.397-24.09 14.397l-.012.01c-.94.527-2 .66-2.98.45-1.153-.243-2.216-.97-2.84-2.078-.525-.94-.658-2-.45-2.98.246-1.155.972-2.21 2.076-2.836l.01-.01c.01.003 16.233-8.69 32.807-17.31 8.288-4.312 16.663-8.605 23.156-11.784 3.242-1.59 6.015-2.903 8.077-3.804 1.027-.452 1.878-.8 2.54-1.032.332-.116.616-.204.864-.262.118-.03.236-.052.35-.065.126-.01.25-.018.417.016.08.017.175.046.274.107.11.063.23.17.302.312l-.65.36.652-.367-.65.368-.65.36.58-.318-.347.567c-.07-.044-.175-.13-.232-.248l.58-.32-.347.568.3-.493-.12.563-.18-.07.3-.494-.12.563.073-.343-.003.353-.07-.01.073-.343-.003.353-.005-.027.005.026-.005-.026.005.026c-.02 0-.18.025-.397.088-.85.245-2.61.978-4.935 2.054-8.182 3.768-23.682 11.76-37.11 18.805-6.72 3.52-12.92 6.808-17.448 9.213l-5.383 2.867c-1.28.68-1.984 1.06-1.985 1.063l-.35-.657.362.65c-.72.405-1.192 1.086-1.353 1.844-.136.643-.046 1.328.295 1.937.41.72 1.087 1.188 1.85 1.35.645.137 1.328.05 1.933-.293l.362.65-.374-.642c0-.002.994-.59 2.738-1.625 6.107-3.625 21.39-12.72 35.192-21.18 6.91-4.228 13.44-8.3 18.27-11.444 2.418-1.57 4.4-2.913 5.79-3.918.69-.503 1.24-.922 1.59-1.234.187-.15.316-.28.385-.362l.057-.07.323.21-.362-.078c.023-.108.048-.13.04-.132l.322.21-.362-.078.626.133-.558.32c-.105-.18-.096-.367-.068-.453l.626.133-.558.32.002-.01.65-.36" fill="#302F2A"/><path d="M95.255 162.1c.824 1.075 1.52 1.85 2.115 2.363.606.516 1.104.768 1.564.866.48.1.97.054 1.606-.15.635-.2 1.387-.563 2.297-1.04.344-.178.756-.048.94.293.172.34.042.76-.293.94-.93.485-1.74.88-2.51 1.135-.78.25-1.547.35-2.33.182-.743-.157-1.456-.554-2.174-1.17-.717-.616-1.458-1.457-2.315-2.576-.23-.304-.18-.742.126-.976.306-.233.744-.174.975.13M109.542 160.636c.644-.34 1.11-.753 1.46-1.25.362-.495.6-1.087.75-1.79.26-1.226.223-2.783.022-4.58-.58-5.394-2.583-12.854-.92-20.726.143-.676.318-1.354.514-2.035.11-.37.5-.578.866-.47.366.11.58.496.47.865-.187.644-.354 1.287-.49 1.93-1.06 4.98-.564 9.864.075 14.215.314 2.174.668 4.213.876 6.073.198 1.858.26 3.54-.055 5.018-.178.844-.487 1.625-.97 2.306-.48.68-1.134 1.25-1.96 1.678-.345.177-.767.043-.94-.297-.173-.34-.043-.76.302-.937M112.033 165.17c1.47-.9 2.997-1.11 4.472-.79 1.623.35 3.184 1.277 4.81 2.478 2.438 1.805 5.025 4.254 8.047 6.537 3.02 2.283 6.448 4.39 10.53 5.53.377.105.59.49.482.858-.1.37-.482.587-.85.484-5.76-1.61-10.22-5.012-13.937-8.11-1.858-1.55-3.548-3.03-5.093-4.18-1.554-1.153-2.977-1.96-4.278-2.235-1.185-.244-2.257-.107-3.454.617-.33.2-.757.095-.963-.234-.197-.328-.095-.756.233-.956" fill="#302F2A"/><path d="M110.815 145.41l-4.03-4.603c-.257-.29-.225-.728.064-.982.288-.253.722-.224.977.065l4.032 4.602c.254.29.222.728-.067.982-.29.252-.732.222-.978-.065M110.79 136.435l5.212-1.77c.364-.122.762.073.88.435.126.365-.07.76-.434.883l-5.212 1.77c-.363.122-.76-.073-.888-.437-.117-.363.08-.758.443-.88M130.028 174.542l3.03-2.612c.298-.25.73-.218.985.074.246.29.214.73-.075.98l-3.03 2.612c-.288.25-.73.218-.976-.07-.255-.293-.223-.732.066-.984M135.834 177.672l1.558 4.837c.117.365-.09.755-.45.874-.364.12-.76-.084-.877-.45l-1.56-4.836c-.115-.365.08-.758.453-.875.363-.118.76.083.876.45M120.248 155.093c1.09-.56 1.866-1.42 2.42-2.39.563-.966.892-2.033 1.082-2.926.123-.58.19-1.086.215-1.445.017-.178.027-.32.036-.413l.004-.108-.004-.03c.01-.382.32-.69.708-.687.378.003.69.318.69.704-.007.03-.015.976-.29 2.266-.21.992-.576 2.19-1.238 3.33-.65 1.14-1.61 2.23-2.986 2.936-.344.174-.765.04-.937-.302-.183-.345-.043-.763.3-.937" fill="#302F2A"/><path d="M1.358 128.497l23.68-3.99-2.235-11.553 28.205 15.12c1.156.622 2.413-.634 1.793-1.796l-9.803-18.244 10.292.373 1.778-18.37 16.985 12.323 6.98-5.696 10.275 33.994c.26.86 1.063 1.44 1.965 1.428l9.877-.12-14.62 27.53-6.5 30.497-7.486-6.45c-.683-.588-1.673-.65-2.427-.16l-29.72 19.438-1.688-8.85-20.93-1.487 10.446-15.216-8.124-6.33 19.234-7.664c1.222-.49 1.066-2.26-.216-2.537l-31.328-6.54 9.138-7.41-15.572-18.29" fill="#E57258"/><path d="M1.358 128.497l.124.737 23.682-3.99c.2-.035.372-.142.49-.313.116-.17.156-.367.117-.563l-1.938-10.006 26.823 14.37c.09.056.185.1.283.136.566.207 1.164.137 1.63-.108.472-.244.834-.644 1.02-1.15.19-.507.17-1.13-.13-1.677l-9.188-17.103 8.992.326c.394.015.73-.277.768-.668l1.653-17.074 15.93 11.556c.276.196.65.183.912-.03l6.116-4.99 9.956 32.92c.256.86.902 1.51 1.703 1.802.307.112.64.17.983.166l8.62-.108-14.034 26.424-.073.197-6.235 29.262-6.534-5.624c-.256-.232-.55-.393-.86-.505-.802-.29-1.713-.208-2.462.286l-28.786 18.82-1.478-7.754c-.064-.33-.343-.582-.68-.608l-19.63-1.388 9.708-14.143c.223-.323.153-.764-.155-1.014l-7.098-5.532 18.028-7.188c.58-.225.997-.69 1.178-1.2.183-.507.163-1.047-.04-1.536-.2-.488-.614-.925-1.18-1.132-.097-.035-.198-.06-.302-.077L9.485 153.78l7.917-6.418c.157-.124.257-.312.273-.508.02-.205-.043-.4-.174-.553L1.922 128.02l-.565.477.124.737-.124-.737-.57.484 15.08 17.706-8.544 6.926c-.226.184-.324.478-.257.758.068.28.29.5.575.55l31.324 6.548.093.034c.164.06.255.157.317.296.06.14.066.312.013.452-.055.14-.138.248-.33.327l-19.237 7.673c-.248.1-.425.324-.463.587-.037.264.072.527.283.69l7.568 5.903-10.047 14.636c-.152.222-.17.502-.056.746.114.244.352.405.62.417l20.355 1.45 1.58 8.278c.05.242.213.45.443.545.228.104.49.082.698-.055l29.72-19.437c.345-.225.766-.263 1.136-.13.14.053.274.133.396.23l7.487 6.45c.2.17.474.226.727.138.248-.08.435-.29.49-.546l6.477-30.398 14.574-27.44c.124-.232.115-.512-.02-.742-.14-.22-.385-.353-.648-.353l-9.882.127c-.156-.004-.308-.027-.45-.08-.37-.134-.668-.433-.786-.828L79.75 96.444c-.073-.24-.26-.424-.5-.49-.238-.076-.494-.03-.69.132l-6.532 5.327L55.504 89.44c-.215-.163-.5-.192-.744-.08-.245.114-.41.34-.436.61l-1.71 17.67-9.59-.352c-.27-.002-.522.13-.663.355-.14.226-.147.51-.022.747l9.805 18.244c.096.184.09.32.042.462-.047.132-.165.27-.3.338-.138.067-.27.083-.434.023l-.092-.034-28.202-15.128c-.254-.135-.566-.11-.797.06-.233.172-.346.46-.292.747L24.16 123.9l-22.93 3.87c-.264.04-.485.227-.574.47-.092.255-.042.54.133.74l.568-.483" fill="#302F2A"/><path d="M33.31 140.126c-.703 1.926 74.08 30.933 74.08 30.933 1.927.7 4.078-.305 4.78-2.23.7-1.927-.305-4.07-2.23-4.772 0 0-75.93-25.858-76.63-23.932" fill="#EC945A"/><path d="M33.31 140.126l-.656-.238c-.054.15-.056.31-.03.425.05.242.148.352.228.456.168.177.347.316.587.478.908.608 2.676 1.485 5.155 2.632 17.294 7.955 68.534 27.828 68.542 27.832l.014.005c2.295.824 4.835-.36 5.672-2.65.83-2.285-.354-4.833-2.644-5.667l-.014-.005s-18.986-6.463-38.063-12.683c-9.535-3.12-19.097-6.164-26.324-8.326-3.616-1.07-6.645-1.93-8.808-2.46-1.088-.258-1.95-.444-2.587-.538-.32-.042-.58-.063-.823-.055-.124.008-.242.018-.395.07-.075.025-.164.067-.258.14-.097.08-.196.194-.25.345l1.31.476-.567-.206.374.477c.067-.05.15-.15.193-.27l-.566-.207.374.477-.248-.314.065.407c-.002 0 .05.008.184-.092l-.248-.314.065.407c.007-.008.167-.013.39.014.89.102 2.825.55 5.423 1.262 9.124 2.49 26.718 8.17 42.01 13.227 7.65 2.527 14.725 4.9 19.888 6.64 2.584.867 4.687 1.58 6.148 2.07 1.457.497 2.268.77 2.27.772l.223-.654-.237.65c.782.283 1.375.86 1.707 1.567.326.715.39 1.536.105 2.316-.287.79-.863 1.38-1.57 1.707-.71.337-1.536.398-2.32.114l-.235.65.25-.644c-.003-.002-1.167-.457-3.21-1.254-7.15-2.784-25.02-9.787-41.02-16.293-7.997-3.262-15.534-6.388-21.02-8.81-2.74-1.21-4.973-2.247-6.482-3.02-.756-.38-1.332-.708-1.678-.94-.172-.116-.288-.212-.318-.244l-.007-.003-.233.203.285-.12-.052-.083-.233.203.285-.12-.542.23.548.198c.068-.188.022-.354-.006-.428l-.542.23.548.198-.654-.238" fill="#302F2A"/><path d="M75.177 151.715l-.17-.063c-.84-.305-1.442-.758-1.922-1.37-.837-1.06-1.278-2.688-1.483-4.753-.31-3.104-.11-7.118-.373-11.492-.262-4.383-.998-9.132-3.23-13.742-.168-.34-.583-.49-.93-.318-.344.162-.488.578-.32.926 3.23 6.657 3.196 13.763 3.258 19.65.038 2.94.094 5.567.654 7.73.28 1.08.695 2.05 1.327 2.856.625.813 1.474 1.44 2.54 1.82l.217.077c.364.122.76-.085.876-.447.118-.36-.082-.753-.446-.875M73.348 156.88c-.085-.03-.165-.07-.25-.1-1.12-.41-2.217-.5-3.257-.314-1.825.325-3.43 1.444-5.006 2.935-2.365 2.247-4.722 5.4-7.594 8.496-2.87 3.094-6.24 6.125-10.568 8.147-.347.16-.497.574-.335.92.163.347.577.498.925.337 6.953-3.248 11.45-8.9 15.2-13.272 1.872-2.19 3.564-4.055 5.204-5.15.817-.544 1.615-.902 2.415-1.037.806-.142 1.623-.08 2.54.255l.207.075c.358.14.763-.03.905-.383.146-.362-.027-.766-.384-.906" fill="#302F2A"/><path d="M71.245 136.63l3.387-6.184c.182-.328.06-.756-.277-.942-.336-.186-.758-.063-.944.274l-3.385 6.184c-.186.337-.064.765.276.942.338.186.76.063.945-.274M70.434 129.173l-6.262-3.375c-.34-.177-.76-.054-.943.284-.183.338-.056.757.28.944l6.263 3.375c.34.178.76.054.943-.284.183-.338.055-.756-.282-.943M57.557 167.947l-5.29-.49c-.384-.032-.723.25-.758.63-.036.38.246.718.627.76l5.29.49c.384.033.723-.248.758-.63.035-.38-.247-.717-.628-.76M50.72 174.004l-.79 5.31c-.057.384.206.735.584.798.38.053.736-.21.79-.585l.793-5.32c.058-.383-.205-.734-.582-.797-.382-.054-.737.21-.794.594" fill="#302F2A"/><path d="M190.04 63.37l-4.24 20.307 9.99 1.838-21.04 17.923c-.86.736-.25 2.144.88 2.01l17.76-2.142-3.54 8.16 14.21 7.216-15.25 9.784 2.38 7.407-30.58-2.44c-.77-.06-1.5.397-1.77 1.126l-3.01 7.984-17.54-20.432-22.48-14.83 7.54-3.992c.69-.364 1.05-1.14.89-1.9l-6.26-30.024 7.64 1.43 7.79-16.367 8.95 13.192 7.65-4.54.11 17.888c.01 1.134 1.48 1.57 2.1.62l15.13-23.133 3.08 9.683 19.61-6.77" fill="#EC945A"/><path d="M190.04 63.37l-.68-.14-4.24 20.305c-.04.184 0 .374.1.53.11.156.27.262.45.296l8.56 1.574-19.93 16.975c-.44.365-.66.894-.65 1.387 0 .475.18.925.5 1.272.31.346.79.583 1.33.58l.23-.013 16.56-1.996-3.06 7.05c-.15.337 0 .73.32.897l13.13 6.665-14.23 9.128c-.27.17-.38.5-.29.8l2.07 6.417-29.54-2.357-.2-.008c-1.01 0-1.92.624-2.28 1.582l-2.6 6.887-16.77-19.542-.15-.127-21.5-14.182 6.51-3.443c.81-.43 1.3-1.267 1.3-2.158 0-.166-.02-.334-.05-.5l-6.06-29.006 6.63 1.24c.31.058.62-.1.75-.385l7.26-15.27 8.27 12.187c.21.304.62.395.93.208l6.61-3.922.1 16.676c0 .542.24 1.03.59 1.344.35.318.8.486 1.27.487.56.007 1.16-.277 1.52-.835l14.33-21.907 2.64 8.288c.06.18.18.327.35.412.17.084.36.097.54.035l19.61-6.77-.23-.656-.68-.14.68.14-.22-.657-18.94 6.537-2.86-9.004c-.09-.256-.31-.442-.57-.478-.27-.037-.53.083-.68.308L151.64 83.21c-.11.16-.22.197-.36.204-.12 0-.25-.048-.33-.124-.08-.08-.13-.162-.14-.325l-.11-17.888c0-.25-.13-.48-.35-.602-.22-.122-.48-.12-.7.008l-7.09 4.206-8.58-12.652c-.14-.205-.38-.322-.62-.303-.25.02-.47.17-.58.395l-7.55 15.884-7.13-1.332c-.23-.042-.46.03-.62.197-.16.166-.23.4-.19.628l6.27 30.023.03.217c0 .382-.21.744-.56.928l-7.55 3.993c-.21.115-.35.335-.37.58-.01.247.11.48.32.615l22.39 14.776 17.48 20.358c.16.186.41.274.65.23.24-.04.44-.208.53-.438l3.01-7.986c.16-.412.55-.68.98-.68l.09.003 30.57 2.44c.23.018.46-.08.6-.262.15-.183.19-.424.12-.645l-2.22-6.898 14.81-9.494c.21-.134.33-.373.32-.62-.02-.25-.16-.474-.38-.586l-13.63-6.92 3.28-7.56c.1-.228.07-.493-.08-.692-.15-.2-.4-.305-.64-.275l-17.76 2.14-.07.005c-.14-.002-.23-.05-.31-.134-.08-.086-.13-.215-.13-.33 0-.12.03-.215.16-.328l21.04-17.924c.21-.174.29-.45.22-.71-.07-.26-.28-.455-.54-.503l-9.29-1.708 4.1-19.61c.05-.244-.04-.497-.23-.663-.18-.167-.45-.218-.68-.137l.22.658" fill="#302F2A"/><path d="M170.63 85.407c-1.33-1.17-48.21 49.843-48.21 49.843-1.17 1.33-1.04 3.374.29 4.544 1.33 1.17 3.37 1.042 4.54-.287 0 0 44.71-52.93 43.38-54.1" fill="#F1A751"/><path d="M170.63 85.407l.49-.56c-.18-.166-.41-.21-.55-.207-.21.004-.32.05-.43.094-.21.09-.39.205-.6.357-.81.584-2.1 1.754-3.82 3.408-5.98 5.774-16.93 17.325-26.4 27.446-9.47 10.12-17.45 18.8-17.45 18.8l-.01.013c-.66.75-.99 1.69-.99 2.62 0 1.096.46 2.196 1.34 2.977.75.662 1.69.988 2.62.987 1.1.002 2.2-.452 2.98-1.34l.01-.01c0-.002 10.86-12.852 21.71-26.032 5.43-6.59 10.86-13.263 14.93-18.46 2.04-2.597 3.74-4.825 4.94-6.498.6-.837 1.07-1.533 1.41-2.08.16-.276.3-.512.4-.725.05-.107.09-.208.13-.316.03-.11.06-.22.06-.39 0-.08 0-.176-.04-.29-.04-.115-.12-.25-.24-.353l-.49.56-.5.56.45-.5-.64.215c.03.086.1.197.19.284l.45-.5-.64.216.56-.19h-.59l.03.19.56-.19h-.59.39l-.38-.076-.01.075h.39l-.38-.074.08.017-.08-.023v.006l.08.017-.08-.023c0 .01-.05.145-.15.32-.38.707-1.37 2.14-2.77 4.016-4.92 6.595-15.01 18.927-23.86 29.595-4.42 5.336-8.54 10.257-11.55 13.845-1.5 1.794-2.73 3.254-3.58 4.266-.85 1.013-1.33 1.574-1.33 1.576l.57.48-.56-.492c-.48.55-1.17.833-1.86.834-.58 0-1.16-.202-1.63-.614-.55-.486-.83-1.167-.83-1.858 0-.585.2-1.164.61-1.632l-.56-.494.55.505c0-.002.72-.778 1.97-2.14 4.4-4.772 15.44-16.7 25.62-27.433 5.09-5.366 9.97-10.433 13.7-14.153 1.86-1.86 3.44-3.383 4.6-4.43.58-.523 1.06-.928 1.4-1.187.17-.13.31-.222.39-.27l.06-.032-.14-.385v.408c.11-.002.14-.022.14-.022l-.14-.385v.408-.655l-.43.49c.15.138.34.168.43.165v-.655l-.43.49.49-.56" fill="#302F2A"/><path d="M144.18 127.902c-.81-.936-1.37-1.7-1.71-2.33-.34-.632-.47-1.112-.47-1.534 0-.434.13-.853.43-1.377.3-.52.76-1.12 1.36-1.842.25-.296.21-.734-.09-.98-.29-.244-.73-.203-.98.092-.61.74-1.12 1.386-1.5 2.04-.37.65-.61 1.332-.61 2.068 0 .715.22 1.436.64 2.2.42.766 1.03 1.592 1.87 2.57.25.292.69.325.98.075.29-.25.33-.69.08-.98M148.2 115.495c.42-.51.87-.842 1.37-1.06.5-.217 1.07-.32 1.72-.32 1.13 0 2.51.325 4.08.843 4.7 1.54 11 4.76 18.37 4.767.63 0 1.27-.024 1.92-.075.38-.03.67-.364.64-.747-.03-.384-.37-.67-.75-.64-.61.048-1.21.07-1.81.07-4.64.002-8.91-1.365-12.67-2.76-1.89-.698-3.64-1.4-5.27-1.937-1.62-.534-3.12-.91-4.51-.91-.8 0-1.56.125-2.27.43-.71.306-1.35.79-1.9 1.455-.24.298-.2.736.1.98.3.244.73.2.98-.095M144.62 112.402c1.09-1.147 1.57-2.495 1.57-3.883-.01-1.54-.54-3.117-1.31-4.8-1.15-2.525-2.85-5.306-4.31-8.435-1.47-3.127-2.7-6.588-2.94-10.444-.02-.382-.35-.674-.74-.65-.38.025-.67.355-.65.74.35 5.467 2.55 10.102 4.61 14.02 1.03 1.96 2.03 3.742 2.77 5.346.73 1.604 1.18 3.023 1.18 4.223-.01 1.085-.33 2-1.2 2.927-.26.28-.25.72.03.983.28.264.72.25.99-.028" fill="#302F2A"/><path d="M162.53 117.414l2.75 4.27c.2.322.63.415.96.207.32-.207.41-.638.21-.96l-2.75-4.27c-.21-.322-.64-.415-.96-.207-.33.208-.42.638-.21.96M168.73 118.648l3.81-3.874c.27-.274.27-.714-.01-.984-.27-.27-.71-.266-.98.008l-3.81 3.874c-.27.274-.27.714.01.984.27.27.71.265.98-.008M139.96 95.305l2.7-3.067c.26-.288.23-.728-.06-.982-.29-.254-.73-.226-.98.063l-2.7 3.065c-.26.288-.23.728.06.982.29.254.73.226.98-.062M137.95 88.664l-4.03-2.31c-.33-.193-.76-.078-.95.256-.19.333-.07.758.26.95l4.03 2.31c.33.192.76.077.95-.256.19-.333.07-.758-.26-.95M129.37 103.222c-1.44-.2-2.53-.443-3.32-.738-.6-.22-1.03-.468-1.34-.74-.47-.41-.73-.882-.91-1.607-.18-.72-.25-1.675-.28-2.88-.01-.385-.33-.687-.72-.675-.38.01-.68.332-.67.716.03 1.093.08 2.028.25 2.863.12.625.32 1.2.63 1.71.47.776 1.21 1.364 2.21 1.782 1 .423 2.27.71 3.95.948.38.053.74-.212.79-.593.05-.38-.21-.732-.59-.785" fill="#302F2A"/><path d="M147.918 145.327l16.074 13.113-6.607 7.715 27.63.688c1.132.03 1.544 1.51.58 2.115l-15.15 9.513 7.888 4.115-6.502 14.55 18.01-1.993 2.81 7.254 22.23-21.14c.56-.533 1.416-.637 2.085-.24l7.364 4.31.772-26.916 8.137-25.672-8.372 1.643c-.766.152-1.533-.224-1.888-.916l-14.03-27.272-5.037 5.92-16.354-7.818 1.346 15.885-8.803 1.285 11.173 13.97c.705.89-.163 2.152-1.243 1.804l-26.316-8.457 3.7 9.464-19.5 7.08" fill="#EC945A"/><path d="M147.918 145.327l.44-.538 16.073 13.11c.148.12.236.292.257.476.013.19-.045.374-.164.513l-5.662 6.61 26.172.65c.572.006 1.076.28 1.38.668.298.37.44.832.41 1.303-.022.466-.246.952-.667 1.29l-.187.135-14.126 8.87 6.814 3.552c.33.168.46.568.316.9l-6.01 13.44 16.804-1.86c.317-.038.61.15.728.438l2.43 6.29 21.474-20.42.15-.133c.785-.636 1.885-.723 2.768-.206l6.355 3.716.734-25.74.037-.194 7.784-24.553-7.226 1.42c-.9.177-1.808-.165-2.368-.858-.105-.13-.195-.272-.276-.42l-13.545-26.355-4.373 5.135c-.205.24-.546.312-.826.173l-15.25-7.298 1.242 14.675c.028.37-.233.697-.592.747l-7.605 1.112L191.822 135c.34.42.462.95.387 1.414-.073.468-.317.882-.68 1.178-.432.358-1.077.515-1.708.308l-24.923-8.007 3.163 8.102c.066.177.065.367-.013.54-.08.172-.22.302-.398.367l-19.5 7.08-.234-.655.44-.538-.44.537-.243-.65 18.833-6.84-3.444-8.796c-.09-.255-.037-.538.142-.73.187-.198.464-.268.722-.188l26.317 8.456c.186.056.295.016.408-.067.094-.074.165-.193.18-.303.01-.112-.002-.208-.097-.34l-11.172-13.97c-.156-.195-.2-.455-.106-.69.094-.233.298-.394.55-.434l8.155-1.193-1.293-15.23c-.02-.25.092-.49.29-.627.207-.142.474-.163.7-.058l15.864 7.593 4.703-5.522c.152-.178.377-.266.605-.237.23.028.432.166.544.368l14.02 27.278.114.187c.24.297.63.446 1.02.368l8.38-1.647c.235-.043.482.04.653.22.162.184.215.44.137.677l-8.1 25.574-.773 26.822c-.008.246-.146.47-.36.59-.213.117-.473.114-.688-.01l-7.366-4.31c-.384-.22-.855-.183-1.19.088l-.068.06-22.222 21.132c-.167.16-.407.23-.63.175-.232-.047-.415-.21-.5-.425l-2.616-6.757-17.484 1.942c-.247.028-.49-.083-.64-.282-.14-.205-.173-.468-.072-.693l6.238-13.955-7.307-3.812c-.222-.114-.365-.34-.374-.588-.01-.25.118-.49.324-.617l15.15-9.512.056-.04c.108-.09.148-.183.157-.3.008-.117-.035-.248-.106-.337-.075-.093-.16-.15-.33-.155l-27.632-.69c-.273-.002-.508-.166-.617-.41-.108-.247-.068-.532.103-.733l6.145-7.174-15.527-12.658c-.192-.16-.28-.412-.238-.66.035-.243.213-.453.443-.535l.243.65" fill="#302F2A"/><path d="M176.87 150.237c.297-1.747 68.833 8.396 68.833 8.396 1.746.297 2.932 1.968 2.635 3.714-.297 1.747-1.964 2.93-3.71 2.634 0 0-68.055-12.996-67.758-14.743" fill="#F1A751"/><path d="M176.87 150.237l-.734-.127c.036-.242.188-.42.298-.506.166-.13.28-.162.393-.198.22-.062.432-.086.69-.1.998-.057 2.736.04 5.114.244 8.282.723 24.06 2.81 37.79 4.715 13.728 1.905 25.392 3.63 25.393 3.63l.015.003c.985.167 1.833.69 2.418 1.412.69.852 1.025 1.997.833 3.158-.168.986-.693 1.83-1.416 2.415-.855.693-1.995 1.033-3.16.834l-.015-.003c-.002 0-16.528-3.152-33.255-6.567-8.367-1.705-16.786-3.473-23.22-4.95-3.22-.735-5.943-1.396-7.928-1.94-.993-.274-1.796-.52-2.405-.73-.298-.114-.555-.21-.767-.312-.106-.052-.2-.105-.3-.164-.092-.065-.185-.132-.29-.263-.052-.063-.112-.137-.153-.252-.04-.114-.063-.268-.035-.424l.733.127.74.12-.664-.105.633-.235c.03.086.045.216.03.34l-.664-.105.633-.235-.556.204.458-.37.097.167-.556.204.458-.37-.303.245.247-.297.055.052-.303.245.247-.297-.05.063.047-.067.003.005-.05.063.047-.067c.007.008.13.08.318.155.74.31 2.41.8 4.68 1.377 7.974 2.03 23.576 5.263 37.167 7.984 6.79 1.363 13.09 2.595 17.687 3.49 2.295.45 4.17.81 5.467 1.062 1.298.25 2.024.385 2.025.387l-.14.73.124-.735c.72.127 1.433-.088 1.97-.522.45-.366.774-.887.88-1.503.122-.724-.09-1.43-.524-1.966-.368-.455-.888-.78-1.5-.885l.123-.737-.11.74c0-.003-1.048-.153-2.878-.425-6.422-.94-22.508-3.262-37.174-5.196-7.33-.967-14.312-1.834-19.552-2.377-2.616-.274-4.802-.464-6.362-.547-.78-.042-1.408-.054-1.835-.042-.213.007-.38.023-.472.037l-.067.012-.133-.388.256.317c-.086.067-.122.07-.122.07l-.133-.387.256.317-.412-.51.643.11c-.03.203-.158.345-.23.4l-.412-.51.643.11-.733-.127" fill="#302F2A"/><path d="M224.168 166.617c.04-1.238-.005-2.184-.137-2.887-.132-.705-.334-1.16-.6-1.488-.272-.337-.637-.58-1.2-.8-.56-.215-1.296-.393-2.217-.576-.38-.073-.625-.438-.546-.818.07-.372.44-.617.82-.546.94.192 1.742.373 2.45.642.695.272 1.31.65 1.774 1.223.45.556.734 1.255.888 2.113.156.86.202 1.885.164 3.174-.01.384-.33.686-.714.675-.383-.013-.69-.33-.68-.713M213.236 159.504c-.648-.132-1.206-.106-1.73.04-.527.145-1.034.424-1.54.833-.878.71-1.746 1.832-2.64 3.222-2.683 4.155-5.552 10.622-11.276 15.265-.49.396-1.002.78-1.54 1.15-.313.215-.75.138-.967-.178-.218-.317-.134-.754.18-.97.505-.346.985-.706 1.452-1.083 3.606-2.92 6.064-6.67 8.11-10.12 1.028-1.73 1.946-3.38 2.875-4.82.923-1.436 1.853-2.67 2.932-3.548.62-.503 1.29-.883 2.036-1.092.743-.21 1.546-.236 2.39-.066.375.08.62.445.54.824-.08.378-.44.615-.822.542M214.072 154.848c-1.57-.206-2.79-.95-3.664-2.03-.96-1.2-1.54-2.76-2.002-4.555-.695-2.685-1.124-5.916-1.96-9.266-.824-3.356-2.046-6.82-4.286-9.967-.226-.31-.153-.745.166-.97.31-.22.743-.147.97.164 3.168 4.47 4.375 9.456 5.24 13.798.433 2.17.778 4.185 1.212 5.897.442 1.705.985 3.09 1.74 4.023.692.838 1.516 1.348 2.776 1.52.377.054.647.403.595.784-.052.38-.403.648-.788.6" fill="#302F2A"/><path d="M203.307 170.014l.55 5.048c.048.377-.228.72-.615.766-.38.04-.72-.24-.77-.615l-.548-5.048c-.04-.383.236-.726.615-.766.387-.047.727.23.767.614M199.266 174.875l-5.4-.613c-.38-.043-.658-.385-.61-.77.04-.38.384-.655.766-.612l5.4.613c.38.043.658.385.61.77-.04.38-.385.654-.766.612M206.934 138.628l-4.028-.684c-.384-.06-.637-.42-.572-.8.066-.38.425-.636.8-.57l4.03.685c.383.06.636.42.57.8-.065.38-.424.635-.8.568M204.317 132.202l1.677-4.332c.136-.357.542-.538.9-.398s.532.545.395.9l-1.677 4.334c-.137.356-.543.537-.9.398-.358-.14-.532-.545-.396-.902M220.146 138.116c.993-1.062 1.688-1.936 2.116-2.662.327-.55.506-1.012.575-1.42.108-.613.013-1.144-.303-1.82-.314-.673-.86-1.46-1.596-2.416-.234-.304-.175-.74.135-.976.303-.23.738-.17.972.134.664.87 1.214 1.627 1.607 2.383.3.56.505 1.13.587 1.724.12.898-.084 1.82-.598 2.775-.51.957-1.317 1.98-2.473 3.22-.263.282-.71.302-.988.038s-.298-.7-.036-.982" fill="#302F2A"/><path d="M302.603 131.83l-20.01 13.28 6.74 9.642-31.916-2.34c-1.31-.098-1.947 1.56-.908 2.37l16.377 12.678-9.554 3.846 5.846 17.505-20.53-4.348-4.06 8.043-23.212-26.876c-.59-.682-1.558-.885-2.377-.507l-8.974 4.126 2.16-31.097-6.467-30.503 9.462 2.847c.863.26 1.793-.086 2.28-.84L236.71 79.81l5.14 7.4 19.724-7.154-3.353 18.15 9.997 2.477-14.454 14.825c-.916.946-.054 2.5 1.23 2.23l31.28-6.77-5.335 10.488 21.665 10.375" fill="#E57258"/><path d="M302.603 131.83l-.413-.622-20.01 13.278c-.17.112-.284.28-.32.484-.04.203.005.4.12.562l5.84 8.353-30.347-2.218c-.106-.013-.21-.015-.314-.008-.602.04-1.12.348-1.447.762-.33.414-.5.927-.463 1.465.034.54.306 1.102.802 1.478l15.35 11.888-8.348 3.36c-.366.147-.555.55-.43.923l5.434 16.27-19.253-4.076c-.33-.067-.668.097-.82.398l-3.558 7.045-22.484-26.025c-.584-.68-1.438-1.012-2.29-.952-.326.022-.653.105-.965.248l-7.83 3.604 2.073-29.847-.014-.208-6.206-29.27 8.256 2.48c.33.11.663.136.99.113.852-.06 1.65-.507 2.135-1.262l18.643-28.9 4.504 6.48c.193.278.55.393.868.28l18.498-6.716-3.117 16.868c-.072.386.172.76.555.864l8.734 2.165-13.545 13.9c-.44.44-.63 1.035-.59 1.574.04.537.277 1.022.663 1.386.38.364.937.596 1.538.554.103-.007.206-.025.308-.052l29.747-6.42-4.622 9.084c-.092.177-.107.388-.042.574.066.196.203.347.386.435l21.664 10.365.323-.664-.413-.622.413.623.322-.674-20.975-10.04 4.987-9.803c.132-.26.102-.568-.073-.797-.176-.228-.468-.338-.75-.268l-31.28 6.758-.097.007c-.175.013-.298-.04-.41-.14-.113-.104-.188-.26-.197-.41-.007-.15.025-.28.168-.43l14.453-14.836c.187-.193.258-.47.185-.724-.073-.256-.28-.452-.538-.514l-9.315-2.317 3.226-17.457c.05-.265-.048-.528-.252-.705-.204-.175-.486-.225-.737-.128l-19.185 6.956-4.812-6.922c-.142-.2-.376-.324-.625-.317-.25-.003-.48.123-.615.333l-19.246 29.845c-.223.347-.59.553-.984.58-.15.01-.305-.008-.457-.048l-9.463-2.847c-.252-.072-.525-.013-.72.17-.194.175-.28.44-.224.698l6.444 30.406-2.152 30.995c-.02.263.103.515.32.67.218.146.496.166.737.06l8.974-4.137c.144-.06.293-.1.444-.11.393-.03.786.124 1.054.436l23.214 26.876c.162.19.407.282.655.244.25-.027.464-.172.577-.4l3.8-7.524 19.967 4.217c.262.062.534-.027.712-.23.177-.203.236-.477.15-.732l-5.623-16.838 8.903-3.58c.247-.107.424-.33.46-.593.037-.264-.07-.527-.283-.693l-16.377-12.68c-.162-.128-.21-.254-.227-.404-.01-.14.04-.313.137-.43.098-.117.212-.186.387-.198l.1-.007 31.915 2.35c.286.02.56-.13.702-.38.142-.25.13-.56-.037-.8l-6.303-9.012 19.373-12.863c.225-.146.35-.405.333-.665-.02-.27-.18-.508-.423-.622l-.322.675" fill="#302F2A"/><path d="M268.685 134.202c-.143-2.045-80.26 1.873-80.26 1.873-2.044.143-3.6 1.936-3.458 3.98.143 2.046 1.933 3.595 3.978 3.452 0 0 79.883-7.26 79.74-9.305" fill="#EC945A"/><path d="M268.685 134.202l.694-.048c-.012-.16-.076-.306-.145-.4-.146-.202-.28-.262-.395-.324-.226-.095-.446-.15-.73-.2-1.078-.185-3.05-.268-5.782-.307-19.035-.233-73.927 2.452-73.936 2.453h-.015c-2.43.18-4.27 2.295-4.103 4.73.17 2.423 2.29 4.27 4.72 4.1h.015c0-.002 19.972-1.82 39.93-3.896 9.98-1.03 19.954-2.138 27.435-3.102 3.74-.492 6.855-.94 9.048-1.334 1.098-.207 1.962-.388 2.58-.562.313-.09.56-.18.777-.284.11-.058.214-.116.333-.224.058-.054.122-.13.18-.233.054-.113.098-.257.086-.416l-1.39.097.6-.04-.535-.284c-.04.072-.075.195-.065.325l.6-.04-.535-.284.356.185-.224-.344c.002 0-.05.013-.13.16l.355.185-.224-.344c-.003.01-.148.08-.362.146-.854.27-2.805.647-5.468 1.054-9.348 1.435-27.73 3.402-43.758 5.004-8.016.8-15.444 1.51-20.87 2.02-2.712.26-4.924.466-6.457.613-1.532.137-2.385.217-2.388.217l.063.687-.048-.688c-.83.057-1.608-.23-2.198-.74-.59-.52-.98-1.244-1.04-2.072-.057-.838.23-1.61.74-2.197.513-.596 1.243-.988 2.074-1.046l-.048-.69.033.69c.003 0 1.25-.057 3.44-.16 7.667-.365 26.838-1.235 44.103-1.8 8.632-.273 16.788-.483 22.784-.5 2.998-.01 5.458.028 7.15.12.846.042 1.505.106 1.916.177.204.037.35.077.39.094h.008l.13-.28-.21.225.08.054.13-.28-.21.225.402-.43-.582.04c.014.2.124.333.18.39l.402-.43-.582.04.695-.048" fill="#302F2A"/><path d="M225.722 140.645l.182-.013c.89-.062 1.624.107 2.31.47 1.198.628 2.263 1.937 3.29 3.74 1.546 2.71 2.995 6.457 5.014 10.345 2.022 3.9 4.626 7.937 8.54 11.242.29.24.73.208.978-.09.25-.288.21-.726-.083-.976-5.66-4.767-8.518-11.273-10.97-16.625-1.23-2.672-2.35-5.05-3.74-6.797-.697-.874-1.47-1.59-2.375-2.07-.902-.488-1.934-.716-3.06-.627l-.23.016c-.383.036-.66.387-.62.765.04.378.382.655.764.618M225.292 135.182c.09-.007.18-.003.268-.01 1.19-.082 2.23-.446 3.104-1.038 1.536-1.04 2.546-2.714 3.38-4.717 1.247-3.015 2.117-6.855 3.483-10.85 1.364-3.995 3.21-8.133 6.34-11.74.252-.29.22-.728-.068-.978-.29-.252-.73-.22-.982.067-5.03 5.795-6.84 12.79-8.488 18.307-.82 2.764-1.606 5.155-2.66 6.822-.525.83-1.108 1.48-1.784 1.93-.677.458-1.45.732-2.423.8l-.22.016c-.384.016-.684.338-.67.718.014.39.335.688.72.672" fill="#302F2A"/><path d="M235.45 152.826l-.58 7.028c-.032.373.254.714.637.747.382.034.718-.25.75-.633l.58-7.027c.03-.384-.254-.725-.637-.748-.383-.033-.72.25-.75.634M239.224 159.31l7.093.535c.383.023.717-.26.746-.644.03-.382-.258-.712-.64-.746l-7.095-.536c-.382-.024-.716.26-.746.643-.03.384.258.715.642.75M235.216 118.65l5.032-1.706c.365-.126.56-.52.437-.883-.124-.36-.518-.554-.883-.438l-5.032 1.705c-.364.126-.56.52-.437.883.124.362.518.555.883.44M238.998 110.335l-1.438-5.172c-.103-.374-.486-.588-.857-.492-.37.107-.586.493-.485.857l1.44 5.182c.104.373.486.587.857.49.37-.105.587-.49.483-.865" fill="#302F2A"/><path d="M172.32 46.923l22.22 4.646 2.01-10.937 19.61 23.028c.81.945 2.35.27 2.2-.962l-2.34-19.436 8.93 3.875 7.89-15.554 10.71 16.695 8.11-2.606-2.67 33.457c-.07.848.43 1.64 1.23 1.94l8.74 3.295-22.36 19.196-16.23 24.6-4.37-8.255c-.4-.753-1.25-1.15-2.08-.977l-32.85 6.86 1.56-8.368-17.91-8.52 14.44-9.79-4.97-8.373 19.57-.123c1.24-.008 1.72-1.622.68-2.3l-25.31-16.56 10.59-3.372-7.4-21.46" fill="#F1A751"/><path d="M172.32 46.923l-.16.73 22.22 4.647c.2.04.41 0 .57-.11.17-.114.29-.287.32-.486l1.73-9.392 18.59 21.833c.4.474.98.71 1.51.706.52 0 1.01-.194 1.38-.54.38-.343.64-.864.64-1.448l-.02-.25-2.19-18.147 7.74 3.357c.36.157.79.005.96-.347l7.31-14.392 10 15.598c.18.286.54.412.86.31l7.04-2.266-2.58 32.346-.01.212c0 1.1.68 2.093 1.72 2.486l7.57 2.85-21.41 18.376-.14.156-15.53 23.547-3.78-7.14c-.47-.884-1.38-1.416-2.35-1.416-.18 0-.36.02-.54.058L182 124.83l1.36-7.273c.07-.333-.1-.666-.41-.812l-16.73-7.96 13.36-9.058c.32-.222.42-.66.22-1l-4.31-7.252 18.28-.115c.59 0 1.12-.26 1.46-.64.34-.38.53-.87.53-1.372 0-.61-.3-1.27-.91-1.66l-24-15.7 9.1-2.894c.19-.062.35-.196.44-.377.09-.18.11-.387.04-.578l-7.41-21.46-.7.243-.16.73.16-.73-.71.243 7.16 20.737-9.87 3.14c-.27.087-.47.325-.51.61-.04.286.09.568.33.726l25.31 16.557c.18.124.23.247.23.41.01.133-.05.276-.14.368-.08.09-.18.148-.36.152l-19.58.123c-.26.002-.51.147-.64.38-.13.232-.13.518.01.748l4.61 7.767-13.86 9.398c-.22.15-.35.408-.32.674.02.266.18.503.42.618l17.39 8.272-1.46 7.805c-.04.245.03.496.21.67.18.175.43.248.68.197l32.85-6.86.24-.026c.43 0 .83.233 1.03.62l4.37 8.255c.12.232.36.383.62.395.27.013.52-.114.66-.334l16.17-24.51 22.28-19.13c.2-.17.3-.435.25-.695-.04-.26-.22-.476-.47-.57l-8.74-3.294c-.46-.17-.75-.608-.75-1.088v-.093l2.67-33.46c.02-.247-.08-.488-.28-.643-.2-.155-.45-.202-.69-.126l-7.56 2.432-10.4-16.212c-.14-.225-.4-.356-.66-.343-.27.013-.51.17-.63.408l-7.58 14.928-8.29-3.595c-.24-.107-.53-.073-.74.086-.21.16-.33.423-.29.688l2.34 19.435v.075c0 .158-.05.257-.15.35-.09.09-.24.148-.37.146-.13-.004-.24-.04-.37-.182l-19.61-23.028c-.19-.22-.49-.31-.76-.237-.28.076-.49.304-.55.587l-1.87 10.185-21.47-4.49c-.26-.055-.54.035-.71.237-.18.2-.24.482-.15.736l.71-.243" fill="#302F2A"/><path d="M196.43 68.17c-1.28 1.454 54.55 52.755 54.55 52.755 1.45 1.28 3.69 1.14 4.97-.314 1.28-1.453 1.14-3.69-.32-4.972 0 0-57.92-48.922-59.2-47.468" fill="#E57258"/><path d="M196.43 68.17l-.56-.496c-.16.186-.21.416-.21.564.01.205.05.327.1.442.09.22.22.41.38.644.63.88 1.92 2.29 3.72 4.167 6.32 6.546 18.96 18.53 30.04 28.894 11.07 10.36 20.57 19.09 20.57 19.09l.01.01c.81.713 1.82 1.063 2.82 1.063 1.18 0 2.37-.488 3.21-1.443.71-.808 1.06-1.82 1.06-2.82 0-1.18-.49-2.365-1.44-3.206l-.01-.01c-.01-.002-14.07-11.878-28.49-23.756-7.21-5.94-14.51-11.88-20.2-16.34-2.84-2.23-5.28-4.09-7.11-5.4-.91-.656-1.67-1.173-2.27-1.538-.3-.182-.56-.327-.79-.435-.11-.055-.22-.1-.33-.138-.12-.036-.24-.07-.41-.07-.08 0-.18.008-.29.047-.12.038-.26.118-.36.24l.56.49-.56-.496.56.496.56.488-.5-.433.22.627c.08-.028.2-.092.28-.194l-.5-.433.22.627-.19-.545v.577l.19-.032-.19-.545v.577-.35l-.07.345.07.004v-.35l-.07.345.01-.026-.01.024.01-.024-.01.024c.02.004.17.062.37.17.78.415 2.35 1.498 4.4 3.034 7.22 5.387 20.72 16.427 32.39 26.11 5.84 4.842 11.22 9.346 15.15 12.64l4.67 3.923c1.11.932 1.72 1.45 1.72 1.453l.48-.57-.49.56c.62.546.94 1.31.94 2.086 0 .657-.23 1.308-.69 1.833-.55.62-1.31.936-2.09.937-.66 0-1.31-.227-1.83-.69l-.49.56.5-.55s-.85-.782-2.34-2.158c-5.22-4.815-18.28-16.89-30.02-28.034-5.88-5.572-11.42-10.913-15.49-14.992-2.04-2.04-3.7-3.765-4.85-5.037-.57-.635-1.02-1.16-1.3-1.537-.15-.188-.25-.34-.3-.435l-.04-.08-.36.138h.37c0-.11-.02-.136-.01-.137l-.36.138h.37-.64l.48.428c.14-.154.17-.338.16-.428h-.64l.48.428v-.008l-.56-.488" fill="#302F2A"/><path d="M242.98 97.167c-1.03.882-1.87 1.495-2.56 1.873-.7.38-1.24.522-1.71.522-.49 0-.96-.148-1.54-.48-.58-.327-1.24-.84-2.03-1.495-.3-.245-.73-.204-.98.092-.24.295-.2.733.09.978.81.67 1.52 1.225 2.22 1.633.71.407 1.44.665 2.24.663.76 0 1.54-.24 2.37-.69.83-.455 1.73-1.124 2.8-2.04.29-.25.33-.69.08-.98-.25-.293-.69-.326-.98-.076M229.31 92.766c-.56-.467-.93-.967-1.17-1.527-.25-.56-.36-1.188-.36-1.906 0-1.254.36-2.77.93-4.485 1.69-5.157 5.2-12.037 5.21-20.083 0-.69-.03-1.39-.08-2.098-.03-.384-.37-.67-.75-.64-.38.03-.67.364-.64.748.05.67.08 1.332.08 1.99 0 5.09-1.5 9.765-3.03 13.888-.76 2.06-1.53 3.982-2.12 5.758-.58 1.777-.99 3.408-.99 4.92 0 .863.14 1.69.47 2.457.33.767.85 1.46 1.57 2.05.3.245.74.202.98-.095.24-.296.2-.735-.1-.98M225.93 96.683c-1.25-1.185-2.7-1.71-4.21-1.7-1.66.003-3.38.585-5.22 1.42-2.76 1.26-5.8 3.118-9.23 4.722-3.43 1.605-7.22 2.954-11.45 3.22-.39.025-.68.356-.65.74.02.383.35.674.73.65 5.97-.38 11.04-2.778 15.32-5.036 2.14-1.13 4.1-2.228 5.85-3.03 1.76-.805 3.32-1.3 4.65-1.297 1.21.008 2.23.365 3.25 1.322.28.264.72.25.99-.028.26-.28.25-.72-.03-.984" fill="#302F2A"/><path d="M231.23 77.607l4.9-3.663c.31-.23.37-.666.14-.974-.23-.308-.66-.37-.97-.14l-4.9 3.663c-.31.23-.37.666-.14.974.23.307.67.37.97.14M233.12 68.834l-4.73-2.814c-.33-.196-.76-.088-.95.242-.2.33-.09.758.24.954l4.73 2.814c.33.196.76.088.96-.242.19-.33.08-.758-.25-.954M206.38 102.11l-2.42-3.186c-.24-.306-.67-.365-.98-.133-.3.233-.36.67-.13.976l2.42 3.184c.23.306.67.366.97.134.31-.233.37-.67.14-.975M200.05 103.963l-2.53 4.408c-.19.334-.07.76.26.95.33.192.76.076.95-.257l2.53-4.407c.19-.333.08-.758-.26-.95-.33-.19-.76-.076-.95.257M219.99 85.118c-.95-.773-1.53-1.777-1.87-2.842-.35-1.06-.45-2.173-.45-3.086 0-.593.04-1.1.09-1.458.02-.178.04-.318.05-.41l.02-.106.01-.028c.07-.377-.17-.744-.55-.82-.37-.076-.74.168-.82.545 0 .03-.19.96-.19 2.277 0 1.015.11 2.262.52 3.516.4 1.25 1.11 2.516 2.31 3.492.3.242.74.197.98-.1.25-.3.2-.738-.1-.98" fill="#302F2A"/><path d="M73.16 57.734l9.66 20.54 9.944-4.975-6.59 29.52c-.266 1.214 1.2 2.038 2.094 1.176l14.114-13.565 2.28 9.465 17.17-3.06-6.888 18.6 6.962 4.91-28.327 18.002c-.72.455-1.052 1.33-.81 2.15l2.627 8.964-28.787-6.304-29.413 1.842 3.963-8.458c.36-.773.167-1.69-.472-2.25l-25.25-22.106 7.624-3.79-3.974-19.43 16.51 5.64 3.695-9.01 11.875 15.556c.753.986 2.33.398 2.247-.84l-2.007-30.18 9.066 6.428L73.16 57.734" fill="#F1A751"/><path d="M73.16 57.734l-.68.31 9.66 20.544c.088.184.246.328.432.388.193.068.403.06.58-.036l8.542-4.27-6.25 27.985c-.137.605.023 1.21.346 1.63.314.416.763.69 1.262.777.503.098 1.076-.008 1.542-.36l.188-.167 13.175-12.67 1.977 8.202c.09.382.47.634.854.558l15.894-2.823-6.44 17.373c-.12.316-.003.68.272.873l6.046 4.26-27.385 17.405-.176.12c-.878.66-1.263 1.802-.95 2.87l2.278 7.76-27.56-6.04-.21-.018-28.15 1.768 3.428-7.316c.422-.907.3-1.954-.284-2.73-.11-.142-.232-.275-.37-.396l-24.417-21.38 6.627-3.29c.308-.145.47-.48.4-.817l-3.71-18.15 15.275 5.217c.37.122.78-.062.93-.426l3.198-7.807 11.093 14.53c.356.47.88.74 1.39.78.51.043 1.013-.1 1.415-.4.488-.37.834-1.005.778-1.727l-1.905-28.615 7.79 5.525c.163.115.366.162.565.125.198-.037.375-.145.485-.316l12.68-18.834-.616-.412-.68.31.68-.31-.623-.42L60.285 75.51l-8.448-5.992c-.232-.163-.542-.18-.794-.04-.252.14-.4.414-.38.7l2.007 30.18c.01.217-.06.33-.19.43-.1.087-.25.125-.377.11-.12-.01-.227-.056-.338-.197L39.883 85.14c-.158-.207-.424-.32-.688-.284-.264.037-.493.21-.592.46l-3.43 8.355-15.845-5.414c-.252-.086-.537-.034-.73.15-.202.176-.295.447-.242.707l3.86 18.867-7.113 3.53c-.22.117-.378.323-.408.572-.032.25.06.493.25.662l25.25 22.106.164.177c.258.343.313.803.124 1.196l-3.963 8.458c-.113.237-.09.52.058.734.152.224.404.347.664.326l29.307-1.837 28.684 6.282c.258.056.53-.023.706-.22.184-.188.248-.462.172-.717l-2.628-8.963c-.14-.47.035-.966.418-1.255l.074-.056 28.328-18.003c.21-.132.342-.357.346-.61.003-.253-.11-.48-.315-.627l-6.49-4.575 6.687-18.062c.096-.247.044-.534-.123-.734-.174-.207-.444-.305-.706-.257l-16.484 2.93-2.118-8.784c-.06-.255-.26-.466-.514-.538-.253-.072-.536-.01-.724.182L87.75 103.46l-.06.044c-.125.095-.234.115-.37.092-.125-.018-.26-.104-.338-.21-.075-.105-.113-.214-.077-.404l6.59-29.52c.06-.283-.047-.578-.27-.75-.227-.178-.536-.208-.798-.086l-9.26 4.636-9.334-19.848c-.113-.24-.353-.41-.617-.425-.27-.023-.53.098-.68.323l.623.42" fill="#302F2A"/><path d="M70.7 89.776c-1.932-.148-9.303 75.314-9.303 75.314-.15 1.93 1.31 3.632 3.24 3.78 1.933.147 3.636-1.31 3.78-3.248 0 0 4.214-75.7 2.283-75.846" fill="#E57258"/><path d="M70.7 89.776l.06-.746c-.246-.016-.46.082-.578.172-.158.13-.23.236-.293.345-.122.205-.197.423-.286.69-.323 1.034-.674 2.913-1.09 5.48-1.423 8.986-3.388 26.294-4.996 41.38-1.612 15.075-2.867 27.916-2.867 27.916v.015c-.083 1.075.246 2.092.847 2.89.71.944 1.817 1.6 3.085 1.696 1.072.08 2.09-.248 2.89-.85.943-.71 1.594-1.815 1.694-3.08l.002-.015c-.005-.01 1.018-18.385 1.826-37.05.405-9.333.756-18.738.893-25.966.072-3.61.09-6.678.034-8.928-.023-1.122-.067-2.04-.137-2.74-.035-.348-.076-.643-.128-.89-.023-.122-.052-.237-.09-.347-.042-.12-.088-.234-.19-.37-.048-.065-.115-.14-.212-.204-.103-.072-.25-.136-.41-.142l-.053.742.06-.746-.06.746-.053.74.045-.66-.368.554c.07.047.193.104.323.106l.045-.66-.368.554.32-.48-.46.347.14.133.32-.48-.46.347.28-.21-.32.15.04.06.28-.21-.32.15.027-.006-.024.008.025-.007-.024.008c.01.018.053.173.088.397.137.873.217 2.78.224 5.34.043 9.008-.65 26.434-1.36 41.58-.352 7.58-.71 14.587-.977 19.708-.134 2.556-.245 4.643-.32 6.09-.078 1.448-.125 2.247-.127 2.248l.744.042-.742-.055c-.063.824-.48 1.54-1.1 2.007-.525.395-1.183.603-1.88.552-.825-.067-1.535-.483-2.005-1.106-.397-.527-.607-1.182-.55-1.876l-.743-.054.74.068.316-3.168c.704-7.067 2.487-24.763 4.322-40.846.912-8.05 1.843-15.688 2.65-21.394.403-2.856.78-5.22 1.105-6.904.164-.838.312-1.512.445-1.963.06-.233.122-.405.167-.502l.04-.08-.326-.204.223.295c.087-.065.095-.096.102-.09l-.326-.204.223.295-.386-.51-.053.64c.208.02.373-.066.44-.13l-.386-.51-.053.64.007-.004.053-.74" fill="#302F2A"/><path d="M75.556 144.403c-1.324-.292-2.32-.594-3.036-.917-.724-.33-1.163-.677-1.446-1.052-.294-.392-.46-.856-.545-1.518-.088-.66-.076-1.496-.028-2.522.016-.387-.276-.705-.663-.727-.382-.014-.707.282-.728.66-.047 1.05-.064 1.952.03 2.757.104.81.338 1.55.82 2.187.457.61 1.118 1.087 1.98 1.478.86.39 1.937.706 3.312 1.01.375.08.75-.152.832-.527.083-.375-.156-.746-.53-.827M70.844 130.837c.036-.728.213-1.325.516-1.853.295-.537.73-1.002 1.304-1.434 1.002-.755 2.43-1.38 4.142-1.957 5.135-1.753 12.742-3.09 19.173-7.925.55-.415 1.092-.86 1.627-1.326.288-.255.31-.698.06-.984-.254-.285-.695-.316-.984-.06-.504.442-1.015.865-1.54 1.26-4.066 3.064-8.702 4.68-12.916 5.94-2.103.632-4.1 1.174-5.874 1.77-1.768.607-3.318 1.262-4.525 2.17-.69.52-1.267 1.13-1.68 1.855-.413.725-.654 1.558-.692 2.488-.014.388.285.713.666.726.38.013.708-.283.722-.67M65.682 130.495c.194-1.712-.26-3.185-1.175-4.386-1.003-1.324-2.503-2.348-4.278-3.314-2.667-1.447-5.98-2.756-9.326-4.53-3.346-1.774-6.704-3.99-9.463-7.206-.253-.297-.692-.33-.98-.075-.294.247-.328.685-.08.974 3.895 4.54 8.863 7.145 13.242 9.204 2.19 1.03 4.246 1.934 5.94 2.85 1.7.92 3.036 1.868 3.834 2.932.72.97 1.05 2 .9 3.39-.043.384.233.727.618.775.38.04.725-.233.768-.615" fill="#302F2A"/><path d="M84.106 123.247l5.874 1.71c.37.108.755-.106.863-.475.107-.37-.102-.75-.472-.86l-5.874-1.708c-.37-.11-.754.105-.862.474-.107.37.108.758.472.86M92.25 119.477l-.6-5.47c-.04-.382-.386-.66-.764-.614-.385.04-.66.384-.618.766l.6 5.47c.042.38.387.66.77.62.38-.047.654-.39.612-.773M49.583 118.147l1.087-3.85c.1-.375-.112-.754-.483-.862-.366-.1-.75.115-.857.483l-1.087 3.85c-.106.366.11.754.477.854.373.107.757-.107.863-.475M44.293 114.207l-5.043.633c-.38.048-.648.4-.602.778.046.38.397.653.777.604l5.042-.63c.38-.05.654-.394.603-.78-.046-.38-.397-.653-.777-.605M71.343 118.79c.046-1.223.5-2.29 1.144-3.203.637-.918 1.465-1.667 2.194-2.216.475-.356.905-.63 1.22-.805l.358-.207.096-.048.028-.01c.344-.17.492-.582.324-.93-.162-.342-.58-.49-.928-.328-.025.02-.88.425-1.933 1.218-.81.61-1.74 1.45-2.495 2.532-.758 1.07-1.342 2.4-1.4 3.946-.012.385.29.71.67.722.39.02.71-.284.723-.67" fill="#302F2A"/><path d="M138.84.952l11.85 20.888 10.09-6.052-4.56 31.675c-.19 1.3 1.42 2.05 2.3 1.07l13.79-15.452 3.17 9.8 17.87-4.61-5.77 20.174 7.74 4.612-28.43 21.28c-.72.54-.99 1.493-.67 2.336l3.49 9.24-30.87-4.322-30.88 4.323 3.5-9.24c.32-.844.04-1.796-.68-2.336l-28.43-21.28 7.74-4.613-5.76-20.175 17.87 4.61 3.17-9.8 13.78 15.454c.88.98 2.49.228 2.31-1.07l-4.57-31.676 10.09 6.052L138.84.952" fill="#E57258"/><path d="M138.84.952l-.65.368 11.85 20.89c.1.175.26.3.46.352.2.052.4.022.57-.082l8.74-5.244-4.33 30.12c-.02.104-.03.208-.03.312 0 .603.27 1.14.66 1.496.39.36.89.562 1.43.564.54.004 1.12-.228 1.53-.697L172 34.55l2.77 8.56c.12.375.51.592.89.493l16.61-4.286-5.41 18.922c-.09.324.05.672.34.845l6.78 4.04-27.53 20.614c-.72.534-1.11 1.363-1.11 2.216 0 .328.06.66.18.98L168.57 95l-29.63-4.15h-.21L109.1 95l3.05-8.064c.13-.32.18-.652.18-.98 0-.854-.39-1.682-1.11-2.217L83.69 63.125l6.78-4.04c.29-.174.43-.522.34-.847L85.4 39.316l16.61 4.286c.38.1.77-.118.9-.493l2.77-8.56 12.92 14.48c.41.47.99.702 1.53.698.54-.002 1.04-.205 1.43-.564.39-.355.66-.893.66-1.496 0-.102-.01-.206-.03-.31l-4.33-30.122 8.74 5.244c.17.104.38.134.57.082.2-.05.36-.177.46-.353l11.85-20.89-.64-.368-.65.368.65-.368-.65-.37-11.48 20.225-9.43-5.66c-.25-.148-.56-.14-.8.02-.24.158-.37.442-.32.727l4.56 31.675v.098c0 .175-.06.294-.17.4-.11.104-.27.168-.42.167-.15-.004-.28-.045-.42-.198l-13.79-15.453c-.18-.2-.45-.29-.71-.234-.26.055-.47.247-.55.5l-2.96 9.132-17.19-4.436c-.26-.067-.53.01-.72.202-.19.19-.26.47-.18.726l5.6 19.623-7.24 4.317c-.21.128-.35.353-.36.602-.02.25.09.488.29.637l28.43 21.28c.33.247.51.63.51 1.023 0 .15-.03.303-.08.452l-3.5 9.24c-.09.248-.05.524.12.73.16.207.42.31.68.274l30.78-4.31 30.77 4.31c.26.037.52-.067.69-.273.16-.208.2-.484.11-.73l-3.5-9.243c-.05-.148-.08-.3-.08-.45 0-.395.18-.776.51-1.022l28.43-21.282c.2-.15.31-.387.29-.637-.01-.25-.14-.474-.36-.602l-7.24-4.317 5.6-19.623c.08-.257.01-.535-.18-.726-.19-.19-.46-.27-.72-.202l-17.19 4.436-2.95-9.13c-.09-.255-.3-.447-.56-.502-.26-.055-.53.035-.71.234l-13.79 15.453c-.14.153-.27.193-.42.198-.14 0-.31-.063-.42-.167-.11-.106-.17-.225-.17-.4v-.1l4.57-31.674c.04-.285-.09-.57-.33-.728-.24-.16-.55-.167-.8-.018l-9.43 5.66L139.48.582c-.13-.234-.38-.378-.64-.378-.27 0-.52.144-.65.378l.65.37" fill="#302F2A"/><path d="M138.84 34.953c-2.05 0-3.73 80.194-3.73 80.194 0 2.05 1.68 3.728 3.73 3.728s3.72-1.678 3.72-3.728c0 0-1.67-80.194-3.72-80.194" fill="#EC945A"/><path d="M138.84 34.953v-.696c-.16 0-.31.053-.41.116-.21.13-.28.26-.35.37-.11.22-.18.436-.25.716-.26 1.06-.48 3.023-.71 5.745-1.56 18.972-2.71 73.918-2.71 73.927v.015c.01 2.437 1.99 4.42 4.43 4.423 2.43-.002 4.42-1.986 4.42-4.423v-.015s-.42-20.05-1.1-40.105c-.33-10.028-.74-20.055-1.18-27.585-.23-3.765-.46-6.904-.7-9.12-.13-1.11-.25-1.983-.38-2.613-.07-.318-.14-.57-.23-.795-.05-.113-.1-.22-.2-.347-.05-.062-.12-.13-.22-.195-.11-.063-.25-.117-.41-.116v1.392-.603l-.32.515c.07.044.19.088.32.087v-.603l-.32.515.21-.342-.36.2c0-.002.01.05.15.142l.21-.342-.36.2c.01.004.07.153.12.37.21.872.45 2.844.67 5.53.78 9.425 1.46 27.9 1.94 44 .24 8.052.43 15.512.56 20.96.07 2.724.12 4.944.16 6.484.03 1.54.05 2.395.05 2.398l.69-.015h-.69c0 .833-.34 1.588-.89 2.14-.56.552-1.31.892-2.14.892-.84 0-1.59-.34-2.14-.892-.56-.553-.9-1.308-.9-2.14h-.69l.69.014.08-3.445c.17-7.673.64-26.858 1.28-44.12.33-8.63.69-16.78 1.09-22.764.2-2.99.41-5.442.62-7.125.1-.84.21-1.493.31-1.898.05-.2.1-.343.12-.382v-.008l-.27-.15.21.227.06-.077-.27-.15.21.227-.4-.43v.582c.2 0 .34-.1.4-.153l-.4-.43v.582-.697" fill="#302F2A"/><path d="M142.27 78.26v-.182c0-.893.22-1.613.63-2.273.71-1.15 2.09-2.12 3.96-3.02 2.81-1.353 6.65-2.537 10.67-4.28 4.03-1.745 8.24-4.06 11.81-7.734.26-.274.26-.715-.02-.982-.27-.268-.71-.26-.98.015-5.15 5.313-11.84 7.71-17.35 9.783-2.75 1.04-5.2 1.992-7.04 3.258-.92.634-1.69 1.355-2.23 2.224-.55.866-.85 1.88-.84 3.01v.23c.01.384.34.685.72.67.38-.012.68-.334.67-.718M136.79 78.308c0-.09.01-.18.01-.268 0-1.193-.29-2.255-.82-3.17-.93-1.604-2.53-2.728-4.47-3.7-2.92-1.454-6.69-2.59-10.58-4.23-3.89-1.64-7.89-3.77-11.27-7.145-.27-.27-.71-.27-.98 0-.27.272-.27.712 0 .984 5.43 5.422 12.28 7.714 17.67 9.743 2.7 1.01 5.03 1.962 6.62 3.13.79.58 1.4 1.208 1.8 1.914.41.707.63 1.497.63 2.473v.22c-.01.384.29.706.67.72.39.012.71-.288.72-.672" fill="#302F2A"/><path d="M155.1 69.406l6.97 1.068c.37.058.73-.203.79-.583.06-.378-.2-.733-.58-.792l-6.97-1.067c-.38-.058-.74.203-.79.583-.06.38.2.735.58.793M161.83 66.093l1.03-7.038c.05-.38-.21-.734-.59-.79-.38-.055-.73.208-.79.588l-1.03 7.04c-.05.38.21.732.59.788.38.057.73-.206.79-.587M120.99 67.255l-1.35-5.14c-.1-.37-.48-.593-.85-.496-.37.097-.59.477-.5.85l1.35 5.138c.1.372.48.594.85.497.37-.098.59-.478.5-.85M112.96 62.902l-5.26 1.074c-.38.077-.62.444-.55.82.08.377.45.62.82.544l5.27-1.075c.38-.077.62-.444.55-.82-.08-.377-.45-.62-.83-.543" fill="#302F2A"/></g></svg>