<?xml version="1.0" encoding="UTF-8"?><!DOCTYPE svg><svg width="159px" height="302px" viewBox="0 0 159 302" version="1.1" xmlns="http://www.w3.org/2000/svg" xmlns:xlink="http://www.w3.org/1999/xlink"><!-- Generator: Sketch 40.3 (33839) - http://www.bohemiancoding.com/sketch --><title>Page 1</title><desc>Created with Sketch.</desc><defs><polygon id="path-1" points="0 302 158.919 302 158.919 0.922 0 0.922"/></defs><g id="Page-1" stroke="none" stroke-width="1" fill="none" fill-rule="evenodd"><g id="Artboard-4" transform="translate(-372.000000, -505.000000)"><g id="Page-1" transform="translate(372.000000, 504.000000)"><polygon id="Fill-1" fill="#05B3E9" points="84.806 244.682 110.806 244.682 110.806 112.534 84.806 112.534"/><polygon id="Stroke-2" stroke="#231F1F" stroke-width="1.5" stroke-linecap="round" stroke-linejoin="round" points="84.806 244.682 110.806 244.682 110.806 112.534 84.806 112.534"/><g id="Group-41" transform="translate(0.000000, 0.078000)"><path d="M110.8059,112.4563 C105.9729,104.7893 103.6389,100.4563 103.6389,89.7893 L97.8059,89.7893 L91.9729,89.7893 C91.9729,100.4563 89.6389,104.7893 84.8059,112.4563 L110.8059,112.4563 L110.8059,112.4563 Z" id="Fill-3" fill="#05B3E9"/><path d="M110.8059,112.4563 C105.9729,104.7893 103.6389,100.4563 103.6389,89.7893 L97.8059,89.7893 L91.9729,89.7893 C91.9729,100.4563 89.6389,104.7893 84.8059,112.4563 L110.8059,112.4563 L110.8059,112.4563 Z" id="Stroke-5" stroke="#231F1F" stroke-width="1.5" stroke-linecap="round" stroke-linejoin="round"/><polygon id="Fill-7" fill="#4881C2" points="91.9726 80.623 103.6396 83.956 103.6396 89.79 91.9726 89.79"/><polygon id="Stroke-9" stroke="#231F1F" stroke-width="1.5" stroke-linecap="round" stroke-linejoin="round" points="91.9726 80.623 103.6396 83.956 103.6396 89.79 91.9726 89.79"/><mask id="mask-2" fill="white"><use xlink:href="#path-1"/></mask><g id="Clip-12"/><polygon id="Fill-11" fill="#6D6E71" mask="url(#mask-2)" points="89.392 248.379 106.221 248.379 106.221 244.603 89.392 244.603"/><polygon id="Stroke-13" stroke="#231F1F" stroke-width="1.5" stroke-linecap="round" stroke-linejoin="round" mask="url(#mask-2)" points="89.392 248.379 106.221 248.379 106.221 244.603 89.392 244.603"/><path d="M147.6983,78.872 C140.9163,76.517 134.5363,77.145 133.4493,80.275 L120.6013,117.275 L145.1623,125.804 L158.0103,88.805 C159.0973,85.674 154.4803,81.227 147.6983,78.872" id="Fill-14" fill="#05B3E9" mask="url(#mask-2)"/><path d="M147.6983,78.872 C140.9163,76.517 134.5363,77.145 133.4493,80.275 L120.6013,117.275 L145.1623,125.804 L158.0103,88.805 C159.0973,85.674 154.4803,81.227 147.6983,78.872 L147.6983,78.872 Z" id="Stroke-15" stroke="#231F1F" stroke-width="1.5" stroke-linecap="round" stroke-linejoin="round" mask="url(#mask-2)"/><path d="M145.1624,125.8038 C144.0754,128.9338 137.6964,129.5628 130.9134,127.2068 C124.1314,124.8518 119.5144,120.4048 120.6014,117.2748 C121.6884,114.1448 128.0674,113.5158 134.8504,115.8708 C141.6324,118.2268 146.2494,122.6738 145.1624,125.8038" id="Fill-16" fill="#6D6E71" mask="url(#mask-2)"/><path d="M145.1624,125.8038 C144.0754,128.9338 137.6964,129.5628 130.9134,127.2068 C124.1314,124.8518 119.5144,120.4048 120.6014,117.2748 C121.6884,114.1448 128.0674,113.5158 134.8504,115.8708 C141.6324,118.2268 146.2494,122.6738 145.1624,125.8038 L145.1624,125.8038 Z" id="Stroke-17" stroke="#231F1F" stroke-width="1.5" stroke-linecap="round" stroke-linejoin="round" mask="url(#mask-2)"/><polygon id="Fill-18" fill="#4881C2" mask="url(#mask-2)" points="150.0019 84.94 142.1299 82.206 133.0149 108.455 140.8869 111.189"/><polygon id="Stroke-19" stroke="#231F1F" stroke-width="1.5" stroke-linecap="round" stroke-linejoin="round" mask="url(#mask-2)" points="150.0019 84.94 142.1299 82.206 133.0149 108.455 140.8869 111.189"/><polygon id="Fill-20" fill="#FFFFFF" mask="url(#mask-2)" points="9.4618 169.3044 1.2178 173.6794 64.0358 292.0434 72.2798 287.6674"/><polygon id="Stroke-21" stroke="#231F1F" stroke-width="1.5" stroke-linecap="round" stroke-linejoin="round" mask="url(#mask-2)" points="9.4618 169.3044 1.2178 173.6794 64.0358 292.0434 72.2798 287.6674"/><polygon id="Fill-22" fill="#C8BCE0" mask="url(#mask-2)" points="55.0107 255.1281 46.7667 259.5031 60.1077 284.6421 68.3527 280.2661"/><polygon id="Stroke-23" stroke="#231F1F" stroke-width="1.5" stroke-linecap="round" stroke-linejoin="round" mask="url(#mask-2)" points="55.0107 255.1281 46.7667 259.5031 60.1077 284.6421 68.3527 280.2661"/><path d="M72.2445,300.7545 L64.0365,292.0435 L72.2805,287.6675 L74.8945,299.3485 C75.2395,300.8915 73.3295,301.9055 72.2445,300.7545" id="Fill-24" fill="#FF6F49" mask="url(#mask-2)"/><path d="M72.2445,300.7545 L64.0365,292.0435 L72.2805,287.6675 L74.8945,299.3485 C75.2395,300.8915 73.3295,301.9055 72.2445,300.7545 L72.2445,300.7545 Z" id="Stroke-25" stroke="#231F1F" stroke-width="1.5" stroke-linecap="round" stroke-linejoin="round" mask="url(#mask-2)"/><path d="M72.2445,300.7545 L71.0885,299.5275 L74.5265,297.7025 L74.8945,299.3485 C75.2395,300.8915 73.3295,301.9055 72.2445,300.7545" id="Fill-26" fill="#FFFFFF" mask="url(#mask-2)"/><path d="M72.2445,300.7545 L71.0885,299.5275 L74.5265,297.7025 L74.8945,299.3485 C75.2395,300.8915 73.3295,301.9055 72.2445,300.7545 L72.2445,300.7545 Z" id="Stroke-27" stroke="#231F1F" stroke-width="1.5" stroke-linecap="round" stroke-linejoin="round" mask="url(#mask-2)"/><path d="M4.0534,167.6463 L2.8754,168.2713 C0.9244,169.3073 0.1824,171.7283 1.2174,173.6793 L1.2174,173.6793 L9.4614,169.3043 L9.4614,169.3043 C8.4264,167.3533 6.0044,166.6103 4.0534,167.6463" id="Fill-28" fill="#FF6F49" mask="url(#mask-2)"/><path d="M4.0534,167.6463 L2.8754,168.2713 C0.9244,169.3073 0.1824,171.7283 1.2174,173.6793 L1.2174,173.6793 L9.4614,169.3043 L9.4614,169.3043 C8.4264,167.3533 6.0044,166.6103 4.0534,167.6463 L4.0534,167.6463 Z" id="Stroke-29" stroke="#231F1F" stroke-width="1.5" stroke-linecap="round" stroke-linejoin="round" mask="url(#mask-2)"/><polygon id="Fill-30" fill="#FF6F49" mask="url(#mask-2)" points="3.4053 177.8019 8.2113 175.2509 21.8063 200.8669 17.0003 203.4179"/><polygon id="Stroke-31" stroke="#231F1F" stroke-width="1.5" stroke-linecap="round" stroke-linejoin="round" mask="url(#mask-2)" points="3.4053 177.8019 8.2113 175.2509 21.8063 200.8669 17.0003 203.4179"/><path d="M3.4053,177.8019 L8.9973,174.8339" id="Stroke-32" stroke="#231F1F" stroke-width="1.5" stroke-linecap="round" stroke-linejoin="round" mask="url(#mask-2)"/><polygon id="Fill-33" fill="#D3D2D2" mask="url(#mask-2)" points="17.8385 126.7172 34.6265 134.9682 82.9965 36.5442 66.2085 28.2942"/><polygon id="Stroke-34" stroke="#231F1F" stroke-width="1.5" stroke-linecap="round" stroke-linejoin="round" mask="url(#mask-2)" points="17.8385 126.7172 34.6265 134.9682 82.9965 36.5442 66.2085 28.2942"/><polygon id="Fill-35" fill="#6D6E71" mask="url(#mask-2)" points="79.2917 1.6724 96.0797 9.9234 82.9967 36.5444 66.2087 28.2944"/><polygon id="Stroke-36" stroke="#231F1F" stroke-width="1.5" stroke-linecap="round" stroke-linejoin="round" mask="url(#mask-2)" points="79.2917 1.6724 96.0797 9.9234 82.9967 36.5444 66.2087 28.2944"/><polygon id="Fill-37" fill="#6D6E71" mask="url(#mask-2)" points="20.5368 128.0433 31.9288 133.6413 30.2488 137.0593 18.8578 131.4603"/><polygon id="Stroke-38" stroke="#231F1F" stroke-width="1.5" stroke-linecap="round" stroke-linejoin="round" mask="url(#mask-2)" points="20.5368 128.0433 31.9288 133.6413 30.2488 137.0593 18.8578 131.4603"/><polygon id="Fill-39" fill="#6D6E71" mask="url(#mask-2)" points="88.3445 12.0597 82.3255 9.1017 68.4085 37.4217 74.4265 40.3797"/><polygon id="Stroke-40" stroke="#231F1F" stroke-width="1.5" stroke-linecap="round" stroke-linejoin="round" mask="url(#mask-2)" points="88.3445 12.0597 82.3255 9.1017 68.4085 37.4217 74.4265 40.3797"/></g></g></g></g></svg>