<?xml version="1.0" encoding="UTF-8" standalone="no"?><!DOCTYPE svg><svg width="148" height="110" viewBox="0 0 148 110" xmlns="http://www.w3.org/2000/svg"><title>plastic-utensils</title><g stroke="#000" fill="none" fill-rule="evenodd"><path d="M95.375 56.57c11.977 7.146 24.205 31.61 34.937 40.327 3.137 3.137 12.245 10.018 14.895 7.368l.31-.313c2.574-2.572-4.2-12.048-7.203-15.054-10.454-11.712-29.372-23.916-38.92-37.207l-.806-.755L52.94 1.33c-1.58-.57-4.29-.015-4.51 3.535 1.43 19.898 25.257 38.01 44.532 52.774.462.356 1.956-1.42 2.413-1.07" fill="#E4E5E3"/><path d="M83.744 32.44c6.607-7.315 20.592-20.695 19.573-21.624-1.035-.765-13.98 12.67-20.972 19.003-.463.472-1.283 1.017-1.843.455-.638-.64.04-1.372.56-1.905 6.38-6.896 20.658-20.272 19.122-20.682-.31-1.107-14.147 12.66-21.225 18.994-.288.337-1.28.775-1.703.35-.558-.56-.012-1.4.48-1.913l9.77-9.765c1.36-1.363 10.335-9.698 9.545-10.49-1.432-1.15-24.04 20.984-25.984 22.544l-1.256 1.248c-3.504 4.44-3.838 7.41-5 10.962-6.723 17.705-41.92 37.335-54.95 53.378-3.134 3.134-10 12.225-7.36 14.873l.32.316c2.565 2.566 12.02-4.2 15.022-7.204C35.052 85.63 50.422 54.476 71.386 45.936c5.252-1.552 6.04-.46 11.58-6.003l3.758-3.755c1.19-1.186 20.19-21.453 19.256-22.386-.878-.88-19.593 18.904-20.66 19.69-.507.474-1.294.474-1.597.172-.295-.3-.285-.485-.21-.818l.23-.397z" fill="#FFF"/></g></svg>