<?xml version="1.0" encoding="UTF-8" standalone="no"?><!DOCTYPE svg><svg width="135" height="149" viewBox="0 0 135 149" xmlns="http://www.w3.org/2000/svg"><title>plastic-bottles</title><g fill="none" fill-rule="evenodd"><path d="M-1 0h137v149H-1z"/><path fill="#E3684C" d="M95.95 42.08l-2.54-6.99h-34.3l-.95 6.99h37.79"/><path d="M95.95 42.08l.71-.26-2.54-6.99c-.11-.29-.39-.49-.71-.49h-34.3c-.38 0-.69.28-.74.65l-.96 6.98c-.03.22.04.43.18.6.14.16.35.26.57.26h37.79c.25 0 .48-.12.62-.32.14-.21.17-.46.09-.69l-.71.26v-.75H59.02l.74-5.49h33.13l2.36 6.49.7-.25v-.75.75" fill="#0A0A08"/><path d="M91.82 35.09H60.7V10.41c0-7.32 7.78-8.91 15.56-8.91s15.56 1.93 15.56 8.91v24.68" fill="#E6E7E3"/><path d="M91.82 35.09v-.75H60.7v.75h.75V10.41c0-1.7.44-2.99 1.19-4.04 1.13-1.57 3.05-2.61 5.47-3.25 2.41-.64 5.27-.87 8.15-.87 3.83 0 7.64.49 10.39 1.77 1.37.64 2.48 1.46 3.23 2.49.76 1.04 1.19 2.29 1.19 3.9v24.68h.75v-.75.75h.75V10.41c.01-1.89-.53-3.49-1.48-4.78-1.42-1.94-3.68-3.14-6.28-3.87C82.2 1.03 79.23.75 76.26.75c-3.94.01-7.91.39-11.01 1.78-1.54.69-2.88 1.65-3.82 2.96-.95 1.31-1.48 2.96-1.48 4.92v24.68c0 .2.08.39.22.53s.33.22.53.22h31.12c.2 0 .39-.08.53-.22.15-.14.22-.33.22-.53h-.75" fill="#0A0A08"/><path d="M114.34 98.03c-4-2.64-8.92-7.84-11.5-17.95l-2.39-11.13c-.66-3.09 1.69-6.01 4.86-6.01h5.36c3.9 0 7.13 3 7.44 6.88l1.94 24.86c.23 3.06-3.15 5.05-5.71 3.35zm19.76 34.78l-2.57-29.35-2.52-27.97c-1-11.16-7.76-21-17.82-25.94l-15.24-7.47H58.16C39.1 52.16 36.24 76.46 36.24 94.52v34.98c0 1.62 0 3.13.13 4.61.61 7.28 6.74 12.86 14.05 12.86h70.71c7.64 0 13.63-6.55 12.97-14.16z" fill="#E3684C"/><path d="M114.34 98.03l.41-.62c-3.85-2.56-8.64-7.57-11.18-17.52l-.73.19.74-.16-2.4-11.13c-.06-.3-.09-.6-.09-.9 0-1.13.46-2.18 1.22-2.95s1.8-1.25 3-1.25h5.36c3.5 0 6.42 2.69 6.69 6.19l1.94 24.85.01.25c0 .85-.35 1.57-.9 2.09-.54.53-1.29.84-2.05.83-.54 0-1.08-.14-1.61-.49l-.41.62-.42.63c.77.51 1.62.75 2.44.74 1.17 0 2.27-.46 3.09-1.24.82-.78 1.36-1.9 1.36-3.18 0-.12-.01-.24-.02-.36l-1.94-24.86c-.33-4.27-3.89-7.57-8.18-7.57h-5.36c-1.61 0-3.05.66-4.07 1.7-1.03 1.04-1.65 2.46-1.65 4 0 .4.04.81.13 1.22l2.39 11.13.01.03c2.61 10.27 7.66 15.65 11.8 18.39l.42-.63zm19.76 34.78l.74-.06-2.57-29.36-2.51-27.97c-1.03-11.42-7.94-21.48-18.24-26.54L96.28 41.4c-.1-.05-.21-.07-.33-.07H58.16c-.13 0-.25.02-.35.08-9.75 5.16-15.34 13.96-18.47 23.67-3.13 9.71-3.85 20.37-3.85 29.44v34.98c0 1.62 0 3.15.13 4.67.64 7.67 7.1 13.55 14.8 13.55h70.71c7.66 0 13.77-6.23 13.77-13.75 0-.41-.02-.81-.06-1.22l-.74.06-.75.07c.03.36.05.73.05 1.09 0 3.35-1.36 6.41-3.58 8.63-2.21 2.23-5.27 3.62-8.69 3.62H50.42c-6.93 0-12.73-5.29-13.31-12.18-.12-1.43-.12-2.92-.12-4.54V94.52c0-8.99.72-19.51 3.78-28.98 3.06-9.48 8.43-17.87 17.74-22.8l-.35-.66v.74h37.62l15.08 7.41c9.83 4.82 16.43 14.42 17.41 25.33l2.51 27.96 2.57 29.36.75-.07z" fill="#0A0A08"/><path d="M85.63 64.39h-32.3c-3.18 0-5.88 2.35-6.31 5.5-1.13 8.29-2.84 27.55-2.84 68.19h70.01c4.5 0 7.98-3.92 7.46-8.39l-1-8.48c-.36-3.05-2.53-5.57-5.5-6.37l-3.03-.82c-11.05-2.7-16.21-10.84-17.87-22.09-.99-6.69-1.9-14.33-2.26-21.49-.17-3.39-2.97-6.05-6.36-6.05" fill="#E5E6E3"/><path d="M85.63 64.39v-.75h-32.3c-3.56 0-6.57 2.62-7.05 6.15-1.14 8.34-2.85 27.63-2.85 68.29 0 .2.08.39.22.53s.33.22.53.22h70.01c4.61-.01 8.26-3.75 8.26-8.25 0-.32-.02-.65-.06-.97l-.99-8.49c-.4-3.35-2.79-6.13-6.05-7.01l-3.03-.82h-.02c-5.38-1.32-9.26-3.92-12.04-7.57-2.78-3.64-4.45-8.36-5.27-13.9-.98-6.67-1.9-14.3-2.25-21.42-.2-3.78-3.32-6.76-7.11-6.76v1.5c2.99 0 5.46 2.35 5.61 5.34.36 7.19 1.28 14.86 2.27 21.56.84 5.71 2.58 10.68 5.56 14.59 2.97 3.92 7.21 6.73 12.87 8.12l.18-.73-.19.72 3.03.82c2.66.72 4.62 2.99 4.95 5.74l.99 8.48c.03.27.05.54.05.8 0 1.84-.75 3.52-1.96 4.75-1.23 1.23-2.91 2-4.8 2H44.18v.75h.75c0-40.62 1.71-59.85 2.83-68.09.38-2.78 2.76-4.85 5.57-4.85h32.3v-.75M65.5 31.04V12.07c0-.41-.34-.75-.75-.75s-.75.34-.75.75v18.97c0 .42.34.75.75.75s.75-.33.75-.75M71.22 31.04V12.07c0-.41-.34-.75-.75-.75-.42 0-.75.34-.75.75v18.97c0 .42.33.75.75.75.41 0 .75-.33.75-.75M76.93 31.04V12.07c0-.41-.33-.75-.75-.75-.41 0-.75.34-.75.75v18.97c0 .42.34.75.75.75.42 0 .75-.33.75-.75M82.65 31.04V12.07c0-.41-.33-.75-.75-.75-.41 0-.75.34-.75.75v18.97c0 .42.34.75.75.75.42 0 .75-.33.75-.75M88.37 31.04V12.07c0-.41-.34-.75-.75-.75-.42 0-.75.34-.75.75v18.97c0 .42.33.75.75.75.41 0 .75-.33.75-.75" fill="#0A0A08"/><path d="M41.3 31.83l15.13 13.9c1.63 1.5 2.21 3.83 1.47 5.92l-6.6 18.74c-.7 1.99-.78 4.14-.22 6.18 2.8 10.17 11.24 43.3 8.9 65.4-.33 3.09-2.92 5.45-6.03 5.45H7.45c-3.11 0-5.7-2.36-6.02-5.45-2.35-22.1 6.09-55.23 8.89-65.4.56-2.04.48-4.19-.22-6.18L3.5 51.65c-.74-2.09-.16-4.42 1.48-5.92l15.12-13.9" fill="#FEFAD1"/><path d="M40.79 32.38l15.13 13.9c1 .92 1.55 2.21 1.55 3.53 0 .53-.09 1.07-.28 1.59l-6.6 18.74c-.42 1.19-.63 2.44-.63 3.69 0 .98.13 1.97.4 2.94 2.46 8.92 9.28 35.65 9.27 56.85 0 2.88-.12 5.66-.4 8.27-.29 2.72-2.56 4.78-5.28 4.78H7.45c-2.72 0-4.99-2.06-5.28-4.78-.28-2.61-.4-5.39-.4-8.27-.01-21.2 6.81-47.93 9.27-56.85.27-.97.4-1.96.4-2.94 0-1.25-.21-2.5-.63-3.69L4.21 51.4c-.19-.52-.28-1.06-.28-1.59 0-1.32.55-2.61 1.55-3.53l15.13-13.9c.31-.28.33-.76.05-1.06-.28-.31-.76-.33-1.06-.05L4.47 45.18c-1.32 1.21-2.04 2.9-2.04 4.63 0 .7.12 1.41.36 2.09l6.6 18.73c.37 1.04.55 2.12.55 3.2 0 .85-.11 1.7-.34 2.54C7.13 85.35.27 112.12.27 133.62c0 2.92.13 5.75.41 8.43.37 3.47 3.27 6.12 6.77 6.12h46.5c3.5 0 6.4-2.65 6.77-6.12.28-2.68.41-5.51.41-8.43 0-21.5-6.86-48.27-9.33-57.25-.23-.84-.34-1.69-.34-2.54 0-1.08.18-2.16.55-3.19l6.6-18.74c.24-.69.36-1.39.36-2.09 0-1.73-.72-3.42-2.04-4.63L41.8 31.27c-.3-.28-.78-.26-1.06.05-.28.3-.26.78.05 1.06" fill="#0A0A08"/><path fill="#FFF" d="M26.07 27.08h9.26v-9.51h-9.26"/><path d="M35.33 17.57v-.75h-9.26c-.19 0-.39.08-.53.22s-.22.34-.22.53v9.51c0 .2.08.38.22.53.14.14.33.21.53.21h9.26c.2 0 .39-.07.53-.21.14-.15.22-.33.22-.53v-9.51c0-.2-.08-.38-.22-.53-.14-.14-.33-.22-.53-.22v.75h-.75v8.76h-7.76v-8.01h8.51v-.75h-.75.75" fill="#0A0A08"/><path d="M38.56 22.32H22.84c-1.51 0-2.74 1.23-2.74 2.74v6.77h21.2v-6.77c0-1.51-1.23-2.74-2.74-2.74" fill="#FFF"/><path d="M38.56 22.32v-.75H22.84c-1.92.01-3.49 1.57-3.49 3.49v6.77c0 .2.08.38.22.53.15.14.33.22.53.22h21.2c.2 0 .38-.08.53-.22.14-.15.22-.33.22-.53v-6.77c0-1.92-1.56-3.48-3.49-3.49v1.5c1.1.01 1.98.89 1.99 1.99v6.02h-19.7v-6.02c.01-1.09.89-1.98 1.99-1.99h15.72v-.75" fill="#0A0A08"/><path d="M25.06 17.86h11.28c.77 0 1.39-.63 1.39-1.39 0-.77-.62-1.39-1.39-1.39H25.06c-.77 0-1.39.62-1.39 1.39 0 .76.62 1.39 1.39 1.39" fill="#FFF"/><path d="M25.06 17.86v.74h11.28c1.18 0 2.14-.95 2.14-2.13 0-1.19-.96-2.14-2.14-2.14H25.06c-1.18 0-2.14.95-2.14 2.14 0 1.18.96 2.13 2.14 2.13v-1.49c-.35-.01-.64-.29-.64-.64 0-.36.29-.64.64-.64h11.28c.35 0 .64.28.64.64 0 .35-.29.63-.64.64H25.06v.75" fill="#0A0A08"/></g></svg>