<svg width="278" height="177" viewBox="0 0 278 177" fill="none" xmlns="http://www.w3.org/2000/svg">
<path d="M182.095 0.743164H45.1549C21.1629 0.743164 1.71289 20.1922 1.71289 44.1852V176.128H182.095V0.743164Z" fill="#3491A7"/>
<path fill-rule="evenodd" clip-rule="evenodd" d="M182.095 0.743164H45.1549C21.1629 0.743164 1.71289 20.1922 1.71289 44.1852V176.128H182.095V0.743164Z" stroke="black" stroke-width="1.5"/>
<path d="M233.778 0.743164H170.682C146.69 0.743164 127.24 20.1922 127.24 44.1852V176.128H277.22V44.1852C277.22 20.1922 257.77 0.743164 233.778 0.743164Z" fill="#FCFDFD"/>
<path fill-rule="evenodd" clip-rule="evenodd" d="M233.778 0.743164H170.682C146.69 0.743164 127.24 20.1922 127.24 44.1852V176.128H277.22V44.1852C277.22 20.1922 257.77 0.743164 233.778 0.743164Z" stroke="black" stroke-width="1.5" stroke-linecap="round" stroke-linejoin="round"/>
<path d="M228.92 9.42432H175.54C154.086 9.42432 136.696 26.8153 136.696 48.2683V176.128H267.765V48.2683C267.765 26.8153 250.374 9.42432 228.92 9.42432Z" fill="black"/>
<path fill-rule="evenodd" clip-rule="evenodd" d="M228.92 9.42432H175.54C154.086 9.42432 136.696 26.8153 136.696 48.2683V176.128H267.765V48.2683C267.765 26.8153 250.374 9.42432 228.92 9.42432Z" stroke="black"/>
<path d="M226.632 9.42432H175.539C154.086 9.42432 136.695 26.8153 136.695 48.2683V176.128H265.476V48.2683C265.476 26.8153 248.085 9.42432 226.632 9.42432Z" fill="#BBE3D0"/>
<path d="M167.468 60.8472H161.78C161.552 60.8472 161.384 60.7992 161.276 60.7032C161.18 60.5952 161.132 60.4272 161.132 60.1992V58.0932C161.132 57.8652 161.18 57.7032 161.276 57.6072C161.384 57.4992 161.552 57.4452 161.78 57.4452H166.622C166.778 57.4452 166.892 57.3972 166.964 57.3012C167.048 57.1932 167.09 57.0672 167.09 56.9232C167.09 56.7192 167.048 56.5692 166.964 56.4732C166.892 56.3772 166.778 56.3232 166.622 56.3112L163.922 55.9332C163.082 55.8132 162.404 55.5372 161.888 55.1052C161.384 54.6732 161.132 53.9532 161.132 52.9452V51.0552C161.132 50.0352 161.462 49.2552 162.122 48.7152C162.782 48.1632 163.694 47.8872 164.858 47.8872H169.898C170.126 47.8872 170.288 47.9412 170.384 48.0492C170.492 48.1452 170.546 48.3072 170.546 48.5352V50.6772C170.546 50.9052 170.492 51.0732 170.384 51.1812C170.288 51.2772 170.126 51.3252 169.898 51.3252H165.704C165.548 51.3252 165.428 51.3792 165.344 51.4872C165.26 51.5832 165.218 51.7092 165.218 51.8652C165.218 52.0212 165.26 52.1532 165.344 52.2612C165.428 52.3692 165.548 52.4292 165.704 52.4412L168.386 52.8012C169.226 52.9212 169.904 53.1972 170.42 53.6292C170.936 54.0612 171.194 54.7812 171.194 55.7892V57.6792C171.194 58.6992 170.858 59.4852 170.186 60.0372C169.526 60.5772 168.62 60.8472 167.468 60.8472ZM176.601 60.8472H173.811C173.583 60.8472 173.415 60.7992 173.307 60.7032C173.211 60.5952 173.163 60.4272 173.163 60.1992V48.5352C173.163 48.3072 173.211 48.1452 173.307 48.0492C173.415 47.9412 173.583 47.8872 173.811 47.8872H179.319C180.951 47.8872 182.067 48.2112 182.667 48.8592C183.267 49.5072 183.567 50.3532 183.567 51.3972V53.7012C183.567 54.7452 183.267 55.5912 182.667 56.2392C182.067 56.8872 180.951 57.2112 179.319 57.2112H177.249V60.1992C177.249 60.4272 177.195 60.5952 177.087 60.7032C176.991 60.7992 176.829 60.8472 176.601 60.8472ZM177.213 51.2532V53.9712H178.833C179.181 53.9712 179.409 53.8812 179.517 53.7012C179.625 53.5212 179.679 53.3172 179.679 53.0892V52.1352C179.679 51.9072 179.625 51.7032 179.517 51.5232C179.409 51.3432 179.181 51.2532 178.833 51.2532H177.213ZM194.433 60.8472H186.081C185.853 60.8472 185.685 60.7992 185.577 60.7032C185.481 60.5952 185.433 60.4272 185.433 60.1992V48.5352C185.433 48.3072 185.481 48.1452 185.577 48.0492C185.685 47.9412 185.853 47.8872 186.081 47.8872H194.433C194.661 47.8872 194.823 47.9412 194.919 48.0492C195.027 48.1452 195.081 48.3072 195.081 48.5352V50.6412C195.081 50.8692 195.027 51.0372 194.919 51.1452C194.823 51.2412 194.661 51.2892 194.433 51.2892H189.465V52.6752H192.975C193.203 52.6752 193.365 52.7292 193.461 52.8372C193.569 52.9332 193.623 53.0952 193.623 53.3232V55.2492C193.623 55.4772 193.569 55.6452 193.461 55.7532C193.365 55.8492 193.203 55.8972 192.975 55.8972H189.465V57.4452H194.433C194.661 57.4452 194.823 57.4992 194.919 57.6072C195.027 57.7032 195.081 57.8652 195.081 58.0932V60.1992C195.081 60.4272 195.027 60.5952 194.919 60.7032C194.823 60.7992 194.661 60.8472 194.433 60.8472ZM205.744 60.8472H201.352C199.852 60.8472 198.736 60.5472 198.004 59.9472C197.284 59.3472 196.924 58.4232 196.924 57.1752V51.5772C196.924 50.3292 197.284 49.4052 198.004 48.8052C198.736 48.1932 199.852 47.8872 201.352 47.8872H205.744C205.972 47.8872 206.134 47.9412 206.23 48.0492C206.338 48.1452 206.392 48.3072 206.392 48.5352V50.7132C206.392 50.9412 206.338 51.1092 206.23 51.2172C206.134 51.3132 205.972 51.3612 205.744 51.3612H202.126C201.754 51.3612 201.478 51.4392 201.298 51.5952C201.118 51.7392 201.028 51.9612 201.028 52.2612V56.5452C201.028 56.8452 201.118 57.0672 201.298 57.2112C201.478 57.3432 201.754 57.4092 202.126 57.4092H205.744C205.972 57.4092 206.134 57.4632 206.23 57.5712C206.338 57.6672 206.392 57.8292 206.392 58.0572V60.1992C206.392 60.4272 206.338 60.5952 206.23 60.7032C206.134 60.7992 205.972 60.8472 205.744 60.8472ZM208.785 60.8472C208.557 60.8472 208.389 60.7992 208.281 60.7032C208.185 60.5952 208.137 60.4272 208.137 60.1992V58.0572C208.137 57.8292 208.185 57.6672 208.281 57.5712C208.389 57.4632 208.557 57.4092 208.785 57.4092H210.567V51.3612H208.785C208.557 51.3612 208.389 51.3132 208.281 51.2172C208.185 51.1092 208.137 50.9412 208.137 50.7132V48.5352C208.137 48.3072 208.185 48.1452 208.281 48.0492C208.389 47.9412 208.557 47.8872 208.785 47.8872H216.453C216.681 47.8872 216.843 47.9412 216.939 48.0492C217.047 48.1452 217.101 48.3072 217.101 48.5352V50.7132C217.101 50.9412 217.047 51.1092 216.939 51.2172C216.843 51.3132 216.681 51.3612 216.453 51.3612H214.707V57.4092H216.453C216.681 57.4092 216.843 57.4632 216.939 57.5712C217.047 57.6672 217.101 57.8292 217.101 58.0572V60.1992C217.101 60.4272 217.047 60.5952 216.939 60.7032C216.843 60.7992 216.681 60.8472 216.453 60.8472H208.785ZM224.022 51.6672L223.176 54.4032H226.002L225.156 51.6672C225.108 51.5592 225.054 51.4812 224.994 51.4332C224.946 51.3852 224.886 51.3612 224.814 51.3612H224.364C224.292 51.3612 224.226 51.3852 224.166 51.4332C224.118 51.4812 224.07 51.5592 224.022 51.6672ZM222.996 60.1992C222.996 60.4272 222.942 60.5952 222.834 60.7032C222.738 60.7992 222.576 60.8472 222.348 60.8472H219.702C219.474 60.8472 219.306 60.7992 219.198 60.7032C219.102 60.5952 219.054 60.4272 219.054 60.1992V55.4472C219.054 55.0872 219.108 54.6732 219.216 54.2052C219.336 53.7372 219.516 53.1912 219.756 52.5672L221.322 48.4812C221.394 48.2772 221.502 48.1272 221.646 48.0312C221.802 47.9352 222 47.8872 222.24 47.8872H227.082C227.31 47.8872 227.496 47.9352 227.64 48.0312C227.796 48.1272 227.91 48.2772 227.982 48.4812L229.548 52.5672C229.788 53.1912 229.962 53.7372 230.07 54.2052C230.19 54.6732 230.25 55.0872 230.25 55.4472V60.1992C230.25 60.4272 230.196 60.5952 230.088 60.7032C229.992 60.7992 229.83 60.8472 229.602 60.8472H226.884C226.644 60.8472 226.464 60.7992 226.344 60.7032C226.236 60.5952 226.182 60.4272 226.182 60.1992V57.6792H222.996V60.1992ZM242.282 60.8472H233.12C232.892 60.8472 232.724 60.7992 232.616 60.7032C232.52 60.5952 232.472 60.4272 232.472 60.1992V48.5352C232.472 48.3072 232.52 48.1452 232.616 48.0492C232.724 47.9412 232.892 47.8872 233.12 47.8872H235.91C236.138 47.8872 236.3 47.9412 236.396 48.0492C236.504 48.1452 236.558 48.3072 236.558 48.5352V57.4452H239.024V54.5292C239.024 54.3012 239.072 54.1392 239.168 54.0432C239.276 53.9352 239.444 53.8812 239.672 53.8812H242.282C242.51 53.8812 242.672 53.9352 242.768 54.0432C242.876 54.1392 242.93 54.3012 242.93 54.5292V60.1992C242.93 60.4272 242.876 60.5952 242.768 60.7032C242.672 60.7992 242.51 60.8472 242.282 60.8472ZM152.765 82.8472H149.975C149.747 82.8472 149.579 82.7992 149.471 82.7032C149.375 82.5952 149.327 82.4272 149.327 82.1992V70.5352C149.327 70.3072 149.375 70.1452 149.471 70.0492C149.579 69.9412 149.747 69.8872 149.975 69.8872H155.483C157.115 69.8872 158.231 70.2112 158.831 70.8592C159.431 71.5072 159.731 72.3532 159.731 73.3972V75.7012C159.731 76.7452 159.431 77.5912 158.831 78.2392C158.231 78.8872 157.115 79.2112 155.483 79.2112H153.413V82.1992C153.413 82.4272 153.359 82.5952 153.251 82.7032C153.155 82.7992 152.993 82.8472 152.765 82.8472ZM153.377 73.2532V75.9712H154.997C155.345 75.9712 155.573 75.8812 155.681 75.7012C155.789 75.5212 155.843 75.3172 155.843 75.0892V74.1352C155.843 73.9072 155.789 73.7032 155.681 73.5232C155.573 73.3432 155.345 73.2532 154.997 73.2532H153.377ZM165.665 73.1272V75.4312H167.015C167.327 75.4312 167.537 75.3532 167.645 75.1972C167.753 75.0292 167.807 74.8252 167.807 74.5852V73.9732C167.807 73.7332 167.753 73.5352 167.645 73.3792C167.537 73.2112 167.327 73.1272 167.015 73.1272H165.665ZM165.017 82.8472H162.245C162.017 82.8472 161.849 82.7992 161.741 82.7032C161.645 82.5952 161.597 82.4272 161.597 82.1992V70.5352C161.597 70.3072 161.645 70.1452 161.741 70.0492C161.849 69.9412 162.017 69.8872 162.245 69.8872H168.239C169.583 69.8872 170.507 70.1692 171.011 70.7332C171.527 71.2852 171.785 72.0052 171.785 72.8932V73.7212C171.785 74.2252 171.707 74.6572 171.551 75.0172C171.407 75.3652 171.149 75.6172 170.777 75.7732C171.425 75.8452 171.947 76.1092 172.343 76.5652C172.751 77.0212 172.955 77.6272 172.955 78.3832V82.1992C172.955 82.4272 172.901 82.5952 172.793 82.7032C172.697 82.7992 172.535 82.8472 172.307 82.8472H169.517C169.289 82.8472 169.121 82.7992 169.013 82.7032C168.917 82.5952 168.869 82.4272 168.869 82.1992V79.4452C168.869 79.1812 168.815 78.9892 168.707 78.8692C168.611 78.7372 168.437 78.6712 168.185 78.6712H165.665V82.1992C165.665 82.4272 165.611 82.5952 165.503 82.7032C165.407 82.7992 165.245 82.8472 165.017 82.8472ZM185.866 79.4452C185.866 79.9972 185.782 80.5012 185.614 80.9572C185.458 81.4012 185.17 81.7852 184.75 82.1092C184.342 82.4212 183.772 82.6672 183.04 82.8472C182.32 83.0272 181.402 83.1172 180.286 83.1172C179.17 83.1172 178.246 83.0272 177.514 82.8472C176.782 82.6672 176.206 82.4212 175.786 82.1092C175.378 81.7852 175.09 81.4012 174.922 80.9572C174.766 80.5012 174.688 79.9972 174.688 79.4452V73.3072C174.688 72.7552 174.766 72.2572 174.922 71.8132C175.09 71.3572 175.378 70.9672 175.786 70.6432C176.206 70.3192 176.782 70.0672 177.514 69.8872C178.246 69.7072 179.17 69.6172 180.286 69.6172C181.402 69.6172 182.32 69.7072 183.04 69.8872C183.772 70.0672 184.342 70.3192 184.75 70.6432C185.17 70.9672 185.458 71.3572 185.614 71.8132C185.782 72.2572 185.866 72.7552 185.866 73.3072V79.4452ZM178.774 78.7972C178.774 79.0372 178.864 79.2412 179.044 79.4092C179.224 79.5652 179.638 79.6432 180.286 79.6432C180.934 79.6432 181.348 79.5652 181.528 79.4092C181.708 79.2412 181.798 79.0372 181.798 78.7972V73.9552C181.798 73.7272 181.708 73.5352 181.528 73.3792C181.348 73.2112 180.934 73.1272 180.286 73.1272C179.638 73.1272 179.224 73.2112 179.044 73.3792C178.864 73.5352 178.774 73.7272 178.774 73.9552V78.7972ZM198.058 82.8472H192.388C190.888 82.8472 189.772 82.5472 189.04 81.9472C188.32 81.3472 187.96 80.4232 187.96 79.1752V73.5592C187.96 72.3112 188.32 71.3872 189.04 70.7872C189.772 70.1872 190.888 69.8872 192.388 69.8872H196.888C197.116 69.8872 197.278 69.9412 197.374 70.0492C197.482 70.1452 197.536 70.3072 197.536 70.5352V72.7132C197.536 72.9412 197.482 73.1092 197.374 73.2172C197.278 73.3132 197.116 73.3612 196.888 73.3612H193.144C192.772 73.3612 192.496 73.4392 192.316 73.5952C192.136 73.7392 192.046 73.9612 192.046 74.2612V78.5632C192.046 78.8632 192.112 79.0852 192.244 79.2292C192.388 79.3732 192.598 79.4452 192.874 79.4452H194.62V76.6372C194.62 76.4092 194.668 76.2472 194.764 76.1512C194.872 76.0432 195.04 75.9892 195.268 75.9892H198.058C198.286 75.9892 198.448 76.0432 198.544 76.1512C198.652 76.2472 198.706 76.4092 198.706 76.6372V82.1992C198.706 82.4272 198.652 82.5952 198.544 82.7032C198.448 82.7992 198.286 82.8472 198.058 82.8472ZM204.97 73.1272V75.4312H206.32C206.632 75.4312 206.842 75.3532 206.95 75.1972C207.058 75.0292 207.112 74.8252 207.112 74.5852V73.9732C207.112 73.7332 207.058 73.5352 206.95 73.3792C206.842 73.2112 206.632 73.1272 206.32 73.1272H204.97ZM204.322 82.8472H201.55C201.322 82.8472 201.154 82.7992 201.046 82.7032C200.95 82.5952 200.902 82.4272 200.902 82.1992V70.5352C200.902 70.3072 200.95 70.1452 201.046 70.0492C201.154 69.9412 201.322 69.8872 201.55 69.8872H207.544C208.888 69.8872 209.812 70.1692 210.316 70.7332C210.832 71.2852 211.09 72.0052 211.09 72.8932V73.7212C211.09 74.2252 211.012 74.6572 210.856 75.0172C210.712 75.3652 210.454 75.6172 210.082 75.7732C210.73 75.8452 211.252 76.1092 211.648 76.5652C212.056 77.0212 212.26 77.6272 212.26 78.3832V82.1992C212.26 82.4272 212.206 82.5952 212.098 82.7032C212.002 82.7992 211.84 82.8472 211.612 82.8472H208.822C208.594 82.8472 208.426 82.7992 208.318 82.7032C208.222 82.5952 208.174 82.4272 208.174 82.1992V79.4452C208.174 79.1812 208.12 78.9892 208.012 78.8692C207.916 78.7372 207.742 78.6712 207.49 78.6712H204.97V82.1992C204.97 82.4272 204.916 82.5952 204.808 82.7032C204.712 82.7992 204.55 82.8472 204.322 82.8472ZM218.977 73.6672L218.131 76.4032H220.957L220.111 73.6672C220.063 73.5592 220.009 73.4812 219.949 73.4332C219.901 73.3852 219.841 73.3612 219.769 73.3612H219.319C219.247 73.3612 219.181 73.3852 219.121 73.4332C219.073 73.4812 219.025 73.5592 218.977 73.6672ZM217.951 82.1992C217.951 82.4272 217.897 82.5952 217.789 82.7032C217.693 82.7992 217.531 82.8472 217.303 82.8472H214.657C214.429 82.8472 214.261 82.7992 214.153 82.7032C214.057 82.5952 214.009 82.4272 214.009 82.1992V77.4472C214.009 77.0872 214.063 76.6732 214.171 76.2052C214.291 75.7372 214.471 75.1912 214.711 74.5672L216.277 70.4812C216.349 70.2772 216.457 70.1272 216.601 70.0312C216.757 69.9352 216.955 69.8872 217.195 69.8872H222.037C222.265 69.8872 222.451 69.9352 222.595 70.0312C222.751 70.1272 222.865 70.2772 222.937 70.4812L224.503 74.5672C224.743 75.1912 224.917 75.7372 225.025 76.2052C225.145 76.6732 225.205 77.0872 225.205 77.4472V82.1992C225.205 82.4272 225.151 82.5952 225.043 82.7032C224.947 82.7992 224.785 82.8472 224.557 82.8472H221.839C221.599 82.8472 221.419 82.7992 221.299 82.7032C221.191 82.5952 221.137 82.4272 221.137 82.1992V79.6792H217.951V82.1992ZM230.757 82.8472H228.075C227.847 82.8472 227.679 82.7992 227.571 82.7032C227.475 82.5952 227.427 82.4272 227.427 82.1992V70.5352C227.427 70.3072 227.475 70.1452 227.571 70.0492C227.679 69.9412 227.847 69.8872 228.075 69.8872H230.973C231.165 69.8872 231.321 69.9292 231.441 70.0132C231.573 70.0972 231.693 70.2352 231.801 70.4272L233.421 73.3612C233.481 73.4692 233.529 73.5472 233.565 73.5952C233.613 73.6432 233.673 73.6672 233.745 73.6672H233.907C233.979 73.6672 234.033 73.6432 234.069 73.5952C234.117 73.5472 234.171 73.4692 234.231 73.3612L235.833 70.4272C235.941 70.2352 236.055 70.0972 236.175 70.0132C236.307 69.9292 236.469 69.8872 236.661 69.8872H239.577C239.805 69.8872 239.967 69.9412 240.063 70.0492C240.171 70.1452 240.225 70.3072 240.225 70.5352V82.1992C240.225 82.4272 240.171 82.5952 240.063 82.7032C239.967 82.7992 239.805 82.8472 239.577 82.8472H236.805C236.577 82.8472 236.409 82.7992 236.301 82.7032C236.205 82.5952 236.157 82.4272 236.157 82.1992V75.8632L235.095 77.8252C234.987 78.0292 234.855 78.1792 234.699 78.2752C234.555 78.3592 234.369 78.4012 234.141 78.4012H233.421C233.193 78.4012 233.001 78.3592 232.845 78.2752C232.701 78.1792 232.575 78.0292 232.467 77.8252L231.405 75.8632V82.1992C231.405 82.4272 231.351 82.5952 231.243 82.7032C231.147 82.7992 230.985 82.8472 230.757 82.8472ZM248.714 82.8472H243.026C242.798 82.8472 242.63 82.7992 242.522 82.7032C242.426 82.5952 242.378 82.4272 242.378 82.1992V80.0932C242.378 79.8652 242.426 79.7032 242.522 79.6072C242.63 79.4992 242.798 79.4452 243.026 79.4452H247.868C248.024 79.4452 248.138 79.3972 248.21 79.3012C248.294 79.1932 248.336 79.0672 248.336 78.9232C248.336 78.7192 248.294 78.5692 248.21 78.4732C248.138 78.3772 248.024 78.3232 247.868 78.3112L245.168 77.9332C244.328 77.8132 243.65 77.5372 243.134 77.1052C242.63 76.6732 242.378 75.9532 242.378 74.9452V73.0552C242.378 72.0352 242.708 71.2552 243.368 70.7152C244.028 70.1632 244.94 69.8872 246.104 69.8872H251.144C251.372 69.8872 251.534 69.9412 251.63 70.0492C251.738 70.1452 251.792 70.3072 251.792 70.5352V72.6772C251.792 72.9052 251.738 73.0732 251.63 73.1812C251.534 73.2772 251.372 73.3252 251.144 73.3252H246.95C246.794 73.3252 246.674 73.3792 246.59 73.4872C246.506 73.5832 246.464 73.7092 246.464 73.8652C246.464 74.0212 246.506 74.1532 246.59 74.2612C246.674 74.3692 246.794 74.4292 246.95 74.4412L249.632 74.8012C250.472 74.9212 251.15 75.1972 251.666 75.6292C252.182 76.0612 252.44 76.7812 252.44 77.7892V79.6792C252.44 80.6992 252.104 81.4852 251.432 82.0372C250.772 82.5772 249.866 82.8472 248.714 82.8472Z" fill="black"/>
<path fill-rule="evenodd" clip-rule="evenodd" d="M226.632 9.42432H175.539C154.086 9.42432 136.695 26.8153 136.695 48.2683V176.128H265.476V48.2683C265.476 26.8153 248.085 9.42432 226.632 9.42432Z" stroke="black" stroke-width="1.5" stroke-linecap="round" stroke-linejoin="round"/>
<path d="M206.549 147.159H224.002V161.642H206.549V147.159Z" fill="#FBFDFC"/>
<path fill-rule="evenodd" clip-rule="evenodd" d="M206.549 147.159H224.002V161.642H206.549V147.159Z" stroke="black" stroke-width="1.5" stroke-linecap="round" stroke-linejoin="round"/>
<path d="M147.776 116.67H195.43V176.128H147.776V116.67Z" fill="#808080"/>
<path fill-rule="evenodd" clip-rule="evenodd" d="M147.776 116.67H195.43V176.128H147.776V116.67Z" stroke="black" stroke-width="1.5" stroke-linecap="round" stroke-linejoin="round"/>
<path fill-rule="evenodd" clip-rule="evenodd" d="M236.586 138.784H255.905V176.128H236.586V138.784Z" stroke="black" stroke-width="1.5" stroke-linecap="round" stroke-linejoin="round"/>
<path d="M182.095 116.67H186.332C188.745 116.67 191.059 117.628 192.765 119.334C194.471 121.04 195.429 123.354 195.429 125.767V128.525V116.67H182.095Z" fill="black"/>
<path fill-rule="evenodd" clip-rule="evenodd" d="M182.095 116.67H186.332C188.745 116.67 191.059 117.628 192.765 119.334C194.471 121.04 195.429 123.354 195.429 125.767V128.525V116.67H182.095Z" stroke="black" stroke-width="1.5" stroke-linecap="round" stroke-linejoin="round"/>
<path d="M246.245 138.784C255.904 138.784 255.904 143.473 255.904 149.762V138.784H246.245Z" fill="black"/>
<path fill-rule="evenodd" clip-rule="evenodd" d="M246.245 138.784C255.904 138.784 255.904 143.473 255.904 149.762V138.784H246.245Z" stroke="black" stroke-width="1.5" stroke-linecap="round" stroke-linejoin="round"/>
<path d="M255.905 176.128C265.476 176.128 265.476 172.879 265.476 166.325V176.128H255.905Z" fill="black"/>
<path fill-rule="evenodd" clip-rule="evenodd" d="M255.905 176.128C265.476 176.128 265.476 172.879 265.476 166.325V176.128H255.905Z" stroke="black" stroke-width="1.5" stroke-linecap="round" stroke-linejoin="round"/>
<path d="M115.551 176.128C121.342 176.128 127.241 175.97 127.241 168.797V176.128H115.551Z" fill="black"/>
<path fill-rule="evenodd" clip-rule="evenodd" d="M115.551 176.128C121.342 176.128 127.241 175.97 127.241 168.797V176.128H115.551Z" stroke="black" stroke-width="1.5" stroke-linecap="round" stroke-linejoin="round"/>
<path d="M75.4632 107.965L75.5393 108.043L86.5543 119.057L86.5723 119.038L86.5933 119.061C87.6343 120.098 89.5773 119.838 90.8083 118.612C92.0373 117.38 92.2963 115.436 91.2573 114.393L91.2272 114.362L91.2103 114.38L80.1943 103.367V103.369L80.1273 103.301C79.0863 102.262 77.1413 102.523 75.9123 103.748C74.6833 104.978 74.4222 106.925 75.4632 107.965ZM43.4823 101.293C51.5873 109.4 64.7363 109.4 72.8453 101.293C80.9533 93.1849 80.9533 80.0369 72.8453 71.9289C64.7393 63.8199 51.5893 63.8199 43.4823 71.9289C35.3733 80.0349 35.3743 93.1839 43.4823 101.293ZM46.2593 98.4269C39.7203 91.8859 39.7203 81.2459 46.2593 74.7079C52.7983 68.1659 63.4413 68.1659 69.9793 74.7079C76.5213 81.2489 76.5213 91.8859 69.9793 98.4309C63.4403 104.968 52.8023 104.968 46.2593 98.4269Z" fill="#FBFDFC"/>
<path d="M52.6901 87.8161L53.8861 88.5481C54.0881 88.5481 54.1911 88.4641 54.1911 88.2981C54.1911 88.1921 54.1421 88.0421 54.0471 87.8521L51.4031 82.8871L45.5461 83.0301C45.2831 83.0431 45.1521 83.1791 45.1521 83.4411C45.1521 83.5011 45.2361 83.5841 45.4021 83.6911L46.6171 84.4221L45.3311 86.4221C44.9751 86.9941 44.7961 87.4651 44.7961 87.8341C44.7961 88.1681 44.9141 88.5431 45.1521 88.9591L49.1351 95.9051C49.0427 95.4948 48.9948 95.0757 48.9921 94.6551C48.9921 93.9541 49.2111 93.2621 49.6521 92.5841L52.6901 87.8161ZM54.2261 83.7621L57.5121 78.6721C56.2841 75.8751 54.9821 74.4751 53.6011 74.4751C52.7671 74.4751 52.2081 74.7071 51.9221 75.1711L48.8141 80.1371L54.2261 83.7621Z" fill="#FBFDFC"/>
<path d="M51.5482 97.5487H57.8882V90.9587H51.7813C51.0303 92.0297 50.5602 92.7577 50.3702 93.1377C50.0687 93.7104 49.9095 94.3474 49.9063 94.9947C49.9053 96.6977 50.4522 97.5487 51.5482 97.5487ZM64.6022 82.5477L67.4243 77.7977C67.5193 77.6317 67.5673 77.4577 67.5673 77.2797C67.5673 77.0647 67.4952 76.9577 67.3532 76.9577C67.3752 76.9577 67.2813 76.9937 67.0673 77.0647L65.7812 77.6537L64.6022 75.3147C64.0782 74.2667 63.0312 73.7427 61.4592 73.7427H54.1192C55.0122 74.0167 55.6182 74.2847 55.9392 74.5467C56.6902 75.1427 57.4582 76.2617 58.2432 77.9037L59.7092 80.9757L58.6182 81.4947C58.5122 81.5427 58.4582 81.6377 58.4582 81.7797C58.4582 81.9587 58.5702 82.0607 58.7972 82.0837L64.6022 82.5477ZM67.4233 96.5677L71.5312 89.1017C70.9242 89.7927 70.2623 90.2567 69.5493 90.4957C68.9783 90.6857 68.1602 90.7807 67.1022 90.7807H62.5313V89.8347C62.5313 89.4657 62.4412 89.2807 62.2622 89.2807C62.1302 89.2807 62.0353 89.3297 61.9773 89.4237L59.0842 94.4427L62.0842 99.0507C62.3102 99.3967 62.5063 99.5317 62.6733 99.4597C62.8393 99.4127 62.9233 99.3237 62.9233 99.1927V97.6207H65.4592C66.3882 97.6207 67.0433 97.2697 67.4233 96.5677Z" fill="#FBFDFC"/>
<path d="M65.6382 89.835H68.3702C69.0242 89.835 69.7032 89.549 70.4062 88.978C71.1562 88.383 71.5312 87.751 71.5312 87.084C71.5312 86.776 71.4282 86.472 71.2262 86.174L67.9772 81.209L62.3862 84.46L65.6382 89.835Z" fill="#FBFDFC"/>
</svg>
