<svg width="277" height="134" viewBox="0 0 277 134" fill="none" xmlns="http://www.w3.org/2000/svg">
<path fill-rule="evenodd" clip-rule="evenodd" d="M214.84 86.2131H262.09V64.2041H214.84V86.2131Z" stroke="#010201" stroke-width="1.5" stroke-linecap="round" stroke-linejoin="round"/>
<path fill-rule="evenodd" clip-rule="evenodd" d="M167.59 64.2041H214.84V86.2131H167.59V64.2041Z" fill="#BBE3D0"/>
<path fill-rule="evenodd" clip-rule="evenodd" d="M167.59 86.2131H214.84V64.2041H167.59V86.2131Z" stroke="#010201" stroke-width="1.5" stroke-linecap="round" stroke-linejoin="round"/>
<path fill-rule="evenodd" clip-rule="evenodd" d="M120.34 64.2041H167.59V86.2131H120.34V64.2041Z" fill="#BBE3D0"/>
<path fill-rule="evenodd" clip-rule="evenodd" d="M120.34 86.2131H167.59V64.2041H120.34V86.2131Z" stroke="#010201" stroke-width="1.5" stroke-linecap="round" stroke-linejoin="round"/>
<path fill-rule="evenodd" clip-rule="evenodd" d="M73.0901 64.2041H120.34V86.2131H73.0901V64.2041Z" fill="#BBE3D0"/>
<path fill-rule="evenodd" clip-rule="evenodd" d="M73.0901 86.2131H120.34V64.2041H73.0901V86.2131Z" stroke="#010201" stroke-width="1.5" stroke-linecap="round" stroke-linejoin="round"/>
<path fill-rule="evenodd" clip-rule="evenodd" d="M84.1001 86.2131V64.2031L23.0801 110.858V132.865L84.1001 86.2131Z" fill="#BBE3D0"/>
<path fill-rule="evenodd" clip-rule="evenodd" d="M84.1001 86.2131V64.2031L23.0801 110.858V132.865L84.1001 86.2131Z" stroke="#010201" stroke-width="1.5" stroke-linecap="round" stroke-linejoin="round"/>
<path fill-rule="evenodd" clip-rule="evenodd" d="M62.0901 64.2041L1.07007 110.857H23.0801L84.1001 64.2041H62.0901Z" fill="#FEFEFE"/>
<path fill-rule="evenodd" clip-rule="evenodd" d="M62.0901 64.2041L1.07007 110.857H23.0801L84.1001 64.2041H62.0901Z" stroke="#010201" stroke-width="1.5" stroke-linecap="round" stroke-linejoin="round"/>
<path fill-rule="evenodd" clip-rule="evenodd" d="M1.07007 110.857H23.0801V132.865H1.07007V110.857Z" fill="#BBE3D0"/>
<path d="M21.3201 95.3748H43.3301V117.384M41.6301 79.8208H63.6401V101.829M1.07007 110.857H23.0801V132.865H1.07007V110.857Z" stroke="#010201" stroke-width="1.5" stroke-linecap="round" stroke-linejoin="round"/>
<path fill-rule="evenodd" clip-rule="evenodd" d="M262.09 86.2131V64.2031L201.07 110.858V132.865L262.09 86.2131Z" fill="#BBE3D0"/>
<path fill-rule="evenodd" clip-rule="evenodd" d="M262.09 86.2131V64.2031L201.07 110.858V132.865L262.09 86.2131Z" stroke="#010201" stroke-width="1.5" stroke-linecap="round" stroke-linejoin="round"/>
<path fill-rule="evenodd" clip-rule="evenodd" d="M254.04 53.2002L179.061 110.857H201.07L276.04 53.2002H254.04Z" fill="#FEFEFE"/>
<path fill-rule="evenodd" clip-rule="evenodd" d="M254.04 53.2002L179.061 110.857H201.07L276.04 53.2002H254.04Z" stroke="#010201" stroke-width="1.5" stroke-linecap="round" stroke-linejoin="round"/>
<path fill-rule="evenodd" clip-rule="evenodd" d="M179.061 110.857H201.071V132.865H179.061V110.857Z" fill="#BBE3D0"/>
<path d="M199.311 95.3748H221.32V117.384M219.62 79.8208H241.63V101.829M179.061 110.857H201.071V132.865H179.061V110.857Z" stroke="#010201" stroke-width="1.5" stroke-linecap="round" stroke-linejoin="round"/>
<path fill-rule="evenodd" clip-rule="evenodd" d="M76.4801 53.2002L62.0901 64.2042H84.1001L98.4901 53.2002H76.4801Z" fill="#FEFEFE"/>
<path fill-rule="evenodd" clip-rule="evenodd" d="M76.4801 53.2002L62.0901 64.2042H84.1001L98.4901 53.2002H76.4801Z" stroke="#010201" stroke-width="1.5" stroke-linecap="round" stroke-linejoin="round"/>
<path fill-rule="evenodd" clip-rule="evenodd" d="M98.4901 53.2002L84.1001 64.2042H120.2L134.59 53.2002H98.4901Z" fill="#FEFEFE"/>
<path fill-rule="evenodd" clip-rule="evenodd" d="M98.4901 53.2002L84.1001 64.2042H120.2L134.59 53.2002H98.4901Z" stroke="#010201" stroke-width="1.5" stroke-linecap="round" stroke-linejoin="round"/>
<path fill-rule="evenodd" clip-rule="evenodd" d="M134.73 53.2002L120.34 64.2042H167.42L181.81 53.2002H134.73Z" fill="#FEFEFE"/>
<path fill-rule="evenodd" clip-rule="evenodd" d="M134.73 53.2002L120.34 64.2042H167.42L181.81 53.2002H134.73Z" stroke="#010201" stroke-width="1.5" stroke-linecap="round" stroke-linejoin="round"/>
<path fill-rule="evenodd" clip-rule="evenodd" d="M181.98 53.2002L167.59 64.2042H214.67L229.06 53.2002H181.98Z" fill="#FEFEFE"/>
<path fill-rule="evenodd" clip-rule="evenodd" d="M181.98 53.2002L167.59 64.2042H214.67L229.06 53.2002H181.98Z" stroke="#010201" stroke-width="1.5" stroke-linecap="round" stroke-linejoin="round"/>
<path fill-rule="evenodd" clip-rule="evenodd" d="M229.06 53.2002H254.19L239.8 64.2042H214.67L229.06 53.2002Z" fill="#FEFEFE"/>
<path fill-rule="evenodd" clip-rule="evenodd" d="M229.06 53.2002H254.19L239.8 64.2042H214.67L229.06 53.2002Z" stroke="#010201" stroke-width="1.5" stroke-linecap="round" stroke-linejoin="round"/>
<path fill-rule="evenodd" clip-rule="evenodd" d="M241.63 101.83L276.2 75.4202V53.2002L241.63 79.8202V101.828V101.83Z" fill="#BBE3D0"/>
<path d="M240.08 64.2042H262.09V86.2142M241.63 101.83L276.2 75.4202V53.2002L241.63 79.8202V101.828V101.83Z" stroke="#010201" stroke-width="1.5" stroke-linecap="round" stroke-linejoin="round"/>
<path fill-rule="evenodd" clip-rule="evenodd" d="M84.1 64.2041L64.97 100.837L84.1 86.2131V64.2041Z" stroke="#010201" stroke-width="1.5" stroke-linecap="round" stroke-linejoin="round"/>
<path fill-rule="evenodd" clip-rule="evenodd" d="M159.11 58.7022C167.22 58.7022 181.98 53.2002 181.98 53.2002H163.25L159.11 58.7022Z" fill="#010201"/>
<path fill-rule="evenodd" clip-rule="evenodd" d="M159.11 58.7022C167.22 58.7022 181.98 53.2002 181.98 53.2002H163.25L159.11 58.7022Z" stroke="#010201" stroke-width="1.5" stroke-linecap="round" stroke-linejoin="round"/>
<path fill-rule="evenodd" clip-rule="evenodd" d="M163.25 38.374H154.97V54.561C154.97 55.1049 155.076 55.6434 155.284 56.146C155.492 56.6485 155.797 57.1051 156.182 57.4897C156.566 57.8743 157.023 58.1793 157.525 58.3873C158.028 58.5953 158.566 58.7023 159.11 58.702C161.4 58.702 163.25 56.848 163.25 54.561V38.374Z" fill="#FEFEFE"/>
<path fill-rule="evenodd" clip-rule="evenodd" d="M163.25 38.374H154.97V54.561C154.97 55.1049 155.076 55.6434 155.284 56.146C155.492 56.6485 155.797 57.1051 156.182 57.4897C156.566 57.8743 157.023 58.1793 157.525 58.3873C158.028 58.5953 158.566 58.7023 159.11 58.702C161.4 58.702 163.25 56.848 163.25 54.561V38.374Z" stroke="#010201" stroke-width="1.5" stroke-linecap="round" stroke-linejoin="round"/>
<path fill-rule="evenodd" clip-rule="evenodd" d="M70.654 1.18604C67.521 1.18604 64.97 2.80104 64.97 4.79304V38.643C64.97 40.635 67.52 42.249 70.654 42.249H256.422C259.553 42.249 262.09 40.635 262.09 38.643V4.79304C262.09 2.80104 259.553 1.18604 256.422 1.18604H70.654Z" fill="#FEFEFE"/>
<path d="M108.777 28.7119H105.861C105.633 28.7119 105.465 28.6639 105.357 28.5679C105.261 28.4599 105.213 28.2919 105.213 28.0639V25.7599L102.459 22.0699C102.183 21.6979 101.997 21.3739 101.901 21.0979C101.817 20.8219 101.775 20.4079 101.775 19.8559V16.3999C101.775 16.1719 101.823 16.0099 101.919 15.9139C102.027 15.8059 102.195 15.7519 102.423 15.7519H105.195C105.423 15.7519 105.585 15.8059 105.681 15.9139C105.789 16.0099 105.843 16.1719 105.843 16.3999V19.3519C105.843 19.4719 105.849 19.5979 105.861 19.7299C105.873 19.8619 105.921 19.9879 106.005 20.1079L106.833 21.4039C106.893 21.5119 106.953 21.5899 107.013 21.6379C107.085 21.6859 107.169 21.7099 107.265 21.7099H107.445C107.541 21.7099 107.619 21.6859 107.679 21.6379C107.751 21.5899 107.817 21.5119 107.877 21.4039L108.705 20.1079C108.789 19.9879 108.837 19.8619 108.849 19.7299C108.861 19.5979 108.867 19.4719 108.867 19.3519V16.3999C108.867 16.1719 108.915 16.0099 109.011 15.9139C109.119 15.8059 109.287 15.7519 109.515 15.7519H112.197C112.425 15.7519 112.587 15.8059 112.683 15.9139C112.791 16.0099 112.845 16.1719 112.845 16.3999V19.8559C112.845 20.4079 112.797 20.8219 112.701 21.0979C112.605 21.3739 112.425 21.6979 112.161 22.0699L109.425 25.7779V28.0639C109.425 28.2919 109.371 28.4599 109.263 28.5679C109.167 28.6639 109.005 28.7119 108.777 28.7119ZM119.139 19.5319L118.293 22.2679H121.119L120.273 19.5319C120.225 19.4239 120.171 19.3459 120.111 19.2979C120.063 19.2499 120.003 19.2259 119.931 19.2259H119.481C119.409 19.2259 119.343 19.2499 119.283 19.2979C119.235 19.3459 119.187 19.4239 119.139 19.5319ZM118.113 28.0639C118.113 28.2919 118.059 28.4599 117.951 28.5679C117.855 28.6639 117.693 28.7119 117.465 28.7119H114.819C114.591 28.7119 114.423 28.6639 114.315 28.5679C114.219 28.4599 114.171 28.2919 114.171 28.0639V23.3119C114.171 22.9519 114.225 22.5379 114.333 22.0699C114.453 21.6019 114.633 21.0559 114.873 20.4319L116.439 16.3459C116.511 16.1419 116.619 15.9919 116.763 15.8959C116.919 15.7999 117.117 15.7519 117.357 15.7519H122.199C122.427 15.7519 122.613 15.7999 122.757 15.8959C122.913 15.9919 123.027 16.1419 123.099 16.3459L124.665 20.4319C124.905 21.0559 125.079 21.6019 125.187 22.0699C125.307 22.5379 125.367 22.9519 125.367 23.3119V28.0639C125.367 28.2919 125.313 28.4599 125.205 28.5679C125.109 28.6639 124.947 28.7119 124.719 28.7119H122.001C121.761 28.7119 121.581 28.6639 121.461 28.5679C121.353 28.4599 121.299 28.2919 121.299 28.0639V25.5439H118.113V28.0639ZM131.658 18.9919V21.2959H133.008C133.32 21.2959 133.53 21.2179 133.638 21.0619C133.746 20.8939 133.8 20.6899 133.8 20.4499V19.8379C133.8 19.5979 133.746 19.3999 133.638 19.2439C133.53 19.0759 133.32 18.9919 133.008 18.9919H131.658ZM131.01 28.7119H128.238C128.01 28.7119 127.842 28.6639 127.734 28.5679C127.638 28.4599 127.59 28.2919 127.59 28.0639V16.3999C127.59 16.1719 127.638 16.0099 127.734 15.9139C127.842 15.8059 128.01 15.7519 128.238 15.7519H134.232C135.576 15.7519 136.5 16.0339 137.004 16.5979C137.52 17.1499 137.778 17.8699 137.778 18.7579V19.5859C137.778 20.0899 137.7 20.5219 137.544 20.8819C137.4 21.2299 137.142 21.4819 136.77 21.6379C137.418 21.7099 137.94 21.9739 138.336 22.4299C138.744 22.8859 138.948 23.4919 138.948 24.2479V28.0639C138.948 28.2919 138.894 28.4599 138.786 28.5679C138.69 28.6639 138.528 28.7119 138.3 28.7119H135.51C135.282 28.7119 135.114 28.6639 135.006 28.5679C134.91 28.4599 134.862 28.2919 134.862 28.0639V25.3099C134.862 25.0459 134.808 24.8539 134.7 24.7339C134.604 24.6019 134.43 24.5359 134.178 24.5359H131.658V28.0639C131.658 28.2919 131.604 28.4599 131.496 28.5679C131.4 28.6639 131.238 28.7119 131.01 28.7119ZM147.681 28.7119H141.615C141.387 28.7119 141.219 28.6639 141.111 28.5679C141.015 28.4599 140.967 28.2919 140.967 28.0639V16.3999C140.967 16.1719 141.015 16.0099 141.111 15.9139C141.219 15.8059 141.387 15.7519 141.615 15.7519H147.681C149.181 15.7519 150.291 16.0519 151.011 16.6519C151.743 17.2519 152.109 18.1759 152.109 19.4239V25.0399C152.109 26.2879 151.743 27.2119 151.011 27.8119C150.291 28.4119 149.181 28.7119 147.681 28.7119ZM145.053 19.1899V25.3099H147.195C147.483 25.3099 147.693 25.2379 147.825 25.0939C147.969 24.9499 148.041 24.7279 148.041 24.4279V20.0539C148.041 19.7539 147.969 19.5379 147.825 19.4059C147.693 19.2619 147.483 19.1899 147.195 19.1899H145.053ZM167.746 15.7519H170.428C170.656 15.7519 170.818 15.8059 170.914 15.9139C171.022 16.0099 171.076 16.1719 171.076 16.3999V23.3839C171.076 23.7679 171.058 24.1279 171.022 24.4639C170.998 24.7879 170.908 25.1719 170.752 25.6159L169.852 28.0639C169.792 28.2439 169.702 28.3999 169.582 28.5319C169.474 28.6519 169.324 28.7119 169.132 28.7119H166.738C166.546 28.7119 166.372 28.6699 166.216 28.5859C166.06 28.5019 165.958 28.3639 165.91 28.1719L165.082 25.2379C165.046 25.1179 164.998 25.0399 164.938 25.0039C164.89 24.9559 164.83 24.9319 164.758 24.9319H164.596C164.524 24.9319 164.458 24.9559 164.398 25.0039C164.35 25.0399 164.308 25.1179 164.272 25.2379L163.426 28.1719C163.378 28.3519 163.288 28.4899 163.156 28.5859C163.024 28.6699 162.862 28.7119 162.67 28.7119H160.294C160.102 28.7119 159.934 28.6519 159.79 28.5319C159.658 28.4119 159.562 28.2559 159.502 28.0639L158.602 25.5799C158.446 25.1359 158.35 24.7519 158.314 24.4279C158.29 24.0919 158.278 23.7319 158.278 23.3479V16.3999C158.278 16.1719 158.326 16.0099 158.422 15.9139C158.53 15.8059 158.698 15.7519 158.926 15.7519H161.698C161.926 15.7519 162.088 15.8059 162.184 15.9139C162.292 16.0099 162.346 16.1719 162.346 16.3999V23.0239L163.39 20.7559C163.486 20.5519 163.612 20.4079 163.768 20.3239C163.924 20.2399 164.116 20.1979 164.344 20.1979H165.1C165.328 20.1979 165.52 20.2399 165.676 20.3239C165.832 20.4079 165.958 20.5519 166.054 20.7559L167.098 23.0239V16.3999C167.098 16.1719 167.146 16.0099 167.242 15.9139C167.35 15.8059 167.518 15.7519 167.746 15.7519ZM178.096 19.5319L177.25 22.2679H180.076L179.23 19.5319C179.182 19.4239 179.128 19.3459 179.068 19.2979C179.02 19.2499 178.96 19.2259 178.888 19.2259H178.438C178.366 19.2259 178.3 19.2499 178.24 19.2979C178.192 19.3459 178.144 19.4239 178.096 19.5319ZM177.07 28.0639C177.07 28.2919 177.016 28.4599 176.908 28.5679C176.812 28.6639 176.65 28.7119 176.422 28.7119H173.776C173.548 28.7119 173.38 28.6639 173.272 28.5679C173.176 28.4599 173.128 28.2919 173.128 28.0639V23.3119C173.128 22.9519 173.182 22.5379 173.29 22.0699C173.41 21.6019 173.59 21.0559 173.83 20.4319L175.396 16.3459C175.468 16.1419 175.576 15.9919 175.72 15.8959C175.876 15.7999 176.074 15.7519 176.314 15.7519H181.156C181.384 15.7519 181.57 15.7999 181.714 15.8959C181.87 15.9919 181.984 16.1419 182.056 16.3459L183.622 20.4319C183.862 21.0559 184.036 21.6019 184.144 22.0699C184.264 22.5379 184.324 22.9519 184.324 23.3119V28.0639C184.324 28.2919 184.27 28.4599 184.162 28.5679C184.066 28.6639 183.904 28.7119 183.676 28.7119H180.958C180.718 28.7119 180.538 28.6639 180.418 28.5679C180.31 28.4599 180.256 28.2919 180.256 28.0639V25.5439H177.07V28.0639ZM192.559 28.7119H186.871C186.643 28.7119 186.475 28.6639 186.367 28.5679C186.271 28.4599 186.223 28.2919 186.223 28.0639V25.9579C186.223 25.7299 186.271 25.5679 186.367 25.4719C186.475 25.3639 186.643 25.3099 186.871 25.3099H191.713C191.869 25.3099 191.983 25.2619 192.055 25.1659C192.139 25.0579 192.181 24.9319 192.181 24.7879C192.181 24.5839 192.139 24.4339 192.055 24.3379C191.983 24.2419 191.869 24.1879 191.713 24.1759L189.013 23.7979C188.173 23.6779 187.495 23.4019 186.979 22.9699C186.475 22.5379 186.223 21.8179 186.223 20.8099V18.9199C186.223 17.8999 186.553 17.1199 187.213 16.5799C187.873 16.0279 188.785 15.7519 189.949 15.7519H194.989C195.217 15.7519 195.379 15.8059 195.475 15.9139C195.583 16.0099 195.637 16.1719 195.637 16.3999V18.5419C195.637 18.7699 195.583 18.9379 195.475 19.0459C195.379 19.1419 195.217 19.1899 194.989 19.1899H190.795C190.639 19.1899 190.519 19.2439 190.435 19.3519C190.351 19.4479 190.309 19.5739 190.309 19.7299C190.309 19.8859 190.351 20.0179 190.435 20.1259C190.519 20.2339 190.639 20.2939 190.795 20.3059L193.477 20.6659C194.317 20.7859 194.995 21.0619 195.511 21.4939C196.027 21.9259 196.285 22.6459 196.285 23.6539V25.5439C196.285 26.5639 195.949 27.3499 195.277 27.9019C194.617 28.4419 193.711 28.7119 192.559 28.7119ZM204.198 28.7119H201.282C201.054 28.7119 200.886 28.6639 200.778 28.5679C200.682 28.4599 200.634 28.2919 200.634 28.0639V19.2259H197.988C197.76 19.2259 197.592 19.1779 197.484 19.0819C197.388 18.9739 197.34 18.8059 197.34 18.5779V16.3999C197.34 16.1719 197.388 16.0099 197.484 15.9139C197.592 15.8059 197.76 15.7519 197.988 15.7519H207.492C207.72 15.7519 207.882 15.8059 207.978 15.9139C208.086 16.0099 208.14 16.1719 208.14 16.3999V18.5779C208.14 18.8059 208.086 18.9739 207.978 19.0819C207.882 19.1779 207.72 19.2259 207.492 19.2259H204.846V28.0639C204.846 28.2919 204.792 28.4599 204.684 28.5679C204.588 28.6639 204.426 28.7119 204.198 28.7119ZM218.891 28.7119H210.539C210.311 28.7119 210.143 28.6639 210.035 28.5679C209.939 28.4599 209.891 28.2919 209.891 28.0639V16.3999C209.891 16.1719 209.939 16.0099 210.035 15.9139C210.143 15.8059 210.311 15.7519 210.539 15.7519H218.891C219.119 15.7519 219.281 15.8059 219.377 15.9139C219.485 16.0099 219.539 16.1719 219.539 16.3999V18.5059C219.539 18.7339 219.485 18.9019 219.377 19.0099C219.281 19.1059 219.119 19.1539 218.891 19.1539H213.923V20.5399H217.433C217.661 20.5399 217.823 20.5939 217.919 20.7019C218.027 20.7979 218.081 20.9599 218.081 21.1879V23.1139C218.081 23.3419 218.027 23.5099 217.919 23.6179C217.823 23.7139 217.661 23.7619 217.433 23.7619H213.923V25.3099H218.891C219.119 25.3099 219.281 25.3639 219.377 25.4719C219.485 25.5679 219.539 25.7299 219.539 25.9579V28.0639C219.539 28.2919 219.485 28.4599 219.377 28.5679C219.281 28.6639 219.119 28.7119 218.891 28.7119Z" fill="black"/>
<path fill-rule="evenodd" clip-rule="evenodd" d="M256.421 1.18604H70.654C67.52 1.18604 64.97 2.80104 64.97 4.79304V38.643C64.97 40.635 67.52 42.249 70.654 42.249H256.42C259.552 42.249 262.089 40.635 262.089 38.643V4.79304C262.089 2.80104 259.553 1.18604 256.421 1.18604Z" stroke="#010201" stroke-width="1.5" stroke-linecap="round" stroke-linejoin="round"/>
<path fill-rule="evenodd" clip-rule="evenodd" d="M154.97 43.616H158.93C159.497 43.6156 160.059 43.7271 160.584 43.9441C161.108 44.161 161.584 44.4792 161.986 44.8804C162.387 45.2817 162.705 45.7581 162.922 46.2824C163.139 46.8067 163.25 47.3686 163.25 47.936V48.538V42.249L154.97 43.616Z" fill="#010201"/>
<path fill-rule="evenodd" clip-rule="evenodd" d="M154.97 43.616H158.93C159.497 43.6156 160.059 43.7271 160.584 43.9441C161.108 44.161 161.584 44.4792 161.986 44.8804C162.387 45.2817 162.705 45.7581 162.922 46.2824C163.139 46.8067 163.25 47.3686 163.25 47.936V48.538V42.249L154.97 43.616Z" stroke="#010201" stroke-width="1.5" stroke-linecap="round" stroke-linejoin="round"/>
</svg>
